<svg version="1.1" viewBox="0.0 0.0 569.0 502.0" fill="none" stroke="none" stroke-linecap="square" stroke-miterlimit="10" width="569" height="502" xmlns:xlink="http://www.w3.org/1999/xlink" xmlns="http://www.w3.org/2000/svg"><path fill="#ffffff" d="M0 0L569.0 0L569.0 502.0L0 502.0L0 0Z" fill-rule="nonzero"/><path fill="#4285f4" d="M284.5 65.833336C365.48535 65.833336 438.92133 113.38999 472.0499 187.28943L284.5 271.36667Z" fill-rule="nonzero"/><path fill="#ea4335" d="M472.0499 187.28943C517.5091 288.69455 474.13345 407.8681 374.12775 456.32834L284.5 271.36667Z" fill-rule="nonzero"/><path fill="#34a853" d="M83.7914 315.63864C70.374985 254.81485 85.26417 191.18831 124.27622 142.63326C163.28827 94.07819 222.2141 65.833336 284.5 65.833336L284.5 271.36667Z" fill-rule="nonzero"/><path fill="#fbbc04" d="M374.12775 456.32834C317.5237 483.75723 251.47629 483.75723 194.87224 456.32834C138.26819 428.89944 97.34001 377.06177 83.7914 315.63864L284.5 271.36667Z" fill-rule="nonzero"/><path fill="#ffffff" d="M300.31683 166.46455L298.34808 166.46455L298.34808 158.85518L295.9887 159.57393L295.9887 157.98018L300.1137 156.4958L300.31683 156.4958L300.31683 166.46455ZM305.53558 160.60518L306.58246 160.60518Q307.33246 160.60518 307.69183 160.23018Q308.06683 159.85518 308.06683 159.2458Q308.06683 158.63643 307.70746 158.3083Q307.34808 157.96455 306.72308 157.96455Q306.14496 157.96455 305.75433 158.27705Q305.37933 158.58955 305.37933 159.08955L303.41058 159.08955Q303.41058 158.3083 303.83246 157.69893Q304.25433 157.07393 305.00433 156.73018Q305.75433 156.3708 306.6762 156.3708Q308.25433 156.3708 309.14496 157.13643Q310.03558 157.88643 310.03558 159.21455Q310.03558 159.90205 309.6137 160.48018Q309.20746 161.04268 308.53558 161.35518Q309.3637 161.65205 309.76996 162.26143Q310.19183 162.85518 310.19183 163.66768Q310.19183 164.9958 309.22308 165.8083Q308.26996 166.60518 306.6762 166.60518Q305.1762 166.60518 304.22308 165.82393Q303.28558 165.02705 303.28558 163.73018L305.25433 163.73018Q305.25433 164.29268 305.6762 164.65205Q306.09808 165.01143 306.72308 165.01143Q307.4262 165.01143 307.81683 164.63643Q308.22308 164.26143 308.22308 163.65205Q308.22308 162.15205 306.58246 162.15205L305.53558 162.15205L305.53558 160.60518ZM311.81683 161.57393L312.39496 156.51143L317.97308 156.51143L317.97308 158.15205L314.01996 158.15205L313.76996 160.29268Q314.47308 159.91768 315.26996 159.91768Q316.69183 159.91768 317.4887 160.8083Q318.3012 161.6833 318.3012 163.27705Q318.3012 164.23018 317.89496 164.9958Q317.4887 165.76143 316.72308 166.1833Q315.97308 166.60518 314.94183 166.60518Q314.03558 166.60518 313.25433 166.2458Q312.4887 165.8708 312.03558 165.21455Q311.59808 164.54268 311.56683 163.69893L313.51996 163.69893Q313.58246 164.32393 313.95746 164.66768Q314.33246 165.01143 314.9262 165.01143Q315.59808 165.01143 315.95746 164.52705Q316.31683 164.04268 316.31683 163.16768Q316.31683 162.3083 315.89496 161.8708Q315.4887 161.41768 314.72308 161.41768Q314.01996 161.41768 313.58246 161.77705L313.39496 161.96455L311.81683 161.57393ZM319.70746 165.4958Q319.70746 165.02705 320.01996 164.73018Q320.34808 164.4333 320.81683 164.4333Q321.31683 164.4333 321.62933 164.73018Q321.94183 165.02705 321.94183 165.4958Q321.94183 165.96455 321.62933 166.26143Q321.31683 166.54268 320.81683 166.54268Q320.33246 166.54268 320.01996 166.26143Q319.70746 165.96455 319.70746 165.4958ZM330.22308 162.35518Q330.22308 164.41768 329.3637 165.51143Q328.51996 166.60518 326.8637 166.60518Q325.2387 166.60518 324.37933 165.52705Q323.51996 164.44893 323.50433 162.44893L323.50433 160.6208Q323.50433 158.52705 324.3637 157.44893Q325.22308 156.3708 326.84808 156.3708Q328.4887 156.3708 329.34808 157.44893Q330.20746 158.51143 330.22308 160.51143L330.22308 162.35518ZM328.25433 160.33955Q328.25433 159.10518 327.91058 158.54268Q327.56683 157.98018 326.84808 157.98018Q326.16058 157.98018 325.81683 158.51143Q325.4887 159.04268 325.47308 160.1833L325.47308 162.60518Q325.47308 163.82393 325.8012 164.41768Q326.12933 165.01143 326.8637 165.01143Q327.59808 165.01143 327.91058 164.44893Q328.2387 163.8708 328.25433 162.69893L328.25433 160.33955ZM338.22308 162.35518Q338.22308 164.41768 337.3637 165.51143Q336.51996 166.60518 334.8637 166.60518Q333.2387 166.60518 332.37933 165.52705Q331.51996 164.44893 331.50433 162.44893L331.50433 160.6208Q331.50433 158.52705 332.3637 157.44893Q333.22308 156.3708 334.84808 156.3708Q336.4887 156.3708 337.34808 157.44893Q338.20746 158.51143 338.22308 160.51143L338.22308 162.35518ZM336.25433 160.33955Q336.25433 159.10518 335.91058 158.54268Q335.56683 157.98018 334.84808 157.98018Q334.16058 157.98018 333.81683 158.51143Q333.4887 159.04268 333.47308 160.1833L333.47308 162.60518Q333.47308 163.82393 333.8012 164.41768Q334.12933 165.01143 334.8637 165.01143Q335.59808 165.01143 335.91058 164.44893Q336.2387 163.8708 336.25433 162.69893L336.25433 160.33955ZM346.22308 162.35518Q346.22308 164.41768 345.3637 165.51143Q344.51996 166.60518 342.8637 166.60518Q341.2387 166.60518 340.37933 165.52705Q339.51996 164.44893 339.50433 162.44893L339.50433 160.6208Q339.50433 158.52705 340.3637 157.44893Q341.22308 156.3708 342.84808 156.3708Q344.4887 156.3708 345.34808 157.44893Q346.20746 158.51143 346.22308 160.51143L346.22308 162.35518ZM344.25433 160.33955Q344.25433 159.10518 343.91058 158.54268Q343.56683 157.98018 342.84808 157.98018Q342.16058 157.98018 341.81683 158.51143Q341.4887 159.04268 341.47308 160.1833L341.47308 162.60518Q341.47308 163.82393 341.8012 164.41768Q342.12933 165.01143 342.8637 165.01143Q343.59808 165.01143 343.91058 164.44893Q344.2387 163.8708 344.25433 162.69893L344.25433 160.33955ZM348.1137 168.96455L347.08246 168.41768L347.33246 167.98018Q347.78558 167.13643 347.8012 166.3083L347.8012 164.77705L349.47308 164.77705L349.47308 166.15205Q349.45746 166.90205 349.08246 167.66768Q348.70746 168.44893 348.1137 168.96455ZM357.22308 162.35518Q357.22308 164.41768 356.3637 165.51143Q355.51996 166.60518 353.8637 166.60518Q352.2387 166.60518 351.37933 165.52705Q350.51996 164.44893 350.50433 162.44893L350.50433 160.6208Q350.50433 158.52705 351.3637 157.44893Q352.22308 156.3708 353.84808 156.3708Q355.4887 156.3708 356.34808 157.44893Q357.20746 158.51143 357.22308 160.51143L357.22308 162.35518ZM355.25433 160.33955Q355.25433 159.10518 354.91058 158.54268Q354.56683 157.98018 353.84808 157.98018Q353.16058 157.98018 352.81683 158.51143Q352.4887 159.04268 352.47308 160.1833L352.47308 162.60518Q352.47308 163.82393 352.8012 164.41768Q353.12933 165.01143 353.8637 165.01143Q354.59808 165.01143 354.91058 164.44893Q355.2387 163.8708 355.25433 162.69893L355.25433 160.33955ZM365.22308 162.35518Q365.22308 164.41768 364.3637 165.51143Q363.51996 166.60518 361.8637 166.60518Q360.2387 166.60518 359.37933 165.52705Q358.51996 164.44893 358.50433 162.44893L358.50433 160.6208Q358.50433 158.52705 359.3637 157.44893Q360.22308 156.3708 361.84808 156.3708Q363.4887 156.3708 364.34808 157.44893Q365.20746 158.51143 365.22308 160.51143L365.22308 162.35518ZM363.25433 160.33955Q363.25433 159.10518 362.91058 158.54268Q362.56683 157.98018 361.84808 157.98018Q361.16058 157.98018 360.81683 158.51143Q360.4887 159.04268 360.47308 160.1833L360.47308 162.60518Q360.47308 163.82393 360.8012 164.41768Q361.12933 165.01143 361.8637 165.01143Q362.59808 165.01143 362.91058 164.44893Q363.2387 163.8708 363.25433 162.69893L363.25433 160.33955ZM369.69183 162.41768Q369.69183 160.85518 370.1137 159.44893Q370.53558 158.02705 371.34808 156.9333Q372.16058 155.83955 373.1137 155.41768L373.4887 156.48018Q372.4887 157.21455 371.9262 158.76143Q371.3637 160.3083 371.3637 162.3708L371.3637 162.58955Q371.3637 164.65205 371.91058 166.21455Q372.47308 167.76143 373.4887 168.52705L373.1137 169.57393Q372.1762 169.15205 371.3637 168.08955Q370.56683 167.04268 370.14496 165.66768Q369.72308 164.27705 369.69183 162.77705L369.69183 162.41768ZM379.31683 166.46455L377.34808 166.46455L377.34808 158.85518L374.9887 159.57393L374.9887 157.98018L379.1137 156.4958L379.31683 156.4958L379.31683 166.46455ZM389.01996 159.15205Q389.01996 159.88643 388.64496 160.44893Q388.28558 160.9958 387.64496 161.33955Q388.37933 161.6833 388.8012 162.29268Q389.22308 162.90205 389.22308 163.73018Q389.22308 165.0583 388.31683 165.83955Q387.4262 166.60518 385.8637 166.60518Q384.31683 166.60518 383.41058 165.83955Q382.50433 165.0583 382.50433 163.73018Q382.50433 162.90205 382.9262 162.29268Q383.34808 161.6833 384.06683 161.33955Q383.4262 160.9958 383.06683 160.44893Q382.70746 159.88643 382.70746 159.15205Q382.70746 157.88643 383.5512 157.13643Q384.41058 156.3708 385.8637 156.3708Q387.31683 156.3708 388.16058 157.1208Q389.01996 157.8708 389.01996 159.15205ZM387.2387 163.58955Q387.2387 162.94893 386.8637 162.5583Q386.4887 162.16768 385.84808 162.16768Q385.22308 162.16768 384.84808 162.5583Q384.47308 162.9333 384.47308 163.58955Q384.47308 164.23018 384.83246 164.6208Q385.20746 165.01143 385.8637 165.01143Q386.50433 165.01143 386.8637 164.63643Q387.2387 164.26143 387.2387 163.58955ZM387.03558 159.2458Q387.03558 158.66768 386.72308 158.32393Q386.4262 157.96455 385.8637 157.96455Q385.3012 157.96455 384.9887 158.3083Q384.69183 158.65205 384.69183 159.2458Q384.69183 159.83955 384.9887 160.21455Q385.3012 160.57393 385.8637 160.57393Q386.4262 160.57393 386.72308 160.21455Q387.03558 159.83955 387.03558 159.2458ZM391.1137 168.96455L390.08246 168.41768L390.33246 167.98018Q390.78558 167.13643 390.8012 166.3083L390.8012 164.77705L392.47308 164.77705L392.47308 166.15205Q392.45746 166.90205 392.08246 167.66768Q391.70746 168.44893 391.1137 168.96455ZM395.53558 160.60518L396.58246 160.60518Q397.33246 160.60518 397.69183 160.23018Q398.06683 159.85518 398.06683 159.2458Q398.06683 158.63643 397.70746 158.3083Q397.34808 157.96455 396.72308 157.96455Q396.14496 157.96455 395.75433 158.27705Q395.37933 158.58955 395.37933 159.08955L393.41058 159.08955Q393.41058 158.3083 393.83246 157.69893Q394.25433 157.07393 395.00433 156.73018Q395.75433 156.3708 396.6762 156.3708Q398.25433 156.3708 399.14496 157.13643Q400.03558 157.88643 400.03558 159.21455Q400.03558 159.90205 399.6137 160.48018Q399.20746 161.04268 398.53558 161.35518Q399.3637 161.65205 399.76996 162.26143Q400.19183 162.85518 400.19183 163.66768Q400.19183 164.9958 399.22308 165.8083Q398.26996 166.60518 396.6762 166.60518Q395.1762 166.60518 394.22308 165.82393Q393.28558 165.02705 393.28558 163.73018L395.25433 163.73018Q395.25433 164.29268 395.6762 164.65205Q396.09808 165.01143 396.72308 165.01143Q397.4262 165.01143 397.81683 164.63643Q398.22308 164.26143 398.22308 163.65205Q398.22308 162.15205 396.58246 162.15205L395.53558 162.15205L395.53558 160.60518ZM401.50433 158.41768Q401.50433 157.51143 402.09808 156.94893Q402.69183 156.3708 403.64496 156.3708Q404.62933 156.3708 405.22308 156.9333Q405.81683 157.4958 405.81683 158.46455L405.81683 158.94893Q405.81683 159.8708 405.22308 160.4333Q404.62933 160.9958 403.66058 160.9958Q402.69183 160.9958 402.09808 160.4333Q401.50433 159.8708 401.50433 158.91768L401.50433 158.41768ZM402.81683 158.94893Q402.81683 159.35518 403.0512 159.60518Q403.28558 159.85518 403.66058 159.85518Q404.0512 159.85518 404.26996 159.60518Q404.50433 159.35518 404.50433 158.9333L404.50433 158.41768Q404.50433 158.01143 404.26996 157.76143Q404.0512 157.51143 403.64496 157.51143Q403.26996 157.51143 403.03558 157.76143Q402.81683 158.01143 402.81683 158.44893L402.81683 158.94893ZM406.25433 164.02705Q406.25433 163.10518 406.84808 162.54268Q407.45746 161.98018 408.41058 161.98018Q409.37933 161.98018 409.97308 162.54268Q410.58246 163.08955 410.58246 164.0583L410.58246 164.5583Q410.58246 165.48018 409.9887 166.04268Q409.41058 166.60518 408.4262 166.60518Q407.44183 166.60518 406.84808 166.04268Q406.25433 165.46455 406.25433 164.52705L406.25433 164.02705ZM407.56683 164.5583Q407.56683 164.9333 407.81683 165.19893Q408.06683 165.46455 408.4262 165.46455Q409.26996 165.46455 409.26996 164.54268L409.26996 164.02705Q409.26996 163.6208 409.03558 163.3708Q408.8012 163.1208 408.41058 163.1208Q408.03558 163.1208 407.8012 163.3708Q407.56683 163.6208 407.56683 164.04268L407.56683 164.5583ZM404.0512 165.71455L403.09808 165.19893L407.95746 157.41768L408.91058 157.9333L404.0512 165.71455ZM415.00433 162.57393Q415.00433 164.1208 414.56683 165.5583Q414.12933 166.98018 413.28558 168.07393Q412.45746 169.16768 411.50433 169.57393L411.12933 168.52705Q412.09808 167.79268 412.64496 166.27705Q413.20746 164.7458 413.2387 162.76143L413.2387 162.40205Q413.2387 160.35518 412.6762 158.8083Q412.1137 157.2458 411.12933 156.46455L411.50433 155.41768Q412.44183 155.82393 413.25433 156.88643Q414.08246 157.9333 414.53558 159.35518Q414.9887 160.76143 415.00433 162.26143L415.00433 162.57393Z" fill-rule="nonzero"/><path fill="#ffffff" d="M341.69705 316.71442L339.7283 316.71442L339.7283 309.10504L337.36893 309.8238L337.36893 308.23004L341.49393 306.74567L341.69705 306.74567L341.69705 316.71442ZM351.40018 309.40192Q351.40018 310.1363 351.02518 310.6988Q350.6658 311.24567 350.02518 311.58942Q350.75955 311.93317 351.18143 312.54254Q351.6033 313.15192 351.6033 313.98004Q351.6033 315.30817 350.69705 316.08942Q349.80643 316.85504 348.24393 316.85504Q346.69705 316.85504 345.7908 316.08942Q344.88455 315.30817 344.88455 313.98004Q344.88455 313.15192 345.30643 312.54254Q345.7283 311.93317 346.44705 311.58942Q345.80643 311.24567 345.44705 310.6988Q345.08768 310.1363 345.08768 309.40192Q345.08768 308.1363 345.93143 307.3863Q346.7908 306.62067 348.24393 306.62067Q349.69705 306.62067 350.5408 307.37067Q351.40018 308.12067 351.40018 309.40192ZM349.61893 313.83942Q349.61893 313.1988 349.24393 312.80817Q348.86893 312.41754 348.2283 312.41754Q347.6033 312.41754 347.2283 312.80817Q346.8533 313.18317 346.8533 313.83942Q346.8533 314.48004 347.21268 314.87067Q347.58768 315.2613 348.24393 315.2613Q348.88455 315.2613 349.24393 314.8863Q349.61893 314.5113 349.61893 313.83942ZM349.4158 309.49567Q349.4158 308.91754 349.1033 308.5738Q348.80643 308.21442 348.24393 308.21442Q347.68143 308.21442 347.36893 308.55817Q347.07205 308.90192 347.07205 309.49567Q347.07205 310.08942 347.36893 310.46442Q347.68143 310.8238 348.24393 310.8238Q348.80643 310.8238 349.1033 310.46442Q349.4158 310.08942 349.4158 309.49567ZM357.69705 316.71442L355.7283 316.71442L355.7283 309.10504L353.36893 309.8238L353.36893 308.23004L357.49393 306.74567L357.69705 306.74567L357.69705 316.71442ZM361.08768 315.74567Q361.08768 315.27692 361.40018 314.98004Q361.7283 314.68317 362.19705 314.68317Q362.69705 314.68317 363.00955 314.98004Q363.32205 315.27692 363.32205 315.74567Q363.32205 316.21442 363.00955 316.5113Q362.69705 316.79254 362.19705 316.79254Q361.71268 316.79254 361.40018 316.5113Q361.08768 316.21442 361.08768 315.74567ZM371.6033 312.60504Q371.6033 314.66754 370.74393 315.7613Q369.90018 316.85504 368.24393 316.85504Q366.61893 316.85504 365.75955 315.77692Q364.90018 314.6988 364.88455 312.6988L364.88455 310.87067Q364.88455 308.77692 365.74393 307.6988Q366.6033 306.62067 368.2283 306.62067Q369.86893 306.62067 370.7283 307.6988Q371.58768 308.7613 371.6033 310.7613L371.6033 312.60504ZM369.63455 310.58942Q369.63455 309.35504 369.2908 308.79254Q368.94705 308.23004 368.2283 308.23004Q367.5408 308.23004 367.19705 308.7613Q366.86893 309.29254 366.8533 310.43317L366.8533 312.85504Q366.8533 314.0738 367.18143 314.66754Q367.50955 315.2613 368.24393 315.2613Q368.9783 315.2613 369.2908 314.6988Q369.61893 314.12067 369.63455 312.9488L369.63455 310.58942ZM379.6033 312.60504Q379.6033 314.66754 378.74393 315.7613Q377.90018 316.85504 376.24393 316.85504Q374.61893 316.85504 373.75955 315.77692Q372.90018 314.6988 372.88455 312.6988L372.88455 310.87067Q372.88455 308.77692 373.74393 307.6988Q374.6033 306.62067 376.2283 306.62067Q377.86893 306.62067 378.7283 307.6988Q379.58768 308.7613 379.6033 310.7613L379.6033 312.60504ZM377.63455 310.58942Q377.63455 309.35504 377.2908 308.79254Q376.94705 308.23004 376.2283 308.23004Q375.5408 308.23004 375.19705 308.7613Q374.86893 309.29254 374.8533 310.43317L374.8533 312.85504Q374.8533 314.0738 375.18143 314.66754Q375.50955 315.2613 376.24393 315.2613Q376.9783 315.2613 377.2908 314.6988Q377.61893 314.12067 377.63455 312.9488L377.63455 310.58942ZM387.6033 312.60504Q387.6033 314.66754 386.74393 315.7613Q385.90018 316.85504 384.24393 316.85504Q382.61893 316.85504 381.75955 315.77692Q380.90018 314.6988 380.88455 312.6988L380.88455 310.87067Q380.88455 308.77692 381.74393 307.6988Q382.6033 306.62067 384.2283 306.62067Q385.86893 306.62067 386.7283 307.6988Q387.58768 308.7613 387.6033 310.7613L387.6033 312.60504ZM385.63455 310.58942Q385.63455 309.35504 385.2908 308.79254Q384.94705 308.23004 384.2283 308.23004Q383.5408 308.23004 383.19705 308.7613Q382.86893 309.29254 382.8533 310.43317L382.8533 312.85504Q382.8533 314.0738 383.18143 314.66754Q383.50955 315.2613 384.24393 315.2613Q384.9783 315.2613 385.2908 314.6988Q385.61893 314.12067 385.63455 312.9488L385.63455 310.58942ZM389.49393 319.21442L388.46268 318.66754L388.71268 318.23004Q389.1658 317.3863 389.18143 316.55817L389.18143 315.02692L390.8533 315.02692L390.8533 316.40192Q390.83768 317.15192 390.46268 317.91754Q390.08768 318.6988 389.49393 319.21442ZM398.6033 312.60504Q398.6033 314.66754 397.74393 315.7613Q396.90018 316.85504 395.24393 316.85504Q393.61893 316.85504 392.75955 315.77692Q391.90018 314.6988 391.88455 312.6988L391.88455 310.87067Q391.88455 308.77692 392.74393 307.6988Q393.6033 306.62067 395.2283 306.62067Q396.86893 306.62067 397.7283 307.6988Q398.58768 308.7613 398.6033 310.7613L398.6033 312.60504ZM396.63455 310.58942Q396.63455 309.35504 396.2908 308.79254Q395.94705 308.23004 395.2283 308.23004Q394.5408 308.23004 394.19705 308.7613Q393.86893 309.29254 393.8533 310.43317L393.8533 312.85504Q393.8533 314.0738 394.18143 314.66754Q394.50955 315.2613 395.24393 315.2613Q395.9783 315.2613 396.2908 314.6988Q396.61893 314.12067 396.63455 312.9488L396.63455 310.58942ZM406.6033 312.60504Q406.6033 314.66754 405.74393 315.7613Q404.90018 316.85504 403.24393 316.85504Q401.61893 316.85504 400.75955 315.77692Q399.90018 314.6988 399.88455 312.6988L399.88455 310.87067Q399.88455 308.77692 400.74393 307.6988Q401.6033 306.62067 403.2283 306.62067Q404.86893 306.62067 405.7283 307.6988Q406.58768 308.7613 406.6033 310.7613L406.6033 312.60504ZM404.63455 310.58942Q404.63455 309.35504 404.2908 308.79254Q403.94705 308.23004 403.2283 308.23004Q402.5408 308.23004 402.19705 308.7613Q401.86893 309.29254 401.8533 310.43317L401.8533 312.85504Q401.8533 314.0738 402.18143 314.66754Q402.50955 315.2613 403.24393 315.2613Q403.9783 315.2613 404.2908 314.6988Q404.61893 314.12067 404.63455 312.9488L404.63455 310.58942ZM411.07205 312.66754Q411.07205 311.10504 411.49393 309.6988Q411.9158 308.27692 412.7283 307.18317Q413.5408 306.08942 414.49393 305.66754L414.86893 306.73004Q413.86893 307.46442 413.30643 309.0113Q412.74393 310.55817 412.74393 312.62067L412.74393 312.83942Q412.74393 314.90192 413.2908 316.46442Q413.8533 318.0113 414.86893 318.77692L414.49393 319.8238Q413.55643 319.40192 412.74393 318.33942Q411.94705 317.29254 411.52518 315.91754Q411.1033 314.52692 411.07205 313.02692L411.07205 312.66754ZM422.7283 316.71442L415.90018 316.71442L415.90018 315.35504L419.11893 311.93317Q419.7908 311.1988 420.1033 310.66754Q420.43143 310.12067 420.43143 309.6363Q420.43143 308.98004 420.08768 308.60504Q419.75955 308.21442 419.13455 308.21442Q418.46268 308.21442 418.07205 308.68317Q417.69705 309.1363 417.69705 309.8863L415.71268 309.8863Q415.71268 308.98004 416.13455 308.23004Q416.57205 307.48004 417.36893 307.05817Q418.1658 306.62067 419.1658 306.62067Q420.69705 306.62067 421.5408 307.37067Q422.40018 308.10504 422.40018 309.4488Q422.40018 310.18317 422.00955 310.9488Q421.63455 311.71442 420.71268 312.73004L418.44705 315.12067L422.7283 315.12067L422.7283 316.71442ZM429.74393 312.96442L430.88455 312.96442L430.88455 314.55817L429.74393 314.55817L429.74393 316.71442L427.77518 316.71442L427.77518 314.55817L423.69705 314.55817L423.6033 313.3238L427.75955 306.7613L429.74393 306.7613L429.74393 312.96442ZM425.57205 312.96442L427.77518 312.96442L427.77518 309.4488L427.65018 309.68317L425.57205 312.96442ZM432.49393 319.21442L431.46268 318.66754L431.71268 318.23004Q432.1658 317.3863 432.18143 316.55817L432.18143 315.02692L433.8533 315.02692L433.8533 316.40192Q433.83768 317.15192 433.46268 317.91754Q433.08768 318.6988 432.49393 319.21442ZM435.19705 311.8238L435.77518 306.7613L441.3533 306.7613L441.3533 308.40192L437.40018 308.40192L437.15018 310.54254Q437.8533 310.16754 438.65018 310.16754Q440.07205 310.16754 440.86893 311.05817Q441.68143 311.93317 441.68143 313.52692Q441.68143 314.48004 441.27518 315.24567Q440.86893 316.0113 440.1033 316.43317Q439.3533 316.85504 438.32205 316.85504Q437.4158 316.85504 436.63455 316.49567Q435.86893 316.12067 435.4158 315.46442Q434.9783 314.79254 434.94705 313.9488L436.90018 313.9488Q436.96268 314.5738 437.33768 314.91754Q437.71268 315.2613 438.30643 315.2613Q438.9783 315.2613 439.33768 314.77692Q439.69705 314.29254 439.69705 313.41754Q439.69705 312.55817 439.27518 312.12067Q438.86893 311.66754 438.1033 311.66754Q437.40018 311.66754 436.96268 312.02692L436.77518 312.21442L435.19705 311.8238ZM442.88455 308.66754Q442.88455 307.7613 443.4783 307.1988Q444.07205 306.62067 445.02518 306.62067Q446.00955 306.62067 446.6033 307.18317Q447.19705 307.74567 447.19705 308.71442L447.19705 309.1988Q447.19705 310.12067 446.6033 310.68317Q446.00955 311.24567 445.0408 311.24567Q444.07205 311.24567 443.4783 310.68317Q442.88455 310.12067 442.88455 309.16754L442.88455 308.66754ZM444.19705 309.1988Q444.19705 309.60504 444.43143 309.85504Q444.6658 310.10504 445.0408 310.10504Q445.43143 310.10504 445.65018 309.85504Q445.88455 309.60504 445.88455 309.18317L445.88455 308.66754Q445.88455 308.2613 445.65018 308.0113Q445.43143 307.7613 445.02518 307.7613Q444.65018 307.7613 444.4158 308.0113Q444.19705 308.2613 444.19705 308.6988L444.19705 309.1988ZM447.63455 314.27692Q447.63455 313.35504 448.2283 312.79254Q448.83768 312.23004 449.7908 312.23004Q450.75955 312.23004 451.3533 312.79254Q451.96268 313.33942 451.96268 314.30817L451.96268 314.80817Q451.96268 315.73004 451.36893 316.29254Q450.7908 316.85504 449.80643 316.85504Q448.82205 316.85504 448.2283 316.29254Q447.63455 315.71442 447.63455 314.77692L447.63455 314.27692ZM448.94705 314.80817Q448.94705 315.18317 449.19705 315.4488Q449.44705 315.71442 449.80643 315.71442Q450.65018 315.71442 450.65018 314.79254L450.65018 314.27692Q450.65018 313.87067 450.4158 313.62067Q450.18143 313.37067 449.7908 313.37067Q449.4158 313.37067 449.18143 313.62067Q448.94705 313.87067 448.94705 314.29254L448.94705 314.80817ZM445.43143 315.96442L444.4783 315.4488L449.33768 307.66754L450.2908 308.18317L445.43143 315.96442ZM456.38455 312.8238Q456.38455 314.37067 455.94705 315.80817Q455.50955 317.23004 454.6658 318.3238Q453.83768 319.41754 452.88455 319.8238L452.50955 318.77692Q453.4783 318.04254 454.02518 316.52692Q454.58768 314.99567 454.61893 313.0113L454.61893 312.65192Q454.61893 310.60504 454.05643 309.05817Q453.49393 307.49567 452.50955 306.71442L452.88455 305.66754Q453.82205 306.0738 454.63455 307.1363Q455.46268 308.18317 455.9158 309.60504Q456.36893 311.0113 456.38455 312.5113L456.38455 312.8238Z" fill-rule="nonzero"/><path fill="#ffffff" d="M172.62697 397.36087L165.79884 397.36087L165.79884 396.0015L169.0176 392.57962Q169.68947 391.84525 170.00197 391.314Q170.3301 390.76712 170.3301 390.28275Q170.3301 389.6265 169.98634 389.2515Q169.65822 388.86087 169.03322 388.86087Q168.36134 388.86087 167.97072 389.32962Q167.59572 389.78275 167.59572 390.53275L165.61134 390.53275Q165.61134 389.6265 166.03322 388.8765Q166.47072 388.1265 167.2676 387.70462Q168.06447 387.26712 169.06447 387.26712Q170.59572 387.26712 171.43947 388.01712Q172.29884 388.7515 172.29884 390.09525Q172.29884 390.82962 171.90822 391.59525Q171.53322 392.36087 170.61134 393.3765L168.34572 395.76712L172.62697 395.76712L172.62697 397.36087ZM178.59572 397.36087L176.62697 397.36087L176.62697 389.7515L174.2676 390.47025L174.2676 388.8765L178.3926 387.39212L178.59572 387.39212L178.59572 397.36087ZM188.62697 397.36087L181.79884 397.36087L181.79884 396.0015L185.0176 392.57962Q185.68947 391.84525 186.00197 391.314Q186.3301 390.76712 186.3301 390.28275Q186.3301 389.6265 185.98634 389.2515Q185.65822 388.86087 185.03322 388.86087Q184.36134 388.86087 183.97072 389.32962Q183.59572 389.78275 183.59572 390.53275L181.61134 390.53275Q181.61134 389.6265 182.03322 388.8765Q182.47072 388.1265 183.2676 387.70462Q184.06447 387.26712 185.06447 387.26712Q186.59572 387.26712 187.43947 388.01712Q188.29884 388.7515 188.29884 390.09525Q188.29884 390.82962 187.90822 391.59525Q187.53322 392.36087 186.61134 393.3765L184.34572 395.76712L188.62697 395.76712L188.62697 397.36087ZM189.98634 396.39212Q189.98634 395.92337 190.29884 395.6265Q190.62697 395.32962 191.09572 395.32962Q191.59572 395.32962 191.90822 395.6265Q192.22072 395.92337 192.22072 396.39212Q192.22072 396.86087 191.90822 397.15775Q191.59572 397.439 191.09572 397.439Q190.61134 397.439 190.29884 397.15775Q189.98634 396.86087 189.98634 396.39212ZM200.50197 393.2515Q200.50197 395.314 199.6426 396.40775Q198.79884 397.5015 197.1426 397.5015Q195.5176 397.5015 194.65822 396.42337Q193.79884 395.34525 193.78322 393.34525L193.78322 391.51712Q193.78322 389.42337 194.6426 388.34525Q195.50197 387.26712 197.12697 387.26712Q198.7676 387.26712 199.62697 388.34525Q200.48634 389.40775 200.50197 391.40775L200.50197 393.2515ZM198.53322 391.23587Q198.53322 390.0015 198.18947 389.439Q197.84572 388.8765 197.12697 388.8765Q196.43947 388.8765 196.09572 389.40775Q195.7676 389.939 195.75197 391.07962L195.75197 393.5015Q195.75197 394.72025 196.0801 395.314Q196.40822 395.90775 197.1426 395.90775Q197.87697 395.90775 198.18947 395.34525Q198.5176 394.76712 198.53322 393.59525L198.53322 391.23587ZM208.50197 393.2515Q208.50197 395.314 207.6426 396.40775Q206.79884 397.5015 205.1426 397.5015Q203.5176 397.5015 202.65822 396.42337Q201.79884 395.34525 201.78322 393.34525L201.78322 391.51712Q201.78322 389.42337 202.6426 388.34525Q203.50197 387.26712 205.12697 387.26712Q206.7676 387.26712 207.62697 388.34525Q208.48634 389.40775 208.50197 391.40775L208.50197 393.2515ZM206.53322 391.23587Q206.53322 390.0015 206.18947 389.439Q205.84572 388.8765 205.12697 388.8765Q204.43947 388.8765 204.09572 389.40775Q203.7676 389.939 203.75197 391.07962L203.75197 393.5015Q203.75197 394.72025 204.0801 395.314Q204.40822 395.90775 205.1426 395.90775Q205.87697 395.90775 206.18947 395.34525Q206.5176 394.76712 206.53322 393.59525L206.53322 391.23587ZM216.50197 393.2515Q216.50197 395.314 215.6426 396.40775Q214.79884 397.5015 213.1426 397.5015Q211.5176 397.5015 210.65822 396.42337Q209.79884 395.34525 209.78322 393.34525L209.78322 391.51712Q209.78322 389.42337 210.6426 388.34525Q211.50197 387.26712 213.12697 387.26712Q214.7676 387.26712 215.62697 388.34525Q216.48634 389.40775 216.50197 391.40775L216.50197 393.2515ZM214.53322 391.23587Q214.53322 390.0015 214.18947 389.439Q213.84572 388.8765 213.12697 388.8765Q212.43947 388.8765 212.09572 389.40775Q211.7676 389.939 211.75197 391.07962L211.75197 393.5015Q211.75197 394.72025 212.0801 395.314Q212.40822 395.90775 213.1426 395.90775Q213.87697 395.90775 214.18947 395.34525Q214.5176 394.76712 214.53322 393.59525L214.53322 391.23587ZM218.3926 399.86087L217.36134 399.314L217.61134 398.8765Q218.06447 398.03275 218.0801 397.20462L218.0801 395.67337L219.75197 395.67337L219.75197 397.04837Q219.73634 397.79837 219.36134 398.564Q218.98634 399.34525 218.3926 399.86087ZM227.50197 393.2515Q227.50197 395.314 226.6426 396.40775Q225.79884 397.5015 224.1426 397.5015Q222.5176 397.5015 221.65822 396.42337Q220.79884 395.34525 220.78322 393.34525L220.78322 391.51712Q220.78322 389.42337 221.6426 388.34525Q222.50197 387.26712 224.12697 387.26712Q225.7676 387.26712 226.62697 388.34525Q227.48634 389.40775 227.50197 391.40775L227.50197 393.2515ZM225.53322 391.23587Q225.53322 390.0015 225.18947 389.439Q224.84572 388.8765 224.12697 388.8765Q223.43947 388.8765 223.09572 389.40775Q222.7676 389.939 222.75197 391.07962L222.75197 393.5015Q222.75197 394.72025 223.0801 395.314Q223.40822 395.90775 224.1426 395.90775Q224.87697 395.90775 225.18947 395.34525Q225.5176 394.76712 225.53322 393.59525L225.53322 391.23587ZM235.50197 393.2515Q235.50197 395.314 234.6426 396.40775Q233.79884 397.5015 232.1426 397.5015Q230.5176 397.5015 229.65822 396.42337Q228.79884 395.34525 228.78322 393.34525L228.78322 391.51712Q228.78322 389.42337 229.6426 388.34525Q230.50197 387.26712 232.12697 387.26712Q233.7676 387.26712 234.62697 388.34525Q235.48634 389.40775 235.50197 391.40775L235.50197 393.2515ZM233.53322 391.23587Q233.53322 390.0015 233.18947 389.439Q232.84572 388.8765 232.12697 388.8765Q231.43947 388.8765 231.09572 389.40775Q230.7676 389.939 230.75197 391.07962L230.75197 393.5015Q230.75197 394.72025 231.0801 395.314Q231.40822 395.90775 232.1426 395.90775Q232.87697 395.90775 233.18947 395.34525Q233.5176 394.76712 233.53322 393.59525L233.53322 391.23587ZM239.97072 393.314Q239.97072 391.7515 240.3926 390.34525Q240.81447 388.92337 241.62697 387.82962Q242.43947 386.73587 243.3926 386.314L243.7676 387.3765Q242.7676 388.11087 242.2051 389.65775Q241.6426 391.20462 241.6426 393.26712L241.6426 393.48587Q241.6426 395.54837 242.18947 397.11087Q242.75197 398.65775 243.7676 399.42337L243.3926 400.47025Q242.4551 400.04837 241.6426 398.98587Q240.84572 397.939 240.42384 396.564Q240.00197 395.17337 239.97072 393.67337L239.97072 393.314ZM251.62697 397.36087L244.79884 397.36087L244.79884 396.0015L248.0176 392.57962Q248.68947 391.84525 249.00197 391.314Q249.3301 390.76712 249.3301 390.28275Q249.3301 389.6265 248.98634 389.2515Q248.65822 388.86087 248.03322 388.86087Q247.36134 388.86087 246.97072 389.32962Q246.59572 389.78275 246.59572 390.53275L244.61134 390.53275Q244.61134 389.6265 245.03322 388.8765Q245.47072 388.1265 246.2676 387.70462Q247.06447 387.26712 248.06447 387.26712Q249.59572 387.26712 250.43947 388.01712Q251.29884 388.7515 251.29884 390.09525Q251.29884 390.82962 250.90822 391.59525Q250.53322 392.36087 249.61134 393.3765L247.34572 395.76712L251.62697 395.76712L251.62697 397.36087ZM259.29883 390.04837Q259.29883 390.78275 258.92383 391.34525Q258.56445 391.89212 257.92383 392.23587Q258.6582 392.57962 259.08008 393.189Q259.50195 393.79837 259.50195 394.6265Q259.50195 395.95462 258.5957 396.73587Q257.70508 397.5015 256.14258 397.5015Q254.59572 397.5015 253.68947 396.73587Q252.78322 395.95462 252.78322 394.6265Q252.78322 393.79837 253.2051 393.189Q253.62697 392.57962 254.34572 392.23587Q253.7051 391.89212 253.34572 391.34525Q252.98634 390.78275 252.98634 390.04837Q252.98634 388.78275 253.8301 388.03275Q254.68947 387.26712 256.14258 387.26712Q257.5957 387.26712 258.43945 388.01712Q259.29883 388.76712 259.29883 390.04837ZM257.51758 394.48587Q257.51758 393.84525 257.14258 393.45462Q256.76758 393.064 256.12695 393.064Q255.50197 393.064 255.12697 393.45462Q254.75197 393.82962 254.75197 394.48587Q254.75197 395.1265 255.11134 395.51712Q255.48634 395.90775 256.14258 395.90775Q256.7832 395.90775 257.14258 395.53275Q257.51758 395.15775 257.51758 394.48587ZM257.31445 390.14212Q257.31445 389.564 257.00195 389.22025Q256.70508 388.86087 256.14258 388.86087Q255.5801 388.86087 255.2676 389.20462Q254.97072 389.54837 254.97072 390.14212Q254.97072 390.73587 255.2676 391.11087Q255.5801 391.47025 256.14258 391.47025Q256.70508 391.47025 257.00195 391.11087Q257.31445 390.73587 257.31445 390.14212ZM261.39258 399.86087L260.36133 399.314L260.61133 398.8765Q261.06445 398.03275 261.08008 397.20462L261.08008 395.67337L262.75195 395.67337L262.75195 397.04837Q262.73633 397.79837 262.36133 398.564Q261.98633 399.34525 261.39258 399.86087ZM270.56445 388.51712L266.7207 397.36087L264.64258 397.36087L268.48633 389.0015L263.54883 389.0015L263.54883 387.40775L270.56445 387.40775L270.56445 388.51712ZM271.7832 389.314Q271.7832 388.40775 272.37695 387.84525Q272.9707 387.26712 273.92383 387.26712Q274.9082 387.26712 275.50195 387.82962Q276.0957 388.39212 276.0957 389.36087L276.0957 389.84525Q276.0957 390.76712 275.50195 391.32962Q274.9082 391.89212 273.93945 391.89212Q272.9707 391.89212 272.37695 391.32962Q271.7832 390.76712 271.7832 389.814L271.7832 389.314ZM273.0957 389.84525Q273.0957 390.2515 273.33008 390.5015Q273.56445 390.7515 273.93945 390.7515Q274.33008 390.7515 274.54883 390.5015Q274.7832 390.2515 274.7832 389.82962L274.7832 389.314Q274.7832 388.90775 274.54883 388.65775Q274.33008 388.40775 273.92383 388.40775Q273.54883 388.40775 273.31445 388.65775Q273.0957 388.90775 273.0957 389.34525L273.0957 389.84525ZM276.5332 394.92337Q276.5332 394.0015 277.12695 393.439Q277.73633 392.8765 278.68945 392.8765Q279.6582 392.8765 280.25195 393.439Q280.86133 393.98587 280.86133 394.95462L280.86133 395.45462Q280.86133 396.3765 280.26758 396.939Q279.68945 397.5015 278.70508 397.5015Q277.7207 397.5015 277.12695 396.939Q276.5332 396.36087 276.5332 395.42337L276.5332 394.92337ZM277.8457 395.45462Q277.8457 395.82962 278.0957 396.09525Q278.3457 396.36087 278.70508 396.36087Q279.54883 396.36087 279.54883 395.439L279.54883 394.92337Q279.54883 394.51712 279.31445 394.26712Q279.08008 394.01712 278.68945 394.01712Q278.31445 394.01712 278.08008 394.26712Q277.8457 394.51712 277.8457 394.939L277.8457 395.45462ZM274.33008 396.61087L273.37695 396.09525L278.23633 388.314L279.18945 388.82962L274.33008 396.61087ZM285.2832 393.47025Q285.2832 395.01712 284.8457 396.45462Q284.4082 397.8765 283.56445 398.97025Q282.73633 400.064 281.7832 400.47025L281.4082 399.42337Q282.37695 398.689 282.92383 397.17337Q283.48633 395.64212 283.51758 393.65775L283.51758 393.29837Q283.51758 391.2515 282.95508 389.70462Q282.39258 388.14212 281.4082 387.36087L281.7832 386.314Q282.7207 386.72025 283.5332 387.78275Q284.36133 388.82962 284.81445 390.2515Q285.26758 391.65775 285.2832 393.15775L285.2832 393.47025Z" fill-rule="nonzero"/><path fill="#ffffff" d="M136.22447 199.31657L129.39635 199.31657L129.39635 197.9572L132.6151 194.53532Q133.28697 193.80095 133.59947 193.2697Q133.9276 192.72282 133.9276 192.23845Q133.9276 191.5822 133.58385 191.2072Q133.25572 190.81657 132.63072 190.81657Q131.95885 190.81657 131.56822 191.28532Q131.19322 191.73845 131.19322 192.48845L129.20885 192.48845Q129.20885 191.5822 129.63072 190.8322Q130.06822 190.0822 130.8651 189.66032Q131.66197 189.22282 132.66197 189.22282Q134.19322 189.22282 135.03697 189.97282Q135.89635 190.7072 135.89635 192.05095Q135.89635 192.78532 135.50572 193.55095Q135.13072 194.31657 134.20885 195.3322L131.94322 197.72282L136.22447 197.72282L136.22447 199.31657ZM142.19322 199.31657L140.22447 199.31657L140.22447 191.7072L137.8651 192.42595L137.8651 190.8322L141.9901 189.34782L142.19322 189.34782L142.19322 199.31657ZM152.09947 195.2072Q152.09947 197.2697 151.2401 198.36345Q150.39635 199.4572 148.7401 199.4572Q147.1151 199.4572 146.25572 198.37907Q145.39635 197.30095 145.38072 195.30095L145.38072 193.47282Q145.38072 191.37907 146.2401 190.30095Q147.09947 189.22282 148.72447 189.22282Q150.3651 189.22282 151.22447 190.30095Q152.08385 191.36345 152.09947 193.36345L152.09947 195.2072ZM150.13072 193.19157Q150.13072 191.9572 149.78697 191.3947Q149.44322 190.8322 148.72447 190.8322Q148.03697 190.8322 147.69322 191.36345Q147.3651 191.8947 147.34947 193.03532L147.34947 195.4572Q147.34947 196.67595 147.6776 197.2697Q148.00572 197.86345 148.7401 197.86345Q149.47447 197.86345 149.78697 197.30095Q150.1151 196.72282 150.13072 195.55095L150.13072 193.19157ZM153.58385 198.34782Q153.58385 197.87907 153.89635 197.5822Q154.22447 197.28532 154.69322 197.28532Q155.19322 197.28532 155.50572 197.5822Q155.81822 197.87907 155.81822 198.34782Q155.81822 198.81657 155.50572 199.11345Q155.19322 199.3947 154.69322 199.3947Q154.20885 199.3947 153.89635 199.11345Q153.58385 198.81657 153.58385 198.34782ZM164.09947 195.2072Q164.09947 197.2697 163.2401 198.36345Q162.39635 199.4572 160.7401 199.4572Q159.1151 199.4572 158.25572 198.37907Q157.39635 197.30095 157.38072 195.30095L157.38072 193.47282Q157.38072 191.37907 158.2401 190.30095Q159.09947 189.22282 160.72447 189.22282Q162.3651 189.22282 163.22447 190.30095Q164.08385 191.36345 164.09947 193.36345L164.09947 195.2072ZM162.13072 193.19157Q162.13072 191.9572 161.78697 191.3947Q161.44322 190.8322 160.72447 190.8322Q160.03697 190.8322 159.69322 191.36345Q159.3651 191.8947 159.34947 193.03532L159.34947 195.4572Q159.34947 196.67595 159.6776 197.2697Q160.00572 197.86345 160.7401 197.86345Q161.47447 197.86345 161.78697 197.30095Q162.1151 196.72282 162.13072 195.55095L162.13072 193.19157ZM172.09947 195.2072Q172.09947 197.2697 171.2401 198.36345Q170.39635 199.4572 168.7401 199.4572Q167.1151 199.4572 166.25572 198.37907Q165.39635 197.30095 165.38072 195.30095L165.38072 193.47282Q165.38072 191.37907 166.2401 190.30095Q167.09947 189.22282 168.72447 189.22282Q170.3651 189.22282 171.22447 190.30095Q172.08385 191.36345 172.09947 193.36345L172.09947 195.2072ZM170.13072 193.19157Q170.13072 191.9572 169.78697 191.3947Q169.44322 190.8322 168.72447 190.8322Q168.03697 190.8322 167.69322 191.36345Q167.3651 191.8947 167.34947 193.03532L167.34947 195.4572Q167.34947 196.67595 167.6776 197.2697Q168.00572 197.86345 168.7401 197.86345Q169.47447 197.86345 169.78697 197.30095Q170.1151 196.72282 170.13072 195.55095L170.13072 193.19157ZM180.09947 195.2072Q180.09947 197.2697 179.2401 198.36345Q178.39635 199.4572 176.7401 199.4572Q175.1151 199.4572 174.25572 198.37907Q173.39635 197.30095 173.38072 195.30095L173.38072 193.47282Q173.38072 191.37907 174.2401 190.30095Q175.09947 189.22282 176.72447 189.22282Q178.3651 189.22282 179.22447 190.30095Q180.08385 191.36345 180.09947 193.36345L180.09947 195.2072ZM178.13072 193.19157Q178.13072 191.9572 177.78697 191.3947Q177.44322 190.8322 176.72447 190.8322Q176.03697 190.8322 175.69322 191.36345Q175.3651 191.8947 175.34947 193.03532L175.34947 195.4572Q175.34947 196.67595 175.6776 197.2697Q176.00572 197.86345 176.7401 197.86345Q177.47447 197.86345 177.78697 197.30095Q178.1151 196.72282 178.13072 195.55095L178.13072 193.19157ZM181.9901 201.81657L180.95885 201.2697L181.20885 200.8322Q181.66197 199.98845 181.6776 199.16032L181.6776 197.62907L183.34947 197.62907L183.34947 199.00407Q183.33385 199.75407 182.95885 200.5197Q182.58385 201.30095 181.9901 201.81657ZM191.09947 195.2072Q191.09947 197.2697 190.2401 198.36345Q189.39635 199.4572 187.7401 199.4572Q186.1151 199.4572 185.25572 198.37907Q184.39635 197.30095 184.38072 195.30095L184.38072 193.47282Q184.38072 191.37907 185.2401 190.30095Q186.09947 189.22282 187.72447 189.22282Q189.3651 189.22282 190.22447 190.30095Q191.08385 191.36345 191.09947 193.36345L191.09947 195.2072ZM189.13072 193.19157Q189.13072 191.9572 188.78697 191.3947Q188.44322 190.8322 187.72447 190.8322Q187.03697 190.8322 186.69322 191.36345Q186.3651 191.8947 186.34947 193.03532L186.34947 195.4572Q186.34947 196.67595 186.6776 197.2697Q187.00572 197.86345 187.7401 197.86345Q188.47447 197.86345 188.78697 197.30095Q189.1151 196.72282 189.13072 195.55095L189.13072 193.19157ZM199.09947 195.2072Q199.09947 197.2697 198.2401 198.36345Q197.39635 199.4572 195.7401 199.4572Q194.1151 199.4572 193.25572 198.37907Q192.39635 197.30095 192.38072 195.30095L192.38072 193.47282Q192.38072 191.37907 193.2401 190.30095Q194.09947 189.22282 195.72447 189.22282Q197.3651 189.22282 198.22447 190.30095Q199.08385 191.36345 199.09947 193.36345L199.09947 195.2072ZM197.13072 193.19157Q197.13072 191.9572 196.78697 191.3947Q196.44322 190.8322 195.72447 190.8322Q195.03697 190.8322 194.69322 191.36345Q194.3651 191.8947 194.34947 193.03532L194.34947 195.4572Q194.34947 196.67595 194.6776 197.2697Q195.00572 197.86345 195.7401 197.86345Q196.47447 197.86345 196.78697 197.30095Q197.1151 196.72282 197.13072 195.55095L197.13072 193.19157ZM203.56822 195.2697Q203.56822 193.7072 203.9901 192.30095Q204.41197 190.87907 205.22447 189.78532Q206.03697 188.69157 206.9901 188.2697L207.3651 189.3322Q206.3651 190.06657 205.8026 191.61345Q205.2401 193.16032 205.2401 195.22282L205.2401 195.44157Q205.2401 197.50407 205.78697 199.06657Q206.34947 200.61345 207.3651 201.37907L206.9901 202.42595Q206.0526 202.00407 205.2401 200.94157Q204.44322 199.8947 204.02135 198.5197Q203.59947 197.12907 203.56822 195.62907L203.56822 195.2697ZM215.22447 199.31657L208.39635 199.31657L208.39635 197.9572L211.6151 194.53532Q212.28697 193.80095 212.59947 193.2697Q212.9276 192.72282 212.9276 192.23845Q212.9276 191.5822 212.58385 191.2072Q212.25572 190.81657 211.63072 190.81657Q210.95885 190.81657 210.56822 191.28532Q210.19322 191.73845 210.19322 192.48845L208.20885 192.48845Q208.20885 191.5822 208.63072 190.8322Q209.06822 190.0822 209.8651 189.66032Q210.66197 189.22282 211.66197 189.22282Q213.19322 189.22282 214.03697 189.97282Q214.89635 190.7072 214.89635 192.05095Q214.89635 192.78532 214.50572 193.55095Q214.13072 194.31657 213.20885 195.3322L210.94322 197.72282L215.22447 197.72282L215.22447 199.31657ZM222.89635 192.00407Q222.89635 192.73845 222.52135 193.30095Q222.16197 193.84782 221.52135 194.19157Q222.25572 194.53532 222.6776 195.1447Q223.09947 195.75407 223.09947 196.5822Q223.09947 197.91032 222.19322 198.69157Q221.3026 199.4572 219.7401 199.4572Q218.19322 199.4572 217.28697 198.69157Q216.38072 197.91032 216.38072 196.5822Q216.38072 195.75407 216.8026 195.1447Q217.22447 194.53532 217.94322 194.19157Q217.3026 193.84782 216.94322 193.30095Q216.58385 192.73845 216.58385 192.00407Q216.58385 190.73845 217.4276 189.98845Q218.28697 189.22282 219.7401 189.22282Q221.19322 189.22282 222.03697 189.97282Q222.89635 190.72282 222.89635 192.00407ZM221.1151 196.44157Q221.1151 195.80095 220.7401 195.41032Q220.3651 195.0197 219.72447 195.0197Q219.09947 195.0197 218.72447 195.41032Q218.34947 195.78532 218.34947 196.44157Q218.34947 197.0822 218.70885 197.47282Q219.08385 197.86345 219.7401 197.86345Q220.38072 197.86345 220.7401 197.48845Q221.1151 197.11345 221.1151 196.44157ZM220.91197 192.09782Q220.91197 191.5197 220.59947 191.17595Q220.3026 190.81657 219.7401 190.81657Q219.1776 190.81657 218.8651 191.16032Q218.56822 191.50407 218.56822 192.09782Q218.56822 192.69157 218.8651 193.06657Q219.1776 193.42595 219.7401 193.42595Q220.3026 193.42595 220.59947 193.06657Q220.91197 192.69157 220.91197 192.09782ZM224.9901 201.81657L223.95885 201.2697L224.20885 200.8322Q224.66197 199.98845 224.6776 199.16032L224.6776 197.62907L226.34947 197.62907L226.34947 199.00407Q226.33385 199.75407 225.95885 200.5197Q225.58385 201.30095 224.9901 201.81657ZM227.69322 194.42595L228.27135 189.36345L233.84947 189.36345L233.84947 191.00407L229.89635 191.00407L229.64635 193.1447Q230.34947 192.7697 231.14635 192.7697Q232.56822 192.7697 233.3651 193.66032Q234.1776 194.53532 234.1776 196.12907Q234.1776 197.0822 233.77135 197.84782Q233.3651 198.61345 232.59947 199.03532Q231.84947 199.4572 230.81822 199.4572Q229.91197 199.4572 229.13072 199.09782Q228.3651 198.72282 227.91197 198.06657Q227.47447 197.3947 227.44322 196.55095L229.39635 196.55095Q229.45885 197.17595 229.83385 197.5197Q230.20885 197.86345 230.8026 197.86345Q231.47447 197.86345 231.83385 197.37907Q232.19322 196.8947 232.19322 196.0197Q232.19322 195.16032 231.77135 194.72282Q231.3651 194.2697 230.59947 194.2697Q229.89635 194.2697 229.45885 194.62907L229.27135 194.81657L227.69322 194.42595ZM235.38072 191.2697Q235.38072 190.36345 235.97447 189.80095Q236.56822 189.22282 237.52135 189.22282Q238.50572 189.22282 239.09947 189.78532Q239.69322 190.34782 239.69322 191.31657L239.69322 191.80095Q239.69322 192.72282 239.09947 193.28532Q238.50572 193.84782 237.53697 193.84782Q236.56822 193.84782 235.97447 193.28532Q235.38072 192.72282 235.38072 191.7697L235.38072 191.2697ZM236.69322 191.80095Q236.69322 192.2072 236.9276 192.4572Q237.16197 192.7072 237.53697 192.7072Q237.9276 192.7072 238.14635 192.4572Q238.38072 192.2072 238.38072 191.78532L238.38072 191.2697Q238.38072 190.86345 238.14635 190.61345Q237.9276 190.36345 237.52135 190.36345Q237.14635 190.36345 236.91197 190.61345Q236.69322 190.86345 236.69322 191.30095L236.69322 191.80095ZM240.13072 196.87907Q240.13072 195.9572 240.72447 195.3947Q241.33385 194.8322 242.28697 194.8322Q243.25572 194.8322 243.84947 195.3947Q244.45885 195.94157 244.45885 196.91032L244.45885 197.41032Q244.45885 198.3322 243.8651 198.8947Q243.28697 199.4572 242.3026 199.4572Q241.31822 199.4572 240.72447 198.8947Q240.13072 198.31657 240.13072 197.37907L240.13072 196.87907ZM241.44322 197.41032Q241.44322 197.78532 241.69322 198.05095Q241.94322 198.31657 242.3026 198.31657Q243.14635 198.31657 243.14635 197.3947L243.14635 196.87907Q243.14635 196.47282 242.91197 196.22282Q242.6776 195.97282 242.28697 195.97282Q241.91197 195.97282 241.6776 196.22282Q241.44322 196.47282 241.44322 196.8947L241.44322 197.41032ZM237.9276 198.56657L236.97447 198.05095L241.83385 190.2697L242.78697 190.78532L237.9276 198.56657ZM248.88072 195.42595Q248.88072 196.97282 248.44322 198.41032Q248.00572 199.8322 247.16197 200.92595Q246.33385 202.0197 245.38072 202.42595L245.00572 201.37907Q245.97447 200.6447 246.52135 199.12907Q247.08385 197.59782 247.1151 195.61345L247.1151 195.25407Q247.1151 193.2072 246.5526 191.66032Q245.9901 190.09782 245.00572 189.31657L245.38072 188.2697Q246.31822 188.67595 247.13072 189.73845Q247.95885 190.78532 248.41197 192.2072Q248.8651 193.61345 248.88072 195.11345L248.88072 195.42595Z" fill-rule="nonzero"/><path fill="#1a1a1a" d="M32.6 140.58556Q32.6 141.81993 32.209373 142.71056Q31.81875 143.60118 31.115625 144.10118L32.63125 145.3043L31.865625 146.00743L30.06875 144.58556Q29.646875 144.69493 29.178125 144.69493Q28.178125 144.69493 27.396875 144.19493Q26.615625 143.69493 26.178125 142.78868Q25.75625 141.8668 25.740625 140.64806L25.740625 140.03868Q25.740625 138.8043 26.1625 137.8668Q26.6 136.9293 27.38125 136.4293Q28.1625 135.91368 29.1625 135.91368Q30.19375 135.91368 30.975 136.41368Q31.75625 136.91368 32.178123 137.85118Q32.6 138.78868 32.6 140.03868L32.6 140.58556ZM31.475 140.02306Q31.475 138.52306 30.88125 137.71056Q30.2875 136.88243 29.1625 136.88243Q28.1 136.88243 27.490625 137.69493Q26.88125 138.50743 26.865625 139.94493L26.865625 140.58556Q26.865625 142.03868 27.475 142.88243Q28.084375 143.72618 29.178125 143.72618Q30.271875 143.72618 30.865625 142.94493Q31.459375 142.14806 31.475 140.66368L31.475 140.02306ZM38.38125 141.71056L39.56875 141.71056L39.56875 142.58556L38.38125 142.58556L38.38125 144.56993L37.303123 144.56993L37.303123 142.58556L33.4125 142.58556L33.4125 141.94493L37.225 136.03868L38.38125 136.03868L38.38125 141.71056ZM34.646873 141.71056L37.303123 141.71056L37.303123 137.52306L37.1625 137.75743L34.646873 141.71056Z" fill-rule="nonzero"/><path fill="#9e9e9e" d="M31.396875 162.56993L25.803125 162.56993L25.803125 161.78868L28.75625 158.50743Q29.4125 157.75743 29.6625 157.3043Q29.9125 156.83556 29.9125 156.33556Q29.9125 155.66368 29.50625 155.2418Q29.115625 154.8043 28.428125 154.8043Q27.63125 154.8043 27.178125 155.27306Q26.725 155.72618 26.725 156.5543L25.646875 156.5543Q25.646875 155.3668 26.396875 154.64806Q27.1625 153.91368 28.428125 153.91368Q29.63125 153.91368 30.31875 154.53868Q31.00625 155.16368 31.00625 156.21056Q31.00625 157.46056 29.396875 159.21056L27.115625 161.6793L31.396875 161.6793L31.396875 162.56993ZM37.990623 156.25743Q37.990623 156.89806 37.646873 157.39806Q37.303123 157.89806 36.740623 158.1793Q37.396873 158.46056 37.7875 159.02306Q38.178123 159.56993 38.178123 160.27306Q38.178123 161.3668 37.428123 162.03868Q36.69375 162.69493 35.475 162.69493Q34.240623 162.69493 33.490623 162.03868Q32.75625 161.3668 32.75625 160.27306Q32.75625 159.56993 33.13125 159.02306Q33.50625 158.46056 34.178123 158.1793Q33.615623 157.89806 33.2875 157.39806Q32.959373 156.89806 32.959373 156.25743Q32.959373 155.1793 33.646873 154.5543Q34.334373 153.91368 35.475 153.91368Q36.6 153.91368 37.2875 154.5543Q37.990623 155.1793 37.990623 156.25743ZM37.1 160.2418Q37.1 159.52306 36.646873 159.08556Q36.19375 158.63243 35.459373 158.63243Q34.725 158.63243 34.271873 159.08556Q33.834373 159.52306 33.834373 160.25743Q33.834373 160.97618 34.271873 161.39806Q34.709373 161.8043 35.475 161.8043Q36.225 161.8043 36.6625 161.38243Q37.1 160.96056 37.1 160.2418ZM35.475 154.8043Q34.834373 154.8043 34.428123 155.21056Q34.0375 155.60118 34.0375 156.28868Q34.0375 156.9293 34.428123 157.33556Q34.81875 157.7418 35.459373 157.7418Q36.115623 157.7418 36.50625 157.33556Q36.896873 156.9293 36.896873 156.28868Q36.896873 155.63243 36.490623 155.22618Q36.084373 154.8043 35.475 154.8043ZM39.88125 164.27306L39.271873 163.85118Q39.81875 163.08556 39.85 162.25743L39.85 161.28868L40.9125 161.28868L40.9125 162.13243Q40.9125 162.72618 40.615623 163.31993Q40.31875 163.91368 39.88125 164.27306ZM42.303123 158.28868L42.740623 154.03868L47.115623 154.03868L47.115623 155.03868L43.6625 155.03868L43.396873 157.3668Q44.0375 156.9918 44.834373 156.9918Q45.990623 156.9918 46.678123 157.77306Q47.365623 158.53868 47.365623 159.85118Q47.365623 161.16368 46.646873 161.9293Q45.94375 162.69493 44.6625 162.69493Q43.5375 162.69493 42.81875 162.06993Q42.1 161.4293 42.00625 160.31993L43.021873 160.31993Q43.13125 161.0543 43.553123 161.4293Q43.975 161.8043 44.6625 161.8043Q45.4125 161.8043 45.85 161.28868Q46.2875 160.77306 46.2875 159.8668Q46.2875 159.00743 45.81875 158.4918Q45.35 157.97618 44.56875 157.97618Q43.865623 157.97618 43.459373 158.27306L43.178123 158.50743L42.303123 158.28868ZM48.709373 155.6793Q48.709373 154.91368 49.19375 154.41368Q49.69375 153.91368 50.459373 153.91368Q51.240623 153.91368 51.725 154.41368Q52.209373 154.91368 52.209373 155.71056L52.209373 156.13243Q52.209373 156.89806 51.709373 157.39806Q51.225 157.88243 50.475 157.88243Q49.709373 157.88243 49.209373 157.39806Q48.709373 156.89806 48.709373 156.08556L48.709373 155.6793ZM49.521873 156.13243Q49.521873 156.58556 49.771873 156.88243Q50.0375 157.1793 50.475 157.1793Q50.896873 157.1793 51.146873 156.89806Q51.396873 156.60118 51.396873 156.10118L51.396873 155.6793Q51.396873 155.22618 51.146873 154.9293Q50.896873 154.6168 50.459373 154.6168Q50.021873 154.6168 49.771873 154.9293Q49.521873 155.22618 49.521873 155.69493L49.521873 156.13243ZM52.865623 160.47618Q52.865623 159.71056 53.35 159.22618Q53.85 158.72618 54.615623 158.72618Q55.38125 158.72618 55.865623 159.22618Q56.365623 159.71056 56.365623 160.52306L56.365623 160.9293Q56.365623 161.69493 55.88125 162.19493Q55.396873 162.69493 54.63125 162.69493Q53.865623 162.69493 53.365623 162.21056Q52.865623 161.71056 52.865623 160.89806L52.865623 160.47618ZM53.678123 160.9293Q53.678123 161.39806 53.928123 161.69493Q54.19375 161.9918 54.63125 161.9918Q55.053123 161.9918 55.303123 161.71056Q55.553123 161.41368 55.553123 160.91368L55.553123 160.47618Q55.553123 160.00743 55.2875 159.72618Q55.0375 159.4293 54.615623 159.4293Q54.19375 159.4293 53.928123 159.72618Q53.678123 160.00743 53.678123 160.50743L53.678123 160.9293ZM50.725 161.9293L50.1 161.53868L54.271873 154.8668L54.88125 155.25743L50.725 161.9293Z" fill-rule="nonzero"/><path stroke="#757575" stroke-width="1.0" stroke-linecap="butt" d="M25.1 149.06993L72.96667 149.06993L132.28741 149.06993" fill-rule="nonzero"/><path fill="#9e9e9e" d="M134.28741 149.06993C134.28741 147.96535 133.39198 147.06993 132.28741 147.06993C131.18285 147.06993 130.28741 147.96535 130.28741 149.06993C130.28741 150.1745 131.18285 151.06993 132.28741 151.06993C133.39198 151.06993 134.28741 150.1745 134.28741 149.06993" fill-rule="nonzero"/><path fill="#1a1a1a" d="M32.6 438.59586Q32.6 439.83023 32.209373 440.72086Q31.81875 441.61148 31.115625 442.11148L32.63125 443.3146L31.865625 444.01773L30.06875 442.59586Q29.646875 442.70523 29.178125 442.70523Q28.178125 442.70523 27.396875 442.20523Q26.615625 441.70523 26.178125 440.79898Q25.75625 439.8771 25.740625 438.65836L25.740625 438.04898Q25.740625 436.8146 26.1625 435.8771Q26.6 434.9396 27.38125 434.4396Q28.1625 433.92398 29.1625 433.92398Q30.19375 433.92398 30.975 434.42398Q31.75625 434.92398 32.178123 435.86148Q32.6 436.79898 32.6 438.04898L32.6 438.59586ZM31.475 438.03336Q31.475 436.53336 30.88125 435.72086Q30.2875 434.89273 29.1625 434.89273Q28.1 434.89273 27.490625 435.70523Q26.88125 436.51773 26.865625 437.95523L26.865625 438.59586Q26.865625 440.04898 27.475 440.89273Q28.084375 441.73648 29.178125 441.73648Q30.271875 441.73648 30.865625 440.95523Q31.459375 440.15836 31.475 438.67398L31.475 438.03336ZM35.38125 437.78336L36.19375 437.78336Q36.975 437.76773 37.4125 437.3771Q37.85 436.98648 37.85 436.3146Q37.85 434.8146 36.35 434.8146Q35.646873 434.8146 35.225 435.22086Q34.81875 435.6271 34.81875 436.28336L33.725 436.28336Q33.725 435.26773 34.459373 434.59586Q35.209373 433.92398 36.35 433.92398Q37.553123 433.92398 38.240623 434.5646Q38.928123 435.20523 38.928123 436.34586Q38.928123 436.90836 38.56875 437.42398Q38.209373 437.9396 37.584373 438.20523Q38.2875 438.42398 38.6625 438.9396Q39.053123 439.45523 39.053123 440.20523Q39.053123 441.34586 38.303123 442.03336Q37.553123 442.70523 36.35 442.70523Q35.1625 442.70523 34.396873 442.04898Q33.646873 441.39273 33.646873 440.33023L34.740623 440.33023Q34.740623 441.0021 35.178123 441.40836Q35.615623 441.8146 36.365623 441.8146Q37.146873 441.8146 37.553123 441.40836Q37.975 440.98648 37.975 440.22086Q37.975 439.48648 37.521873 439.09586Q37.06875 438.6896 36.19375 438.67398L35.38125 438.67398L35.38125 437.78336Z" fill-rule="nonzero"/><path fill="#9e9e9e" d="M31.396875 460.58023L25.803125 460.58023L25.803125 459.79898L28.75625 456.51773Q29.4125 455.76773 29.6625 455.3146Q29.9125 454.84586 29.9125 454.34586Q29.9125 453.67398 29.50625 453.2521Q29.115625 452.8146 28.428125 452.8146Q27.63125 452.8146 27.178125 453.28336Q26.725 453.73648 26.725 454.5646L25.646875 454.5646Q25.646875 453.3771 26.396875 452.65836Q27.1625 451.92398 28.428125 451.92398Q29.63125 451.92398 30.31875 452.54898Q31.00625 453.17398 31.00625 454.22086Q31.00625 455.47086 29.396875 457.22086L27.115625 459.6896L31.396875 459.6896L31.396875 460.58023ZM37.990623 454.26773Q37.990623 454.90836 37.646873 455.40836Q37.303123 455.90836 36.740623 456.1896Q37.396873 456.47086 37.7875 457.03336Q38.178123 457.58023 38.178123 458.28336Q38.178123 459.3771 37.428123 460.04898Q36.69375 460.70523 35.475 460.70523Q34.240623 460.70523 33.490623 460.04898Q32.75625 459.3771 32.75625 458.28336Q32.75625 457.58023 33.13125 457.03336Q33.50625 456.47086 34.178123 456.1896Q33.615623 455.90836 33.2875 455.40836Q32.959373 454.90836 32.959373 454.26773Q32.959373 453.1896 33.646873 452.5646Q34.334373 451.92398 35.475 451.92398Q36.6 451.92398 37.2875 452.5646Q37.990623 453.1896 37.990623 454.26773ZM37.1 458.2521Q37.1 457.53336 36.646873 457.09586Q36.19375 456.64273 35.459373 456.64273Q34.725 456.64273 34.271873 457.09586Q33.834373 457.53336 33.834373 458.26773Q33.834373 458.98648 34.271873 459.40836Q34.709373 459.8146 35.475 459.8146Q36.225 459.8146 36.6625 459.39273Q37.1 458.97086 37.1 458.2521ZM35.475 452.8146Q34.834373 452.8146 34.428123 453.22086Q34.0375 453.61148 34.0375 454.29898Q34.0375 454.9396 34.428123 455.34586Q34.81875 455.7521 35.459373 455.7521Q36.115623 455.7521 36.50625 455.34586Q36.896873 454.9396 36.896873 454.29898Q36.896873 453.64273 36.490623 453.23648Q36.084373 452.8146 35.475 452.8146ZM39.88125 462.28336L39.271873 461.86148Q39.81875 461.09586 39.85 460.26773L39.85 459.29898L40.9125 459.29898L40.9125 460.14273Q40.9125 460.73648 40.615623 461.33023Q40.31875 461.92398 39.88125 462.28336ZM47.31875 452.65836L43.7875 460.58023L42.646873 460.58023L46.1625 452.9396L41.553123 452.9396L41.553123 452.04898L47.31875 452.04898L47.31875 452.65836ZM48.709373 453.6896Q48.709373 452.92398 49.19375 452.42398Q49.69375 451.92398 50.459373 451.92398Q51.240623 451.92398 51.725 452.42398Q52.209373 452.92398 52.209373 453.72086L52.209373 454.14273Q52.209373 454.90836 51.709373 455.40836Q51.225 455.89273 50.475 455.89273Q49.709373 455.89273 49.209373 455.40836Q48.709373 454.90836 48.709373 454.09586L48.709373 453.6896ZM49.521873 454.14273Q49.521873 454.59586 49.771873 454.89273Q50.0375 455.1896 50.475 455.1896Q50.896873 455.1896 51.146873 454.90836Q51.396873 454.61148 51.396873 454.11148L51.396873 453.6896Q51.396873 453.23648 51.146873 452.9396Q50.896873 452.6271 50.459373 452.6271Q50.021873 452.6271 49.771873 452.9396Q49.521873 453.23648 49.521873 453.70523L49.521873 454.14273ZM52.865623 458.48648Q52.865623 457.72086 53.35 457.23648Q53.85 456.73648 54.615623 456.73648Q55.38125 456.73648 55.865623 457.23648Q56.365623 457.72086 56.365623 458.53336L56.365623 458.9396Q56.365623 459.70523 55.88125 460.20523Q55.396873 460.70523 54.63125 460.70523Q53.865623 460.70523 53.365623 460.22086Q52.865623 459.72086 52.865623 458.90836L52.865623 458.48648ZM53.678123 458.9396Q53.678123 459.40836 53.928123 459.70523Q54.19375 460.0021 54.63125 460.0021Q55.053123 460.0021 55.303123 459.72086Q55.553123 459.42398 55.553123 458.92398L55.553123 458.48648Q55.553123 458.01773 55.2875 457.73648Q55.0375 457.4396 54.615623 457.4396Q54.19375 457.4396 53.928123 457.73648Q53.678123 458.01773 53.678123 458.51773L53.678123 458.9396ZM50.725 459.9396L50.1 459.54898L54.271873 452.8771L54.88125 453.26773L50.725 459.9396Z" fill-rule="nonzero"/><path stroke="#757575" stroke-width="1.0" stroke-linecap="butt" d="M25.1 447.08023L72.96667 447.08023L199.35362 447.08023" fill-rule="nonzero"/><path fill="#9e9e9e" d="M201.35362 447.08023C201.35362 445.97568 200.4582 445.08023 199.35362 445.08023C198.24905 445.08023 197.35362 445.97568 197.35362 447.08023C197.35362 448.1848 198.24905 449.08023 199.35362 449.08023C200.4582 449.08023 201.35362 448.1848 201.35362 447.08023" fill-rule="nonzero"/><path fill="#1a1a1a" d="M536.4 98.99059Q536.4 100.22497 536.0094 101.11559Q535.6188 102.00622 534.91565 102.50622L536.4313 103.70934L535.66565 104.41247L533.8688 102.99059Q533.4469 103.09997 532.97815 103.09997Q531.97815 103.09997 531.1969 102.59997Q530.41565 102.09997 529.97815 101.19372Q529.5563 100.27184 529.54065 99.05309L529.54065 98.44372Q529.54065 97.20934 529.9625 96.27184Q530.4 95.33434 531.1813 94.83434Q531.9625 94.31872 532.9625 94.31872Q533.9938 94.31872 534.775 94.81872Q535.5563 95.31872 535.97815 96.25622Q536.4 97.19372 536.4 98.44372L536.4 98.99059ZM535.275 98.42809Q535.275 96.92809 534.6813 96.11559Q534.0875 95.28747 532.9625 95.28747Q531.9 95.28747 531.29065 96.09997Q530.6813 96.91247 530.66565 98.34997L530.66565 98.99059Q530.66565 100.44372 531.275 101.28747Q531.8844 102.13122 532.97815 102.13122Q534.0719 102.13122 534.66565 101.34997Q535.2594 100.55309 535.275 99.06872L535.275 98.42809ZM541.16565 102.97497L540.0875 102.97497L540.0875 95.75622L537.9 96.55309L537.9 95.56872L541.0094 94.39684L541.16565 94.39684L541.16565 102.97497Z" fill-rule="nonzero"/><path fill="#9e9e9e" d="M516.16565 120.97497L515.0875 120.97497L515.0875 113.75622L512.9 114.55309L512.9 113.56872L516.0094 112.39684L516.16565 112.39684L516.16565 120.97497ZM524.79065 114.66247Q524.79065 115.30309 524.4469 115.80309Q524.10315 116.30309 523.54065 116.58434Q524.1969 116.86559 524.5875 117.42809Q524.97815 117.97497 524.97815 118.67809Q524.97815 119.77184 524.22815 120.44372Q523.4938 121.09997 522.275 121.09997Q521.04065 121.09997 520.29065 120.44372Q519.5563 119.77184 519.5563 118.67809Q519.5563 117.97497 519.9313 117.42809Q520.3063 116.86559 520.97815 116.58434Q520.41565 116.30309 520.0875 115.80309Q519.7594 115.30309 519.7594 114.66247Q519.7594 113.58434 520.4469 112.95934Q521.1344 112.31872 522.275 112.31872Q523.4 112.31872 524.0875 112.95934Q524.79065 113.58434 524.79065 114.66247ZM523.9 118.64684Q523.9 117.92809 523.4469 117.49059Q522.9938 117.03747 522.2594 117.03747Q521.525 117.03747 521.0719 117.49059Q520.6344 117.92809 520.6344 118.66247Q520.6344 119.38122 521.0719 119.80309Q521.5094 120.20934 522.275 120.20934Q523.025 120.20934 523.4625 119.78747Q523.9 119.36559 523.9 118.64684ZM522.275 113.20934Q521.6344 113.20934 521.22815 113.61559Q520.8375 114.00622 520.8375 114.69372Q520.8375 115.33434 521.22815 115.74059Q521.6188 116.14684 522.2594 116.14684Q522.91565 116.14684 523.3063 115.74059Q523.6969 115.33434 523.6969 114.69372Q523.6969 114.03747 523.29065 113.63122Q522.8844 113.20934 522.275 113.20934ZM526.6813 122.67809L526.0719 122.25622Q526.6188 121.49059 526.65 120.66247L526.65 119.69372L527.7125 119.69372L527.7125 120.53747Q527.7125 121.13122 527.41565 121.72497Q527.1188 122.31872 526.6813 122.67809ZM530.1813 116.17809L530.9938 116.17809Q531.775 116.16247 532.2125 115.77184Q532.65 115.38122 532.65 114.70934Q532.65 113.20934 531.15 113.20934Q530.4469 113.20934 530.025 113.61559Q529.6188 114.02184 529.6188 114.67809L528.525 114.67809Q528.525 113.66247 529.2594 112.99059Q530.0094 112.31872 531.15 112.31872Q532.35315 112.31872 533.04065 112.95934Q533.72815 113.59997 533.72815 114.74059Q533.72815 115.30309 533.3688 115.81872Q533.0094 116.33434 532.3844 116.59997Q533.0875 116.81872 533.4625 117.33434Q533.85315 117.84997 533.85315 118.59997Q533.85315 119.74059 533.10315 120.42809Q532.35315 121.09997 531.15 121.09997Q529.9625 121.09997 529.1969 120.44372Q528.4469 119.78747 528.4469 118.72497L529.54065 118.72497Q529.54065 119.39684 529.97815 119.80309Q530.41565 120.20934 531.16565 120.20934Q531.9469 120.20934 532.35315 119.80309Q532.775 119.38122 532.775 118.61559Q532.775 117.88122 532.3219 117.49059Q531.8688 117.08434 530.9938 117.06872L530.1813 117.06872L530.1813 116.17809ZM535.5094 114.08434Q535.5094 113.31872 535.9938 112.81872Q536.4938 112.31872 537.2594 112.31872Q538.04065 112.31872 538.525 112.81872Q539.0094 113.31872 539.0094 114.11559L539.0094 114.53747Q539.0094 115.30309 538.5094 115.80309Q538.025 116.28747 537.275 116.28747Q536.5094 116.28747 536.0094 115.80309Q535.5094 115.30309 535.5094 114.49059L535.5094 114.08434ZM536.3219 114.53747Q536.3219 114.99059 536.5719 115.28747Q536.8375 115.58434 537.275 115.58434Q537.6969 115.58434 537.9469 115.30309Q538.1969 115.00622 538.1969 114.50622L538.1969 114.08434Q538.1969 113.63122 537.9469 113.33434Q537.6969 113.02184 537.2594 113.02184Q536.8219 113.02184 536.5719 113.33434Q536.3219 113.63122 536.3219 114.09997L536.3219 114.53747ZM539.66565 118.88122Q539.66565 118.11559 540.15 117.63122Q540.65 117.13122 541.41565 117.13122Q542.1813 117.13122 542.66565 117.63122Q543.16565 118.11559 543.16565 118.92809L543.16565 119.33434Q543.16565 120.09997 542.6813 120.59997Q542.1969 121.09997 541.4313 121.09997Q540.66565 121.09997 540.16565 120.61559Q539.66565 120.11559 539.66565 119.30309L539.66565 118.88122ZM540.47815 119.33434Q540.47815 119.80309 540.72815 120.09997Q540.9938 120.39684 541.4313 120.39684Q541.85315 120.39684 542.10315 120.11559Q542.35315 119.81872 542.35315 119.31872L542.35315 118.88122Q542.35315 118.41247 542.0875 118.13122Q541.8375 117.83434 541.41565 117.83434Q540.9938 117.83434 540.72815 118.13122Q540.47815 118.41247 540.47815 118.91247L540.47815 119.33434ZM537.525 120.33434L536.9 119.94372L541.0719 113.27184L541.6813 113.66247L537.525 120.33434Z" fill-rule="nonzero"/><path stroke="#757575" stroke-width="1.0" stroke-linecap="butt" d="M543.9 107.47497L496.03333 107.47497L390.6352 107.47497" fill-rule="nonzero"/><path fill="#9e9e9e" d="M392.6352 107.47497C392.6352 106.3704 391.73975 105.47497 390.6352 105.47497C389.5306 105.47497 388.6352 106.3704 388.6352 107.47497C388.6352 108.579544 389.5306 109.47497 390.6352 109.47497C391.73975 109.47497 392.6352 108.579544 392.6352 107.47497" fill-rule="nonzero"/><path fill="#1a1a1a" d="M536.4 329.664Q536.4 330.89838 536.0094 331.789Q535.6188 332.67963 534.91565 333.17963L536.4313 334.38275L535.66565 335.08588L533.8688 333.664Q533.4469 333.77338 532.97815 333.77338Q531.97815 333.77338 531.1969 333.27338Q530.41565 332.77338 529.97815 331.86713Q529.5563 330.94525 529.54065 329.7265L529.54065 329.11713Q529.54065 327.88275 529.9625 326.94525Q530.4 326.00775 531.1813 325.50775Q531.9625 324.99213 532.9625 324.99213Q533.9938 324.99213 534.775 325.49213Q535.5563 325.99213 535.97815 326.92963Q536.4 327.86713 536.4 329.11713L536.4 329.664ZM535.275 329.1015Q535.275 327.6015 534.6813 326.789Q534.0875 325.96088 532.9625 325.96088Q531.9 325.96088 531.29065 326.77338Q530.6813 327.58588 530.66565 329.02338L530.66565 329.664Q530.66565 331.11713 531.275 331.96088Q531.8844 332.80463 532.97815 332.80463Q534.0719 332.80463 534.66565 332.02338Q535.2594 331.2265 535.275 329.74213L535.275 329.1015ZM543.1969 333.64838L537.60315 333.64838L537.60315 332.86713L540.5563 329.58588Q541.2125 328.83588 541.4625 328.38275Q541.7125 327.914 541.7125 327.414Q541.7125 326.74213 541.3063 326.32025Q540.91565 325.88275 540.22815 325.88275Q539.4313 325.88275 538.97815 326.3515Q538.525 326.80463 538.525 327.63275L537.4469 327.63275Q537.4469 326.44525 538.1969 325.7265Q538.9625 324.99213 540.22815 324.99213Q541.4313 324.99213 542.1188 325.61713Q542.8063 326.24213 542.8063 327.289Q542.8063 328.539 541.1969 330.289L538.91565 332.75775L543.1969 332.75775L543.1969 333.64838Z" fill-rule="nonzero"/><path fill="#9e9e9e" d="M518.1969 351.64838L512.60315 351.64838L512.60315 350.86713L515.5563 347.58588Q516.2125 346.83588 516.4625 346.38275Q516.7125 345.914 516.7125 345.414Q516.7125 344.74213 516.3063 344.32025Q515.91565 343.88275 515.22815 343.88275Q514.4313 343.88275 513.97815 344.3515Q513.525 344.80463 513.525 345.63275L512.4469 345.63275Q512.4469 344.44525 513.1969 343.7265Q513.9625 342.99213 515.22815 342.99213Q516.4313 342.99213 517.1188 343.61713Q517.8063 344.24213 517.8063 345.289Q517.8063 346.539 516.1969 348.289L513.91565 350.75775L518.1969 350.75775L518.1969 351.64838ZM524.1813 348.789L525.3688 348.789L525.3688 349.664L524.1813 349.664L524.1813 351.64838L523.10315 351.64838L523.10315 349.664L519.2125 349.664L519.2125 349.02338L523.025 343.11713L524.1813 343.11713L524.1813 348.789ZM520.4469 348.789L523.10315 348.789L523.10315 344.6015L522.9625 344.83588L520.4469 348.789ZM526.6813 353.3515L526.0719 352.92963Q526.6188 352.164 526.65 351.33588L526.65 350.36713L527.7125 350.36713L527.7125 351.21088Q527.7125 351.80463 527.41565 352.39838Q527.1188 352.99213 526.6813 353.3515ZM529.10315 347.36713L529.54065 343.11713L533.91565 343.11713L533.91565 344.11713L530.4625 344.11713L530.1969 346.44525Q530.8375 346.07025 531.6344 346.07025Q532.79065 346.07025 533.47815 346.8515Q534.16565 347.61713 534.16565 348.92963Q534.16565 350.24213 533.4469 351.00775Q532.7438 351.77338 531.4625 351.77338Q530.3375 351.77338 529.6188 351.14838Q528.9 350.50775 528.8063 349.39838L529.8219 349.39838Q529.9313 350.13275 530.35315 350.50775Q530.775 350.88275 531.4625 350.88275Q532.2125 350.88275 532.65 350.36713Q533.0875 349.8515 533.0875 348.94525Q533.0875 348.08588 532.6188 347.57025Q532.15 347.05463 531.3688 347.05463Q530.66565 347.05463 530.2594 347.3515L529.97815 347.58588L529.10315 347.36713ZM535.5094 344.75775Q535.5094 343.99213 535.9938 343.49213Q536.4938 342.99213 537.2594 342.99213Q538.04065 342.99213 538.525 343.49213Q539.0094 343.99213 539.0094 344.789L539.0094 345.21088Q539.0094 345.9765 538.5094 346.4765Q538.025 346.96088 537.275 346.96088Q536.5094 346.96088 536.0094 346.4765Q535.5094 345.9765 535.5094 345.164L535.5094 344.75775ZM536.3219 345.21088Q536.3219 345.664 536.5719 345.96088Q536.8375 346.25775 537.275 346.25775Q537.6969 346.25775 537.9469 345.9765Q538.1969 345.67963 538.1969 345.17963L538.1969 344.75775Q538.1969 344.30463 537.9469 344.00775Q537.6969 343.69525 537.2594 343.69525Q536.8219 343.69525 536.5719 344.00775Q536.3219 344.30463 536.3219 344.77338L536.3219 345.21088ZM539.66565 349.55463Q539.66565 348.789 540.15 348.30463Q540.65 347.80463 541.41565 347.80463Q542.1813 347.80463 542.66565 348.30463Q543.16565 348.789 543.16565 349.6015L543.16565 350.00775Q543.16565 350.77338 542.6813 351.27338Q542.1969 351.77338 541.4313 351.77338Q540.66565 351.77338 540.16565 351.289Q539.66565 350.789 539.66565 349.9765L539.66565 349.55463ZM540.47815 350.00775Q540.47815 350.4765 540.72815 350.77338Q540.9938 351.07025 541.4313 351.07025Q541.85315 351.07025 542.10315 350.789Q542.35315 350.49213 542.35315 349.99213L542.35315 349.55463Q542.35315 349.08588 542.0875 348.80463Q541.8375 348.50775 541.41565 348.50775Q540.9938 348.50775 540.72815 348.80463Q540.47815 349.08588 540.47815 349.58588L540.47815 350.00775ZM537.525 351.00775L536.9 350.61713L541.0719 343.94525L541.6813 344.33588L537.525 351.00775Z" fill-rule="nonzero"/><path stroke="#757575" stroke-width="1.0" stroke-linecap="butt" d="M543.9 338.14838L496.03333 338.14838L467.98126 338.14838" fill-rule="nonzero"/><path fill="#9e9e9e" d="M469.98126 338.14838C469.98126 337.04382 469.08582 336.14838 467.98126 336.14838C466.87668 336.14838 465.98126 337.04382 465.98126 338.14838C465.98126 339.25296 466.87668 340.14838 467.98126 340.14838C469.08582 340.14838 469.98126 339.25296 469.98126 338.14838" fill-rule="nonzero"/><path fill="#757575" d="M30.94375 37.75625Q28.521875 37.06875 27.428125 36.06875Q26.334375 35.053123 26.334375 33.56875Q26.334375 31.881248 27.678125 30.787498Q29.021875 29.678123 31.1625 29.678123Q32.63125 29.678123 33.771873 30.256248Q34.928123 30.818748 35.553123 31.818748Q36.178123 32.803123 36.178123 33.990623L34.303123 33.990623Q34.303123 32.709373 33.475 31.974998Q32.6625 31.224998 31.1625 31.224998Q29.771875 31.224998 28.990625 31.834373Q28.225 32.44375 28.225 33.5375Q28.225 34.396873 28.959375 35.00625Q29.69375 35.6 31.459375 36.1Q33.240623 36.6 34.240623 37.209373Q35.240623 37.803123 35.725 38.6Q36.209373 39.396873 36.209373 40.490623Q36.209373 42.209373 34.865623 43.25625Q33.521873 44.303123 31.25625 44.303123Q29.803125 44.303123 28.521875 43.740623Q27.25625 43.178123 26.56875 42.209373Q25.88125 41.225 25.88125 39.975L27.771875 39.975Q27.771875 41.271873 28.725 42.021873Q29.678125 42.75625 31.25625 42.75625Q32.740623 42.75625 33.5375 42.1625Q34.334373 41.553123 34.334373 40.50625Q34.334373 39.459373 33.6 38.896873Q32.865623 38.31875 30.94375 37.75625ZM44.990623 43.053123Q43.94375 44.303123 41.896873 44.303123Q40.209373 44.303123 39.31875 43.31875Q38.44375 42.334373 38.428123 40.4125L38.428123 33.5375L40.240623 33.5375L40.240623 40.365623Q40.240623 42.75625 42.19375 42.75625Q44.25625 42.75625 44.94375 41.225L44.94375 33.5375L46.75625 33.5375L46.75625 44.1L45.0375 44.1L44.990623 43.053123ZM58.396873 38.928123Q58.396873 41.35 57.2875 42.834373Q56.19375 44.303123 54.303123 44.303123Q52.38125 44.303123 51.271873 43.06875L51.271873 48.1625L49.475 48.1625L49.475 33.5375L51.115623 33.5375L51.209373 34.709373Q52.303123 33.334373 54.271873 33.334373Q56.178123 33.334373 57.2875 34.771873Q58.396873 36.209373 58.396873 38.771873L58.396873 38.928123ZM56.584373 38.725Q56.584373 36.94375 55.81875 35.9125Q55.06875 34.865623 53.740623 34.865623Q52.1 34.865623 51.271873 36.31875L51.271873 41.38125Q52.084373 42.81875 53.75625 42.81875Q55.053123 42.81875 55.81875 41.7875Q56.584373 40.75625 56.584373 38.725ZM69.39687 38.928123Q69.39687 41.35 68.2875 42.834373Q67.19375 44.303123 65.30312 44.303123Q63.38125 44.303123 62.271873 43.06875L62.271873 48.1625L60.475 48.1625L60.475 33.5375L62.115623 33.5375L62.209373 34.709373Q63.303123 33.334373 65.27187 33.334373Q67.17812 33.334373 68.2875 34.771873Q69.39687 36.209373 69.39687 38.771873L69.39687 38.928123ZM67.58437 38.725Q67.58437 36.94375 66.81875 35.9125Q66.06875 34.865623 64.74062 34.865623Q63.1 34.865623 62.271873 36.31875L62.271873 41.38125Q63.084373 42.81875 64.75625 42.81875Q66.05312 42.81875 66.81875 41.7875Q67.58437 40.75625 67.58437 38.725ZM73.42812 44.1L71.63125 44.1L71.63125 29.099998L73.42812 29.099998L73.42812 44.1ZM79.92812 41.459373L82.38125 33.5375L84.31875 33.5375L80.06875 45.725Q79.08437 48.365623 76.94375 48.365623L76.6 48.334373L75.92812 48.209373L75.92812 46.740623L76.4125 46.7875Q77.33437 46.7875 77.83437 46.4125Q78.35 46.0375 78.67812 45.053123L79.08437 43.975L75.31875 33.5375L77.2875 33.5375L79.92812 41.459373ZM91.35 44.1L91.35 34.928123L89.69375 34.928123L89.69375 33.5375L91.35 33.5375L91.35 32.44375Q91.35 30.756248 92.25625 29.834373Q93.17812 28.896873 94.83437 28.896873Q95.45937 28.896873 96.06875 29.053123L95.975 30.521873Q95.52187 30.443748 95.00625 30.443748Q94.11562 30.443748 93.63125 30.959373Q93.1625 31.459373 93.1625 32.4125L93.1625 33.5375L95.4125 33.5375L95.4125 34.928123L93.1625 34.928123L93.1625 44.1L91.35 44.1ZM96.99062 38.725Q96.99062 37.1625 97.6 35.928123Q98.20937 34.678123 99.2875 34.00625Q100.38125 33.334373 101.7875 33.334373Q103.94375 33.334373 105.27187 34.834373Q106.61562 36.31875 106.61562 38.803123L106.61562 38.928123Q106.61562 40.475 106.02187 41.709373Q105.42812 42.928123 104.31875 43.615623Q103.225 44.303123 101.80312 44.303123Q99.6625 44.303123 98.31875 42.803123Q96.99062 41.303123 96.99062 38.85L96.99062 38.725ZM98.80312 38.928123Q98.80312 40.69375 99.61562 41.75625Q100.44375 42.81875 101.80312 42.81875Q103.17812 42.81875 103.99062 41.740623Q104.80312 40.6625 104.80312 38.725Q104.80312 36.975 103.975 35.896873Q103.14687 34.81875 101.7875 34.81875Q100.44375 34.81875 99.61562 35.88125Q98.80312 36.94375 98.80312 38.928123ZM113.56875 35.146873Q113.1625 35.084373 112.69375 35.084373Q110.9125 35.084373 110.27187 36.6L110.27187 44.1L108.475 44.1L108.475 33.5375L110.225 33.5375L110.25625 34.75625Q111.14687 33.334373 112.77187 33.334373Q113.30312 33.334373 113.56875 33.475L113.56875 35.146873ZM129.6 44.1L120.2875 44.1L120.2875 42.803123L125.20937 37.334373Q126.30312 36.084373 126.70937 35.31875Q127.13125 34.5375 127.13125 33.709373Q127.13125 32.6 126.45937 31.881248Q125.7875 31.162498 124.6625 31.162498Q123.30312 31.162498 122.55312 31.943748Q121.81875 32.709373 121.81875 34.06875L120.00625 34.06875Q120.00625 32.1 121.27187 30.896873Q122.5375 29.678123 124.6625 29.678123Q126.64687 29.678123 127.7875 30.724998Q128.94376 31.771873 128.94376 33.490623Q128.94376 35.6 126.27187 38.490623L122.45937 42.63125L129.6 42.63125L129.6 44.1ZM140.19376 38.0375Q140.19376 41.209373 139.11563 42.75625Q138.0375 44.303123 135.725 44.303123Q133.44376 44.303123 132.35 42.7875Q131.25626 41.271873 131.225 38.271873L131.225 35.865623Q131.225 32.725 132.30313 31.209373Q133.39688 29.678123 135.70938 29.678123Q138.00626 29.678123 139.08438 31.162498Q140.1625 32.63125 140.19376 35.69375L140.19376 38.0375ZM138.39688 35.56875Q138.39688 33.271873 137.74063 32.225Q137.1 31.162498 135.70938 31.162498Q134.31876 31.162498 133.67813 32.209373Q133.05313 33.25625 133.0375 35.428123L133.0375 38.31875Q133.0375 40.615623 133.69376 41.725Q134.36563 42.81875 135.725 42.81875Q137.06876 42.81875 137.70938 41.7875Q138.36563 40.75625 138.39688 38.521873L138.39688 35.56875ZM151.6 44.1L142.2875 44.1L142.2875 42.803123L147.20938 37.334373Q148.30313 36.084373 148.70938 35.31875Q149.13126 34.5375 149.13126 33.709373Q149.13126 32.6 148.45938 31.881248Q147.7875 31.162498 146.6625 31.162498Q145.30313 31.162498 144.55313 31.943748Q143.81876 32.709373 143.81876 34.06875L142.00626 34.06875Q142.00626 32.1 143.27188 30.896873Q144.5375 29.678123 146.6625 29.678123Q148.64688 29.678123 149.7875 30.724998Q150.94376 31.771873 150.94376 33.490623Q150.94376 35.6 148.27188 38.490623L144.45938 42.63125L151.6 42.63125L151.6 44.1ZM162.6 44.1L153.2875 44.1L153.2875 42.803123L158.20938 37.334373Q159.30313 36.084373 159.70938 35.31875Q160.13126 34.5375 160.13126 33.709373Q160.13126 32.6 159.45938 31.881248Q158.7875 31.162498 157.6625 31.162498Q156.30313 31.162498 155.55313 31.943748Q154.81876 32.709373 154.81876 34.06875L153.00626 34.06875Q153.00626 32.1 154.27188 30.896873Q155.5375 29.678123 157.6625 29.678123Q159.64688 29.678123 160.7875 30.724998Q161.94376 31.771873 161.94376 33.490623Q161.94376 35.6 159.27188 38.490623L155.45938 42.63125L162.6 42.63125L162.6 44.1Z" fill-rule="nonzero"/></svg>