<svg version="1.1" viewBox="0.0 0.0 740.0 454.0" fill="none" stroke="none" stroke-linecap="square" stroke-miterlimit="10" width="740" height="454" xmlns:xlink="http://www.w3.org/1999/xlink" xmlns="http://www.w3.org/2000/svg"><path fill="#ffffff" d="M0 0L740.0 0L740.0 454.0L0 454.0L0 0Z" fill-rule="nonzero"/><path fill="#ff6d01" d="M338.69614 64.504944C349.03595 62.7271 359.50845 61.833332 370.0 61.833332L370.0 246.56667Z" fill-rule="nonzero"/><path fill="#34a853" d="M309.03946 72.18141C318.69543 68.80593 328.61508 66.23828 338.69614 64.504944L370.0 246.56667Z" fill-rule="nonzero"/><path fill="#fbbc04" d="M208.84973 156.25058C230.87703 116.94746 266.50845 87.04914 309.03946 72.18141L370.0 246.56667Z" fill-rule="nonzero"/><path fill="#ea4335" d="M188.49767 212.1674C192.21545 192.55113 199.08862 173.66727 208.84973 156.25058L370.0 246.56667Z" fill-rule="nonzero"/><path fill="#4285f4" d="M370.0 61.833332C447.87778 61.833332 517.3914 110.67284 543.7934 183.93869C570.1954 257.20453 547.8145 339.15903 487.83826 388.83594C427.862 438.51288 343.17337 445.2415 276.10526 405.65842C209.03717 366.07532 173.99602 288.6831 188.49767 212.1674L370.0 246.56667Z" fill-rule="nonzero"/><path fill="#000000" d="M403.5406 340.56076L403.96246 336.9514L407.94684 336.9514L407.94684 338.12326L405.1187 338.12326L404.9312 339.6545Q405.44684 339.3889 406.00934 339.3889Q407.02496 339.3889 407.6031 340.0295Q408.1812 340.6545 408.1812 341.7795Q408.1812 342.467 407.88434 343.0139Q407.58746 343.56076 407.0406 343.85764Q406.50934 344.1545 405.77496 344.1545Q405.13434 344.1545 404.57184 343.9045Q404.02496 343.6389 403.69684 343.17014Q403.38434 342.68576 403.3687 342.0764L404.75934 342.0764Q404.8062 342.5295 405.07184 342.7795Q405.33746 343.0139 405.77496 343.0139Q406.2437 343.0139 406.4937 342.67014Q406.75934 342.3264 406.75934 341.7014Q406.75934 341.092 406.46246 340.7795Q406.1656 340.4514 405.6187 340.4514Q405.1187 340.4514 404.8062 340.717L404.6656 340.842L403.5406 340.56076ZM414.1656 337.74826L411.4156 344.06076L409.9312 344.06076L412.6812 338.092L409.14996 338.092L409.14996 336.9514L414.1656 336.9514L414.1656 337.74826ZM415.5406 340.56076L415.96246 336.9514L419.94684 336.9514L419.94684 338.12326L417.1187 338.12326L416.9312 339.6545Q417.44684 339.3889 418.00934 339.3889Q419.02496 339.3889 419.6031 340.0295Q420.1812 340.6545 420.1812 341.7795Q420.1812 342.467 419.88434 343.0139Q419.58746 343.56076 419.0406 343.85764Q418.50934 344.1545 417.77496 344.1545Q417.13434 344.1545 416.57184 343.9045Q416.02496 343.6389 415.69684 343.17014Q415.38434 342.68576 415.3687 342.0764L416.75934 342.0764Q416.8062 342.5295 417.07184 342.7795Q417.33746 343.0139 417.77496 343.0139Q418.2437 343.0139 418.4937 342.67014Q418.75934 342.3264 418.75934 341.7014Q418.75934 341.092 418.46246 340.7795Q418.1656 340.4514 417.6187 340.4514Q417.1187 340.4514 416.8062 340.717L416.6656 340.842L415.5406 340.56076ZM421.46246 343.37326Q421.46246 343.0295 421.6812 342.8264Q421.9156 342.60764 422.25934 342.60764Q422.6187 342.60764 422.83746 342.8264Q423.07184 343.0295 423.07184 343.37326Q423.07184 343.7014 422.83746 343.9045Q422.6187 344.10764 422.25934 344.10764Q421.9156 344.10764 421.6812 343.9045Q421.46246 343.7014 421.46246 343.37326ZM424.5406 340.56076L424.96246 336.9514L428.94684 336.9514L428.94684 338.12326L426.1187 338.12326L425.9312 339.6545Q426.44684 339.3889 427.00934 339.3889Q428.02496 339.3889 428.6031 340.0295Q429.1812 340.6545 429.1812 341.7795Q429.1812 342.467 428.88434 343.0139Q428.58746 343.56076 428.0406 343.85764Q427.50934 344.1545 426.77496 344.1545Q426.13434 344.1545 425.57184 343.9045Q425.02496 343.6389 424.69684 343.17014Q424.38434 342.68576 424.3687 342.0764L425.75934 342.0764Q425.8062 342.5295 426.07184 342.7795Q426.33746 343.0139 426.77496 343.0139Q427.2437 343.0139 427.4937 342.67014Q427.75934 342.3264 427.75934 341.7014Q427.75934 341.092 427.46246 340.7795Q427.1656 340.4514 426.6187 340.4514Q426.1187 340.4514 425.8062 340.717L425.6656 340.842L424.5406 340.56076ZM435.1187 341.12326Q435.1187 342.592 434.50934 343.37326Q433.89996 344.1545 432.7281 344.1545Q431.5562 344.1545 430.94684 343.3889Q430.33746 342.62326 430.32184 341.2014L430.32184 339.8889Q430.32184 338.3889 430.9312 337.62326Q431.5562 336.85764 432.71246 336.85764Q433.88434 336.85764 434.4937 337.62326Q435.1031 338.3889 435.1187 339.81076L435.1187 341.12326ZM433.71246 339.68576Q433.71246 338.79514 433.46246 338.4045Q433.2281 337.99826 432.71246 337.99826Q432.21246 337.99826 431.9781 338.3889Q431.7437 338.7639 431.7281 339.5764L431.7281 341.31076Q431.7281 342.17014 431.96246 342.592Q432.19684 343.0139 432.7281 343.0139Q433.2437 343.0139 433.46246 342.62326Q433.69684 342.217 433.71246 341.37326L433.71246 339.68576ZM441.1187 341.12326Q441.1187 342.592 440.50934 343.37326Q439.89996 344.1545 438.7281 344.1545Q437.5562 344.1545 436.94684 343.3889Q436.33746 342.62326 436.32184 341.2014L436.32184 339.8889Q436.32184 338.3889 436.9312 337.62326Q437.5562 336.85764 438.71246 336.85764Q439.88434 336.85764 440.4937 337.62326Q441.1031 338.3889 441.1187 339.81076L441.1187 341.12326ZM439.71246 339.68576Q439.71246 338.79514 439.46246 338.4045Q439.2281 337.99826 438.71246 337.99826Q438.21246 337.99826 437.9781 338.3889Q437.7437 338.7639 437.7281 339.5764L437.7281 341.31076Q437.7281 342.17014 437.96246 342.592Q438.19684 343.0139 438.7281 343.0139Q439.2437 343.0139 439.46246 342.62326Q439.69684 342.217 439.71246 341.37326L439.71246 339.68576ZM442.75934 345.842L442.02496 345.4514L442.19684 345.1389Q442.52496 344.54514 442.5406 343.9514L442.5406 342.85764L443.7281 342.85764L443.7281 343.842Q443.71246 344.37326 443.44684 344.92014Q443.1812 345.48264 442.75934 345.842ZM449.1187 341.12326Q449.1187 342.592 448.50934 343.37326Q447.89996 344.1545 446.7281 344.1545Q445.5562 344.1545 444.94684 343.3889Q444.33746 342.62326 444.32184 341.2014L444.32184 339.8889Q444.32184 338.3889 444.9312 337.62326Q445.5562 336.85764 446.71246 336.85764Q447.88434 336.85764 448.4937 337.62326Q449.1031 338.3889 449.1187 339.81076L449.1187 341.12326ZM447.71246 339.68576Q447.71246 338.79514 447.46246 338.4045Q447.2281 337.99826 446.71246 337.99826Q446.21246 337.99826 445.9781 338.3889Q445.7437 338.7639 445.7281 339.5764L445.7281 341.31076Q445.7281 342.17014 445.96246 342.592Q446.19684 343.0139 446.7281 343.0139Q447.2437 343.0139 447.46246 342.62326Q447.69684 342.217 447.71246 341.37326L447.71246 339.68576ZM455.1187 341.12326Q455.1187 342.592 454.50934 343.37326Q453.89996 344.1545 452.7281 344.1545Q451.5562 344.1545 450.94684 343.3889Q450.33746 342.62326 450.32184 341.2014L450.32184 339.8889Q450.32184 338.3889 450.9312 337.62326Q451.5562 336.85764 452.71246 336.85764Q453.88434 336.85764 454.4937 337.62326Q455.1031 338.3889 455.1187 339.81076L455.1187 341.12326ZM453.71246 339.68576Q453.71246 338.79514 453.46246 338.4045Q453.2281 337.99826 452.71246 337.99826Q452.21246 337.99826 451.9781 338.3889Q451.7437 338.7639 451.7281 339.5764L451.7281 341.31076Q451.7281 342.17014 451.96246 342.592Q452.19684 343.0139 452.7281 343.0139Q453.2437 343.0139 453.46246 342.62326Q453.69684 342.217 453.71246 341.37326L453.71246 339.68576ZM458.46246 341.17014Q458.46246 340.04514 458.75934 339.04514Q459.0562 338.0295 459.63434 337.24826Q460.21246 336.467 460.89996 336.17014L461.1656 336.93576Q460.46246 337.4514 460.0562 338.56076Q459.64996 339.67014 459.64996 341.1389L459.64996 341.29514Q459.64996 342.7639 460.0406 343.87326Q460.44684 344.98264 461.1656 345.5295L460.89996 346.2795Q460.2281 345.98264 459.64996 345.23264Q459.08746 344.48264 458.77496 343.49826Q458.4781 342.49826 458.46246 341.43576L458.46246 341.17014ZM467.1656 337.74826L464.4156 344.06076L462.9312 344.06076L465.6812 338.092L462.14996 338.092L462.14996 336.9514L467.1656 336.9514L467.1656 337.74826ZM472.9781 338.842Q472.9781 339.35764 472.71246 339.7639Q472.44684 340.1545 471.9937 340.4045Q472.50934 340.6545 472.8062 341.092Q473.1187 341.5139 473.1187 342.10764Q473.1187 343.06076 472.4781 343.60764Q471.83746 344.1545 470.7281 344.1545Q469.6187 344.1545 468.96246 343.60764Q468.32184 343.06076 468.32184 342.10764Q468.32184 341.5139 468.6187 341.0764Q468.9156 340.6389 469.4312 340.4045Q468.9781 340.1545 468.71246 339.7639Q468.46246 339.35764 468.46246 338.842Q468.46246 337.93576 469.07184 337.4045Q469.6812 336.85764 470.71246 336.85764Q471.75934 336.85764 472.3687 337.3889Q472.9781 337.92014 472.9781 338.842ZM471.71246 342.0139Q471.71246 341.54514 471.4312 341.2639Q471.1656 340.98264 470.71246 340.98264Q470.25934 340.98264 469.9937 341.2639Q469.7281 341.54514 469.7281 342.0139Q469.7281 342.467 469.9937 342.74826Q470.25934 343.0139 470.7281 343.0139Q471.1812 343.0139 471.44684 342.74826Q471.71246 342.48264 471.71246 342.0139ZM471.5562 338.9045Q471.5562 338.49826 471.33746 338.24826Q471.1187 337.99826 470.71246 337.99826Q470.32184 337.99826 470.1031 338.24826Q469.88434 338.48264 469.88434 338.9045Q469.88434 339.3264 470.1031 339.592Q470.32184 339.85764 470.71246 339.85764Q471.1187 339.85764 471.33746 339.592Q471.5562 339.3264 471.5562 338.9045ZM474.75934 345.842L474.02496 345.4514L474.19684 345.1389Q474.52496 344.54514 474.5406 343.9514L474.5406 342.85764L475.7281 342.85764L475.7281 343.842Q475.71246 344.37326 475.44684 344.92014Q475.1812 345.48264 474.75934 345.842ZM481.1187 341.12326Q481.1187 342.592 480.50934 343.37326Q479.89996 344.1545 478.7281 344.1545Q477.5562 344.1545 476.94684 343.3889Q476.33746 342.62326 476.32184 341.2014L476.32184 339.8889Q476.32184 338.3889 476.9312 337.62326Q477.5562 336.85764 478.71246 336.85764Q479.88434 336.85764 480.4937 337.62326Q481.1031 338.3889 481.1187 339.81076L481.1187 341.12326ZM479.71246 339.68576Q479.71246 338.79514 479.46246 338.4045Q479.2281 337.99826 478.71246 337.99826Q478.21246 337.99826 477.9781 338.3889Q477.7437 338.7639 477.7281 339.5764L477.7281 341.31076Q477.7281 342.17014 477.96246 342.592Q478.19684 343.0139 478.7281 343.0139Q479.2437 343.0139 479.46246 342.62326Q479.69684 342.217 479.71246 341.37326L479.71246 339.68576ZM482.32184 338.31076Q482.32184 337.67014 482.7437 337.2639Q483.1656 336.842 483.8531 336.842Q484.5562 336.842 484.9781 337.24826Q485.39996 337.6545 485.39996 338.342L485.39996 338.7014Q485.39996 339.35764 484.9781 339.7639Q484.5562 340.1545 483.8687 340.1545Q483.1656 340.1545 482.7437 339.74826Q482.32184 339.342 482.32184 338.67014L482.32184 338.31076ZM483.25934 338.7014Q483.25934 338.98264 483.4156 339.17014Q483.58746 339.342 483.8531 339.342Q484.13434 339.342 484.2906 339.17014Q484.46246 338.98264 484.46246 338.68576L484.46246 338.31076Q484.46246 338.0295 484.2906 337.85764Q484.13434 337.67014 483.8531 337.67014Q483.58746 337.67014 483.4156 337.842Q483.25934 338.0139 483.25934 338.342L483.25934 338.7014ZM485.71246 342.31076Q485.71246 341.6545 486.13434 341.2639Q486.57184 340.85764 487.25934 340.85764Q487.94684 340.85764 488.3687 341.2639Q488.8062 341.6545 488.8062 342.342L488.8062 342.7014Q488.8062 343.35764 488.38434 343.7639Q487.96246 344.1545 487.27496 344.1545Q486.57184 344.1545 486.13434 343.74826Q485.71246 343.342 485.71246 342.68576L485.71246 342.31076ZM486.64996 342.7014Q486.64996 342.967 486.82184 343.1545Q487.00934 343.342 487.27496 343.342Q487.8687 343.342 487.8687 342.68576L487.8687 342.31076Q487.8687 342.0295 487.69684 341.85764Q487.52496 341.67014 487.2437 341.67014Q486.9781 341.67014 486.8062 341.85764Q486.64996 342.0295 486.64996 342.3264L486.64996 342.7014ZM484.14996 343.5295L483.46246 343.1545L486.9312 337.60764L487.6187 337.967L484.14996 343.5295ZM491.82184 341.2795Q491.82184 342.3889 491.50934 343.4045Q491.19684 344.42014 490.58746 345.2014Q489.9937 345.98264 489.32184 346.2795L489.0562 345.5295Q489.7437 345.0139 490.13434 343.93576Q490.5406 342.842 490.5562 341.42014L490.5562 341.1545Q490.5562 339.7014 490.14996 338.592Q489.75934 337.467 489.0562 336.92014L489.32184 336.17014Q489.9937 336.4514 490.57184 337.217Q491.1656 337.967 491.4781 338.98264Q491.8062 339.98264 491.82184 341.06076L491.82184 341.2795Z" fill-rule="nonzero"/><path fill="#000000" d="M253.26903 149.67928Q253.26903 150.1949 253.0034 150.60115Q252.73778 150.99178 252.28465 151.24178Q252.80028 151.49178 253.09715 151.92928Q253.40965 152.35115 253.40965 152.9449Q253.40965 153.89803 252.76903 154.4449Q252.1284 154.99178 251.01903 154.99178Q249.90965 154.99178 249.2534 154.4449Q248.61278 153.89803 248.61278 152.9449Q248.61278 152.35115 248.90965 151.91365Q249.20653 151.47615 249.72215 151.24178Q249.26903 150.99178 249.0034 150.60115Q248.7534 150.1949 248.7534 149.67928Q248.7534 148.77303 249.36278 148.24178Q249.97215 147.6949 251.0034 147.6949Q252.05028 147.6949 252.65965 148.22615Q253.26903 148.7574 253.26903 149.67928ZM252.0034 152.85115Q252.0034 152.3824 251.72215 152.10115Q251.45653 151.8199 251.0034 151.8199Q250.55028 151.8199 250.28465 152.10115Q250.01903 152.3824 250.01903 152.85115Q250.01903 153.30428 250.28465 153.58553Q250.55028 153.85115 251.01903 153.85115Q251.47215 153.85115 251.73778 153.58553Q252.0034 153.3199 252.0034 152.85115ZM251.84715 149.74178Q251.84715 149.33553 251.6284 149.08553Q251.40965 148.83553 251.0034 148.83553Q250.61278 148.83553 250.39403 149.08553Q250.17528 149.3199 250.17528 149.74178Q250.17528 150.16365 250.39403 150.42928Q250.61278 150.6949 251.0034 150.6949Q251.40965 150.6949 251.6284 150.42928Q251.84715 150.16365 251.84715 149.74178ZM254.83153 151.39803L255.2534 147.78865L259.2378 147.78865L259.2378 148.96053L256.40967 148.96053L256.22217 150.49178Q256.7378 150.22615 257.3003 150.22615Q258.31592 150.22615 258.89404 150.86678Q259.47217 151.49178 259.47217 152.61678Q259.47217 153.30428 259.1753 153.85115Q258.87842 154.39803 258.33154 154.6949Q257.8003 154.99178 257.06592 154.99178Q256.4253 154.99178 255.86278 154.74178Q255.3159 154.47615 254.98778 154.0074Q254.67528 153.52303 254.65965 152.91365L256.0503 152.91365Q256.09717 153.36678 256.3628 153.61678Q256.62842 153.85115 257.06592 153.85115Q257.53467 153.85115 257.78467 153.5074Q258.0503 153.16365 258.0503 152.53865Q258.0503 151.92928 257.75342 151.61678Q257.45654 151.28865 256.90967 151.28865Q256.40967 151.28865 256.09717 151.55428L255.95653 151.67928L254.83153 151.39803ZM260.75342 154.21053Q260.75342 153.86678 260.97217 153.66365Q261.20654 153.4449 261.5503 153.4449Q261.90967 153.4449 262.12842 153.66365Q262.3628 153.86678 262.3628 154.21053Q262.3628 154.53865 262.12842 154.74178Q261.90967 154.9449 261.5503 154.9449Q261.20654 154.9449 260.97217 154.74178Q260.75342 154.53865 260.75342 154.21053ZM268.40967 151.96053Q268.40967 153.42928 267.8003 154.21053Q267.19092 154.99178 266.01904 154.99178Q264.84717 154.99178 264.2378 154.22615Q263.62842 153.46053 263.6128 152.03865L263.6128 150.72615Q263.6128 149.22615 264.22217 148.46053Q264.84717 147.6949 266.00342 147.6949Q267.1753 147.6949 267.78467 148.46053Q268.39404 149.22615 268.40967 150.64803L268.40967 151.96053ZM267.00342 150.52303Q267.00342 149.6324 266.75342 149.24178Q266.51904 148.83553 266.00342 148.83553Q265.50342 148.83553 265.26904 149.22615Q265.03467 149.60115 265.01904 150.41365L265.01904 152.14803Q265.01904 153.0074 265.25342 153.42928Q265.4878 153.85115 266.01904 153.85115Q266.53467 153.85115 266.75342 153.46053Q266.9878 153.05428 267.00342 152.21053L267.00342 150.52303ZM274.40967 151.96053Q274.40967 153.42928 273.8003 154.21053Q273.19092 154.99178 272.01904 154.99178Q270.84717 154.99178 270.2378 154.22615Q269.62842 153.46053 269.6128 152.03865L269.6128 150.72615Q269.6128 149.22615 270.22217 148.46053Q270.84717 147.6949 272.00342 147.6949Q273.1753 147.6949 273.78467 148.46053Q274.39404 149.22615 274.40967 150.64803L274.40967 151.96053ZM273.00342 150.52303Q273.00342 149.6324 272.75342 149.24178Q272.51904 148.83553 272.00342 148.83553Q271.50342 148.83553 271.26904 149.22615Q271.03467 149.60115 271.01904 150.41365L271.01904 152.14803Q271.01904 153.0074 271.25342 153.42928Q271.4878 153.85115 272.01904 153.85115Q272.53467 153.85115 272.75342 153.46053Q272.9878 153.05428 273.00342 152.21053L273.00342 150.52303ZM280.40967 151.96053Q280.40967 153.42928 279.8003 154.21053Q279.19092 154.99178 278.01904 154.99178Q276.84717 154.99178 276.2378 154.22615Q275.62842 153.46053 275.6128 152.03865L275.6128 150.72615Q275.6128 149.22615 276.22217 148.46053Q276.84717 147.6949 278.00342 147.6949Q279.1753 147.6949 279.78467 148.46053Q280.39404 149.22615 280.40967 150.64803L280.40967 151.96053ZM279.00342 150.52303Q279.00342 149.6324 278.75342 149.24178Q278.51904 148.83553 278.00342 148.83553Q277.50342 148.83553 277.26904 149.22615Q277.03467 149.60115 277.01904 150.41365L277.01904 152.14803Q277.01904 153.0074 277.25342 153.42928Q277.4878 153.85115 278.01904 153.85115Q278.53467 153.85115 278.75342 153.46053Q278.9878 153.05428 279.00342 152.21053L279.00342 150.52303ZM282.0503 156.67928L281.31592 156.28865L281.4878 155.97615Q281.81592 155.3824 281.83154 154.78865L281.83154 153.6949L283.01904 153.6949L283.01904 154.67928Q283.00342 155.21053 282.7378 155.7574Q282.47217 156.3199 282.0503 156.67928ZM288.40967 151.96053Q288.40967 153.42928 287.8003 154.21053Q287.19092 154.99178 286.01904 154.99178Q284.84717 154.99178 284.2378 154.22615Q283.62842 153.46053 283.6128 152.03865L283.6128 150.72615Q283.6128 149.22615 284.22217 148.46053Q284.84717 147.6949 286.00342 147.6949Q287.1753 147.6949 287.78467 148.46053Q288.39404 149.22615 288.40967 150.64803L288.40967 151.96053ZM287.00342 150.52303Q287.00342 149.6324 286.75342 149.24178Q286.51904 148.83553 286.00342 148.83553Q285.50342 148.83553 285.26904 149.22615Q285.03467 149.60115 285.01904 150.41365L285.01904 152.14803Q285.01904 153.0074 285.25342 153.42928Q285.4878 153.85115 286.01904 153.85115Q286.53467 153.85115 286.75342 153.46053Q286.9878 153.05428 287.00342 152.21053L287.00342 150.52303ZM294.40967 151.96053Q294.40967 153.42928 293.8003 154.21053Q293.19092 154.99178 292.01904 154.99178Q290.84717 154.99178 290.2378 154.22615Q289.62842 153.46053 289.6128 152.03865L289.6128 150.72615Q289.6128 149.22615 290.22217 148.46053Q290.84717 147.6949 292.00342 147.6949Q293.1753 147.6949 293.78467 148.46053Q294.39404 149.22615 294.40967 150.64803L294.40967 151.96053ZM293.00342 150.52303Q293.00342 149.6324 292.75342 149.24178Q292.51904 148.83553 292.00342 148.83553Q291.50342 148.83553 291.26904 149.22615Q291.03467 149.60115 291.01904 150.41365L291.01904 152.14803Q291.01904 153.0074 291.25342 153.42928Q291.4878 153.85115 292.01904 153.85115Q292.53467 153.85115 292.75342 153.46053Q292.9878 153.05428 293.00342 152.21053L293.00342 150.52303ZM297.75342 152.0074Q297.75342 150.8824 298.0503 149.8824Q298.34717 148.86678 298.9253 148.08553Q299.50342 147.30428 300.19092 147.0074L300.45654 147.77303Q299.75342 148.28865 299.34717 149.39803Q298.94092 150.5074 298.94092 151.97615L298.94092 152.1324Q298.94092 153.60115 299.33154 154.71053Q299.7378 155.8199 300.45654 156.36678L300.19092 157.11678Q299.51904 156.8199 298.94092 156.0699Q298.37842 155.3199 298.06592 154.33553Q297.76904 153.33553 297.75342 152.27303L297.75342 152.0074ZM305.0503 154.89803L303.64404 154.89803L303.64404 149.46053L301.95654 149.97615L301.95654 148.83553L304.90967 147.77303L305.0503 147.77303L305.0503 154.89803ZM311.0503 154.89803L309.64404 154.89803L309.64404 149.46053L307.95654 149.97615L307.95654 148.83553L310.90967 147.77303L311.0503 147.77303L311.0503 154.89803ZM314.0503 156.67928L313.31592 156.28865L313.4878 155.97615Q313.81592 155.3824 313.83154 154.78865L313.83154 153.6949L315.01904 153.6949L315.01904 154.67928Q315.00342 155.21053 314.7378 155.7574Q314.47217 156.3199 314.0503 156.67928ZM315.83154 151.39803L316.25342 147.78865L320.2378 147.78865L320.2378 148.96053L317.40967 148.96053L317.22217 150.49178Q317.7378 150.22615 318.3003 150.22615Q319.31592 150.22615 319.89404 150.86678Q320.47217 151.49178 320.47217 152.61678Q320.47217 153.30428 320.1753 153.85115Q319.87842 154.39803 319.33154 154.6949Q318.8003 154.99178 318.06592 154.99178Q317.4253 154.99178 316.8628 154.74178Q316.31592 154.47615 315.9878 154.0074Q315.6753 153.52303 315.65967 152.91365L317.0503 152.91365Q317.09717 153.36678 317.3628 153.61678Q317.62842 153.85115 318.06592 153.85115Q318.53467 153.85115 318.78467 153.5074Q319.0503 153.16365 319.0503 152.53865Q319.0503 151.92928 318.75342 151.61678Q318.45654 151.28865 317.90967 151.28865Q317.40967 151.28865 317.09717 151.55428L316.95654 151.67928L315.83154 151.39803ZM321.6128 149.14803Q321.6128 148.5074 322.03467 148.10115Q322.45654 147.67928 323.14404 147.67928Q323.84717 147.67928 324.26904 148.08553Q324.69092 148.49178 324.69092 149.17928L324.69092 149.53865Q324.69092 150.1949 324.26904 150.60115Q323.84717 150.99178 323.15967 150.99178Q322.45654 150.99178 322.03467 150.58553Q321.6128 150.17928 321.6128 149.5074L321.6128 149.14803ZM322.5503 149.53865Q322.5503 149.8199 322.70654 150.0074Q322.87842 150.17928 323.14404 150.17928Q323.4253 150.17928 323.58154 150.0074Q323.75342 149.8199 323.75342 149.52303L323.75342 149.14803Q323.75342 148.86678 323.58154 148.6949Q323.4253 148.5074 323.14404 148.5074Q322.87842 148.5074 322.70654 148.67928Q322.5503 148.85115 322.5503 149.17928L322.5503 149.53865ZM325.00342 153.14803Q325.00342 152.49178 325.4253 152.10115Q325.8628 151.6949 326.5503 151.6949Q327.2378 151.6949 327.65967 152.10115Q328.09717 152.49178 328.09717 153.17928L328.09717 153.53865Q328.09717 154.1949 327.6753 154.60115Q327.25342 154.99178 326.56592 154.99178Q325.8628 154.99178 325.4253 154.58553Q325.00342 154.17928 325.00342 153.52303L325.00342 153.14803ZM325.94092 153.53865Q325.94092 153.80428 326.1128 153.99178Q326.3003 154.17928 326.56592 154.17928Q327.15967 154.17928 327.15967 153.52303L327.15967 153.14803Q327.15967 152.86678 326.9878 152.6949Q326.81592 152.5074 326.53467 152.5074Q326.26904 152.5074 326.09717 152.6949Q325.94092 152.86678 325.94092 153.16365L325.94092 153.53865ZM323.44092 154.36678L322.75342 153.99178L326.22217 148.4449L326.90967 148.80428L323.44092 154.36678ZM331.1128 152.11678Q331.1128 153.22615 330.8003 154.24178Q330.4878 155.2574 329.87842 156.03865Q329.28467 156.8199 328.6128 157.11678L328.34717 156.36678Q329.03467 155.85115 329.4253 154.77303Q329.83154 153.67928 329.84717 152.2574L329.84717 151.99178Q329.84717 150.53865 329.44092 149.42928Q329.0503 148.30428 328.34717 147.7574L328.6128 147.0074Q329.28467 147.28865 329.8628 148.05428Q330.45654 148.80428 330.76904 149.8199Q331.09717 150.8199 331.1128 151.89803L331.1128 152.11678Z" fill-rule="nonzero"/><path stroke="#ffffff" stroke-width="1.0" stroke-linejoin="round" stroke-linecap="round" d="M370.0 246.56667L370.0 61.833332C447.87778 61.833332 517.3914 110.67284 543.7934 183.93869C570.1954 257.20453 547.8145 339.15903 487.83826 388.83594C427.862 438.51288 343.17337 445.2415 276.10526 405.65842C209.03717 366.07532 173.99602 288.6831 188.49767 212.1674" fill-rule="nonzero"/><path stroke="#ffffff" stroke-width="1.0" stroke-linejoin="round" stroke-linecap="round" d="M370.0 246.56667L188.49767 212.1674C192.21545 192.55113 199.08862 173.66727 208.84973 156.25058" fill-rule="nonzero"/><path stroke="#ffffff" stroke-width="1.0" stroke-linejoin="round" stroke-linecap="round" d="M370.0 246.56667L208.84973 156.25058C230.87703 116.94746 266.50845 87.04914 309.03946 72.18141" fill-rule="nonzero"/><path stroke="#ffffff" stroke-width="1.0" stroke-linejoin="round" stroke-linecap="round" d="M370.0 246.56667L309.03946 72.18141C318.69543 68.80593 328.61508 66.23828 338.69614 64.504944" fill-rule="nonzero"/><path stroke="#ffffff" stroke-width="1.0" stroke-linejoin="round" stroke-linecap="round" d="M370.0 246.56667L338.69614 64.504944C349.03595 62.7271 359.50845 61.833332 370.0 61.833332" fill-rule="nonzero"/><path fill="#1a1a1a" d="M26.621876 70.708336L25.215626 70.708336L25.215626 73.833336L23.465626 73.833336L23.465626 65.302086L26.6375 65.302086Q28.1375 65.302086 28.95 65.97396Q29.778126 66.645836 29.778126 67.88021Q29.778126 68.75521 29.403126 69.333336Q29.028126 69.91146 28.2625 70.270836L30.10625 73.75521L30.10625 73.833336L28.215626 73.833336L26.621876 70.708336ZM25.215626 69.28646L26.6375 69.28646Q27.29375 69.28646 27.653126 68.958336Q28.028126 68.614586 28.028126 68.020836Q28.028126 67.41146 27.684376 67.06771Q27.340626 66.72396 26.6375 66.72396L25.215626 66.72396L25.215626 69.28646ZM34.2625 73.958336Q32.871876 73.958336 31.996876 73.09896Q31.121876 72.239586 31.121876 70.81771L31.121876 70.645836Q31.121876 69.69271 31.48125 68.94271Q31.85625 68.19271 32.528126 67.78646Q33.215626 67.38021 34.075 67.38021Q35.3875 67.38021 36.121876 68.208336Q36.871876 69.020836 36.871876 70.520836L36.871876 71.208336L32.840626 71.208336Q32.91875 71.833336 33.325 72.208336Q33.746876 72.583336 34.3875 72.583336Q35.35625 72.583336 35.903126 71.88021L36.746876 72.802086Q36.35625 73.34896 35.7 73.66146Q35.059376 73.958336 34.2625 73.958336ZM34.075 68.739586Q33.575 68.739586 33.2625 69.083336Q32.95 69.427086 32.85625 70.052086L35.215626 70.052086L35.215626 69.927086Q35.2 69.364586 34.903126 69.052086Q34.621876 68.739586 34.075 68.739586ZM43.059376 70.72396Q43.059376 72.19271 42.3875 73.083336Q41.73125 73.958336 40.590626 73.958336Q39.6375 73.958336 39.04375 73.28646L39.04375 76.270836L37.35625 76.270836L37.35625 67.489586L38.91875 67.489586L38.98125 68.114586Q39.590626 67.38021 40.590626 67.38021Q41.7625 67.38021 42.403126 68.25521Q43.059376 69.114586 43.059376 70.63021L43.059376 70.72396ZM41.371876 70.59896Q41.371876 69.708336 41.04375 69.239586Q40.73125 68.75521 40.1375 68.75521Q39.340626 68.75521 39.04375 69.364586L39.04375 71.958336Q39.35625 72.583336 40.153126 72.583336Q41.371876 72.583336 41.371876 70.59896ZM47.91875 69.083336Q47.575 69.03646 47.309376 69.03646Q46.340626 69.03646 46.04375 69.677086L46.04375 73.833336L44.35625 73.833336L44.35625 67.489586L45.95 67.489586L45.996876 68.25521Q46.5125 67.38021 47.403126 67.38021Q47.684376 67.38021 47.934376 67.458336L47.91875 69.083336ZM51.2625 73.958336Q49.871876 73.958336 48.996876 73.09896Q48.121876 72.239586 48.121876 70.81771L48.121876 70.645836Q48.121876 69.69271 48.48125 68.94271Q48.85625 68.19271 49.528126 67.78646Q50.215626 67.38021 51.075 67.38021Q52.3875 67.38021 53.121876 68.208336Q53.871876 69.020836 53.871876 70.520836L53.871876 71.208336L49.840626 71.208336Q49.91875 71.833336 50.325 72.208336Q50.746876 72.583336 51.3875 72.583336Q52.35625 72.583336 52.903126 71.88021L53.746876 72.802086Q53.35625 73.34896 52.7 73.66146Q52.059376 73.958336 51.2625 73.958336ZM51.075 68.739586Q50.575 68.739586 50.2625 69.083336Q49.95 69.427086 49.85625 70.052086L52.215626 70.052086L52.215626 69.927086Q52.2 69.364586 51.903126 69.052086Q51.621876 68.739586 51.075 68.739586ZM57.778126 72.083336Q57.778126 71.770836 57.465626 71.59896Q57.16875 71.41146 56.496876 71.270836Q54.23125 70.802086 54.23125 69.34896Q54.23125 68.50521 54.91875 67.94271Q55.621876 67.38021 56.7625 67.38021Q57.965626 67.38021 58.684376 67.94271Q59.41875 68.50521 59.41875 69.427086L57.715626 69.427086Q57.715626 69.052086 57.48125 68.81771Q57.246876 68.583336 56.746876 68.583336Q56.325 68.583336 56.090626 68.78646Q55.85625 68.97396 55.85625 69.270836Q55.85625 69.552086 56.121876 69.72396Q56.3875 69.895836 57.0125 70.020836Q57.653126 70.145836 58.090626 70.302086Q59.434376 70.802086 59.434376 72.00521Q59.434376 72.88021 58.684376 73.427086Q57.95 73.958336 56.7625 73.958336Q55.965626 73.958336 55.340626 73.677086Q54.73125 73.38021 54.371876 72.895836Q54.028126 72.395836 54.028126 71.81771L55.6375 71.81771Q55.653126 72.270836 55.965626 72.520836Q56.278126 72.75521 56.79375 72.75521Q57.29375 72.75521 57.528126 72.56771Q57.778126 72.38021 57.778126 72.083336ZM63.2625 73.958336Q61.871876 73.958336 60.996876 73.09896Q60.121876 72.239586 60.121876 70.81771L60.121876 70.645836Q60.121876 69.69271 60.48125 68.94271Q60.85625 68.19271 61.528126 67.78646Q62.215626 67.38021 63.075 67.38021Q64.3875 67.38021 65.12187 68.208336Q65.87187 69.020836 65.87187 70.520836L65.87187 71.208336L61.840626 71.208336Q61.91875 71.833336 62.325 72.208336Q62.746876 72.583336 63.3875 72.583336Q64.35625 72.583336 64.90312 71.88021L65.74687 72.802086Q65.35625 73.34896 64.7 73.66146Q64.05937 73.958336 63.2625 73.958336ZM63.075 68.739586Q62.575 68.739586 62.2625 69.083336Q61.95 69.427086 61.85625 70.052086L64.21562 70.052086L64.21562 69.927086Q64.2 69.364586 63.903126 69.052086Q63.621876 68.739586 63.075 68.739586ZM67.90312 67.489586L67.96562 68.22396Q68.6375 67.38021 69.77812 67.38021Q70.79375 67.38021 71.27812 67.97396Q71.77812 68.552086 71.79375 69.739586L71.79375 73.833336L70.09062 73.833336L70.09062 69.770836Q70.09062 69.239586 69.85625 69.00521Q69.62187 68.75521 69.075 68.75521Q68.37187 68.75521 68.0125 69.364586L68.0125 73.833336L66.30937 73.833336L66.30937 67.489586L67.90312 67.489586ZM75.37187 65.927086L75.37187 67.489586L76.46562 67.489586L76.46562 68.739586L75.37187 68.739586L75.37187 71.895836Q75.37187 72.25521 75.5125 72.41146Q75.65312 72.552086 76.02812 72.552086Q76.30937 72.552086 76.52812 72.520836L76.52812 73.802086Q76.02812 73.958336 75.49687 73.958336Q73.71562 73.958336 73.68437 72.145836L73.68437 68.739586L72.7625 68.739586L72.7625 67.489586L73.68437 67.489586L73.68437 65.927086L75.37187 65.927086ZM81.02812 73.833336Q80.90312 73.59896 80.85625 73.270836Q80.24687 73.958336 79.2625 73.958336Q78.325 73.958336 77.71562 73.41146Q77.10625 72.864586 77.10625 72.052086Q77.10625 71.03646 77.84062 70.50521Q78.59062 69.958336 80.0125 69.958336L80.77812 69.958336L80.77812 69.59896Q80.77812 69.16146 80.55937 68.895836Q80.34062 68.63021 79.84062 68.63021Q79.41875 68.63021 79.16875 68.833336Q78.93437 69.03646 78.93437 69.395836L77.24687 69.395836Q77.24687 68.84896 77.575 68.38021Q77.91875 67.91146 78.54375 67.645836Q79.16875 67.38021 79.93437 67.38021Q81.10625 67.38021 81.79375 67.97396Q82.48125 68.552086 82.48125 69.614586L82.48125 72.364586Q82.49687 73.270836 82.73125 73.739586L82.73125 73.833336L81.02812 73.833336ZM79.62187 72.66146Q79.99687 72.66146 80.30937 72.489586Q80.6375 72.31771 80.77812 72.03646L80.77812 70.94271L80.15312 70.94271Q78.8875 70.94271 78.79375 71.833336L78.79375 71.927086Q78.79375 72.239586 79.0125 72.458336Q79.23125 72.66146 79.62187 72.66146ZM85.37187 65.927086L85.37187 67.489586L86.46562 67.489586L86.46562 68.739586L85.37187 68.739586L85.37187 71.895836Q85.37187 72.25521 85.5125 72.41146Q85.65312 72.552086 86.02812 72.552086Q86.30937 72.552086 86.52812 72.520836L86.52812 73.802086Q86.02812 73.958336 85.49687 73.958336Q83.71562 73.958336 83.68437 72.145836L83.68437 68.739586L82.7625 68.739586L82.7625 67.489586L83.68437 67.489586L83.68437 65.927086L85.37187 65.927086ZM89.1375 73.833336L87.43437 73.833336L87.43437 67.489586L89.1375 67.489586L89.1375 73.833336ZM87.34062 65.84896Q87.34062 65.47396 87.59062 65.22396Q87.85625 64.97396 88.29375 64.97396Q88.71562 64.97396 88.96562 65.22396Q89.23125 65.47396 89.23125 65.84896Q89.23125 66.239586 88.96562 66.489586Q88.71562 66.72396 88.27812 66.72396Q87.85625 66.72396 87.59062 66.489586Q87.34062 66.239586 87.34062 65.84896ZM92.73125 71.770836L93.90312 67.489586L95.66875 67.489586L93.52812 73.833336L91.91875 73.833336L89.77812 67.489586L91.54375 67.489586L92.73125 71.770836ZM99.2625 73.958336Q97.87187 73.958336 96.99687 73.09896Q96.12187 72.239586 96.12187 70.81771L96.12187 70.645836Q96.12187 69.69271 96.48125 68.94271Q96.85625 68.19271 97.52812 67.78646Q98.21562 67.38021 99.075 67.38021Q100.3875 67.38021 101.12187 68.208336Q101.87187 69.020836 101.87187 70.520836L101.87187 71.208336L97.84062 71.208336Q97.91875 71.833336 98.325 72.208336Q98.74687 72.583336 99.3875 72.583336Q100.35625 72.583336 100.90312 71.88021L101.74687 72.802086Q101.35625 73.34896 100.7 73.66146Q100.05937 73.958336 99.2625 73.958336ZM99.075 68.739586Q98.575 68.739586 98.2625 69.083336Q97.95 69.427086 97.85625 70.052086L100.21562 70.052086L100.21562 69.927086Q100.2 69.364586 99.90312 69.052086Q99.62187 68.739586 99.075 68.739586ZM105.12187 71.53646Q105.12187 70.94271 105.45 70.44271Q105.77812 69.94271 106.66875 69.31771Q106.27812 68.81771 106.05937 68.364586Q105.85625 67.91146 105.85625 67.427086Q105.85625 66.427086 106.48125 65.802086Q107.10625 65.177086 108.16875 65.177086Q109.1375 65.177086 109.74687 65.75521Q110.35625 66.31771 110.35625 67.177086Q110.35625 68.19271 109.325 68.97396L108.66875 69.44271L110.1375 71.16146Q110.48125 70.47396 110.48125 69.66146L111.91875 69.66146Q111.91875 71.31771 111.15312 72.34896L112.43437 73.833336L110.5125 73.833336L110.075 73.333336Q109.1375 73.958336 107.90312 73.958336Q106.6375 73.958336 105.87187 73.28646Q105.12187 72.614586 105.12187 71.53646ZM107.98125 72.583336Q108.59062 72.583336 109.1375 72.25521L107.46562 70.302086L107.34062 70.395836Q106.80937 70.833336 106.80937 71.44271Q106.80937 71.958336 107.1375 72.270836Q107.46562 72.583336 107.98125 72.583336ZM107.37187 67.41146Q107.37187 67.84896 107.8875 68.50521L108.34062 68.208336Q108.68437 67.989586 108.80937 67.78646Q108.95 67.56771 108.95 67.28646Q108.95 66.989586 108.73125 66.770836Q108.5125 66.552086 108.16875 66.552086Q107.80937 66.552086 107.59062 66.78646Q107.37187 67.020836 107.37187 67.41146ZM116.09062 70.59896Q116.09062 69.66146 116.45 68.927086Q116.80937 68.177086 117.49687 67.78646Q118.18437 67.38021 119.075 67.38021Q120.37187 67.38021 121.16875 68.16146Q121.98125 68.94271 122.075 70.28646L122.09062 70.72396Q122.09062 72.19271 121.27812 73.083336Q120.46562 73.958336 119.09062 73.958336Q117.71562 73.958336 116.90312 73.083336Q116.09062 72.19271 116.09062 70.677086L116.09062 70.59896ZM117.77812 70.72396Q117.77812 71.63021 118.12187 72.114586Q118.46562 72.583336 119.09062 72.583336Q119.71562 72.583336 120.05937 72.114586Q120.40312 71.645836 120.40312 70.59896Q120.40312 69.72396 120.05937 69.239586Q119.71562 68.739586 119.075 68.739586Q118.46562 68.739586 118.12187 69.22396Q117.77812 69.708336 117.77812 70.72396ZM125.37187 65.927086L125.37187 67.489586L126.46562 67.489586L126.46562 68.739586L125.37187 68.739586L125.37187 71.895836Q125.37187 72.25521 125.5125 72.41146Q125.65312 72.552086 126.02812 72.552086Q126.30937 72.552086 126.52812 72.520836L126.52812 73.802086Q126.02812 73.958336 125.49687 73.958336Q123.71562 73.958336 123.68437 72.145836L123.68437 68.739586L122.7625 68.739586L122.7625 67.489586L123.68437 67.489586L123.68437 65.927086L125.37187 65.927086ZM128.99687 68.177086Q129.68437 67.38021 130.7 67.38021Q132.7625 67.38021 132.79375 69.770836L132.79375 73.833336L131.09062 73.833336L131.09062 69.81771Q131.09062 69.270836 130.85625 69.020836Q130.62187 68.75521 130.075 68.75521Q129.34062 68.75521 128.99687 69.333336L128.99687 73.833336L127.30937 73.833336L127.30937 64.833336L128.99687 64.833336L128.99687 68.177086ZM137.2625 73.958336Q135.87187 73.958336 134.99687 73.09896Q134.12187 72.239586 134.12187 70.81771L134.12187 70.645836Q134.12187 69.69271 134.48125 68.94271Q134.85625 68.19271 135.52812 67.78646Q136.21562 67.38021 137.075 67.38021Q138.3875 67.38021 139.12187 68.208336Q139.87187 69.020836 139.87187 70.520836L139.87187 71.208336L135.84062 71.208336Q135.91875 71.833336 136.325 72.208336Q136.74687 72.583336 137.3875 72.583336Q138.35625 72.583336 138.90312 71.88021L139.74687 72.802086Q139.35625 73.34896 138.7 73.66146Q138.05937 73.958336 137.2625 73.958336ZM137.075 68.739586Q136.575 68.739586 136.2625 69.083336Q135.95 69.427086 135.85625 70.052086L138.21562 70.052086L138.21562 69.927086Q138.2 69.364586 137.90312 69.052086Q137.62187 68.739586 137.075 68.739586ZM143.91875 69.083336Q143.575 69.03646 143.30937 69.03646Q142.34062 69.03646 142.04375 69.677086L142.04375 73.833336L140.35625 73.833336L140.35625 67.489586L141.95 67.489586L141.99687 68.25521Q142.5125 67.38021 143.40312 67.38021Q143.68437 67.38021 143.93437 67.458336L143.91875 69.083336ZM149.98125 72.583336Q150.45 72.583336 150.74687 72.333336Q151.04375 72.06771 151.05937 71.645836L152.6375 71.645836Q152.6375 72.28646 152.29375 72.833336Q151.95 73.364586 151.34062 73.66146Q150.74687 73.958336 150.0125 73.958336Q148.65312 73.958336 147.87187 73.09896Q147.09062 72.22396 147.09062 70.69271L147.09062 70.583336Q147.09062 69.114586 147.87187 68.25521Q148.65312 67.38021 150.0125 67.38021Q151.2 67.38021 151.91875 68.052086Q152.6375 68.72396 152.6375 69.84896L151.05937 69.84896Q151.04375 69.364586 150.74687 69.052086Q150.45 68.739586 149.98125 68.739586Q149.3875 68.739586 149.075 69.177086Q148.77812 69.614586 148.77812 70.56771L148.77812 70.75521Q148.77812 71.72396 149.075 72.16146Q149.37187 72.583336 149.98125 72.583336ZM153.09062 70.59896Q153.09062 69.66146 153.45 68.927086Q153.80937 68.177086 154.49687 67.78646Q155.18437 67.38021 156.075 67.38021Q157.37187 67.38021 158.16875 68.16146Q158.98125 68.94271 159.075 70.28646L159.09062 70.72396Q159.09062 72.19271 158.27812 73.083336Q157.46562 73.958336 156.09062 73.958336Q154.71562 73.958336 153.90312 73.083336Q153.09062 72.19271 153.09062 70.677086L153.09062 70.59896ZM154.77812 70.72396Q154.77812 71.63021 155.12187 72.114586Q155.46562 72.583336 156.09062 72.583336Q156.71562 72.583336 157.05937 72.114586Q157.40312 71.645836 157.40312 70.59896Q157.40312 69.72396 157.05937 69.239586Q156.71562 68.739586 156.075 68.739586Q155.46562 68.739586 155.12187 69.22396Q154.77812 69.708336 154.77812 70.72396ZM163.77812 72.083336Q163.77812 71.770836 163.46562 71.59896Q163.16875 71.41146 162.49687 71.270836Q160.23125 70.802086 160.23125 69.34896Q160.23125 68.50521 160.91875 67.94271Q161.62187 67.38021 162.7625 67.38021Q163.96562 67.38021 164.68437 67.94271Q165.41875 68.50521 165.41875 69.427086L163.71562 69.427086Q163.71562 69.052086 163.48125 68.81771Q163.24687 68.583336 162.74687 68.583336Q162.325 68.583336 162.09062 68.78646Q161.85625 68.97396 161.85625 69.270836Q161.85625 69.552086 162.12187 69.72396Q162.3875 69.895836 163.0125 70.020836Q163.65312 70.145836 164.09062 70.302086Q165.43437 70.802086 165.43437 72.00521Q165.43437 72.88021 164.68437 73.427086Q163.95 73.958336 162.7625 73.958336Q161.96562 73.958336 161.34062 73.677086Q160.73125 73.38021 160.37187 72.895836Q160.02812 72.395836 160.02812 71.81771L161.6375 71.81771Q161.65312 72.270836 161.96562 72.520836Q162.27812 72.75521 162.79375 72.75521Q163.29375 72.75521 163.52812 72.56771Q163.77812 72.38021 163.77812 72.083336ZM168.37187 65.927086L168.37187 67.489586L169.46562 67.489586L169.46562 68.739586L168.37187 68.739586L168.37187 71.895836Q168.37187 72.25521 168.5125 72.41146Q168.65312 72.552086 169.02812 72.552086Q169.30937 72.552086 169.52812 72.520836L169.52812 73.802086Q169.02812 73.958336 168.49687 73.958336Q166.71562 73.958336 166.68437 72.145836L166.68437 68.739586L165.7625 68.739586L165.7625 67.489586L166.68437 67.489586L166.68437 65.927086L168.37187 65.927086ZM173.77812 72.083336Q173.77812 71.770836 173.46562 71.59896Q173.16875 71.41146 172.49687 71.270836Q170.23125 70.802086 170.23125 69.34896Q170.23125 68.50521 170.91875 67.94271Q171.62187 67.38021 172.7625 67.38021Q173.96562 67.38021 174.68437 67.94271Q175.41875 68.50521 175.41875 69.427086L173.71562 69.427086Q173.71562 69.052086 173.48125 68.81771Q173.24687 68.583336 172.74687 68.583336Q172.325 68.583336 172.09062 68.78646Q171.85625 68.97396 171.85625 69.270836Q171.85625 69.552086 172.12187 69.72396Q172.3875 69.895836 173.0125 70.020836Q173.65312 70.145836 174.09062 70.302086Q175.43437 70.802086 175.43437 72.00521Q175.43437 72.88021 174.68437 73.427086Q173.95 73.958336 172.7625 73.958336Q171.96562 73.958336 171.34062 73.677086Q170.73125 73.38021 170.37187 72.895836Q170.02812 72.395836 170.02812 71.81771L171.6375 71.81771Q171.65312 72.270836 171.96562 72.520836Q172.27812 72.75521 172.79375 72.75521Q173.29375 72.75521 173.52812 72.56771Q173.77812 72.38021 173.77812 72.083336Z" fill-rule="nonzero"/><path fill="#9e9e9e" d="M29.121876 91.833336L23.278126 91.833336L23.278126 90.677086L26.04375 87.72396Q26.60625 87.114586 26.871876 86.645836Q27.153126 86.177086 27.153126 85.770836Q27.153126 85.19271 26.85625 84.88021Q26.575 84.552086 26.04375 84.552086Q25.465626 84.552086 25.1375 84.94271Q24.809376 85.333336 24.809376 85.989586L23.10625 85.989586Q23.10625 85.208336 23.48125 84.56771Q23.85625 83.91146 24.528126 83.552086Q25.215626 83.177086 26.075 83.177086Q27.3875 83.177086 28.121876 83.81771Q28.85625 84.44271 28.85625 85.59896Q28.85625 86.239586 28.528126 86.895836Q28.2 87.552086 27.403126 88.427086L25.465626 90.47396L29.121876 90.47396L29.121876 91.833336ZM30.79375 93.97396L29.903126 93.50521L30.121876 93.13021Q30.5125 92.41146 30.528126 91.708336L30.528126 90.395836L31.95 90.395836L31.95 91.56771Q31.934376 92.208336 31.60625 92.864586Q31.29375 93.53646 30.79375 93.97396ZM39.075 84.25521L35.778126 91.833336L33.996876 91.833336L37.29375 84.677086L33.059376 84.677086L33.059376 83.302086L39.075 83.302086L39.075 84.25521ZM40.2625 84.94271Q40.2625 84.16146 40.7625 83.677086Q41.278126 83.177086 42.10625 83.177086Q42.934376 83.177086 43.45 83.66146Q43.965626 84.145836 43.965626 84.97396L43.965626 85.395836Q43.965626 86.177086 43.45 86.66146Q42.934376 87.145836 42.121876 87.145836Q41.278126 87.145836 40.7625 86.66146Q40.2625 86.177086 40.2625 85.364586L40.2625 84.94271ZM41.3875 85.395836Q41.3875 85.739586 41.590626 85.958336Q41.79375 86.177086 42.121876 86.177086Q42.45 86.177086 42.6375 85.958336Q42.825 85.739586 42.825 85.38021L42.825 84.94271Q42.825 84.583336 42.6375 84.38021Q42.45 84.16146 42.10625 84.16146Q41.778126 84.16146 41.575 84.38021Q41.3875 84.583336 41.3875 84.958336L41.3875 85.395836ZM44.340626 89.739586Q44.340626 88.94271 44.85625 88.47396Q45.371876 87.989586 46.184376 87.989586Q47.0125 87.989586 47.528126 88.47396Q48.04375 88.94271 48.04375 89.770836L48.04375 90.19271Q48.04375 90.989586 47.54375 91.47396Q47.04375 91.958336 46.2 91.958336Q45.35625 91.958336 44.840626 91.47396Q44.340626 90.97396 44.340626 90.177086L44.340626 89.739586ZM45.465626 90.19271Q45.465626 90.520836 45.66875 90.75521Q45.8875 90.97396 46.2 90.97396Q46.91875 90.97396 46.91875 90.19271L46.91875 89.739586Q46.91875 89.395836 46.715626 89.177086Q46.5125 88.958336 46.184376 88.958336Q45.85625 88.958336 45.653126 89.177086Q45.465626 89.395836 45.465626 89.75521L45.465626 90.19271ZM42.45 91.19271L41.621876 90.75521L45.79375 84.083336L46.621876 84.520836L42.45 91.19271Z" fill-rule="nonzero"/><path stroke="#757575" stroke-width="1.0" stroke-linecap="butt" d="M22.7 78.333336L179.26666 78.333336L355.0766 71.70566" fill-rule="nonzero"/><path fill="#9e9e9e" d="M357.0766 71.70566C357.0766 70.60109 356.18118 69.70566 355.0766 69.70566C353.97205 69.70566 353.0766 70.60109 353.0766 71.70566C353.0766 72.81023 353.97205 73.70566 355.0766 73.70566C356.18118 73.70566 357.0766 72.81023 357.0766 71.70566" fill-rule="nonzero"/><path fill="#1a1a1a" d="M30.403126 106.833336L28.653126 106.833336L28.653126 103.177086L25.215626 103.177086L25.215626 106.833336L23.465626 106.833336L23.465626 98.302086L25.215626 98.302086L25.215626 101.75521L28.653126 101.75521L28.653126 98.302086L30.403126 98.302086L30.403126 106.833336ZM34.621876 103.708336L33.215626 103.708336L33.215626 106.833336L31.465626 106.833336L31.465626 98.302086L34.6375 98.302086Q36.1375 98.302086 36.95 98.97396Q37.778126 99.645836 37.778126 100.88021Q37.778126 101.75521 37.403126 102.333336Q37.028126 102.91146 36.2625 103.270836L38.10625 106.75521L38.10625 106.833336L36.215626 106.833336L34.621876 103.708336ZM33.215626 102.28646L34.6375 102.28646Q35.29375 102.28646 35.653126 101.958336Q36.028126 101.614586 36.028126 101.020836Q36.028126 100.41146 35.684376 100.06771Q35.340626 99.72396 34.6375 99.72396L33.215626 99.72396L33.215626 102.28646ZM45.778126 105.083336Q45.778126 104.770836 45.465626 104.59896Q45.16875 104.41146 44.496876 104.270836Q42.23125 103.802086 42.23125 102.34896Q42.23125 101.50521 42.91875 100.94271Q43.621876 100.38021 44.7625 100.38021Q45.965626 100.38021 46.684376 100.94271Q47.41875 101.50521 47.41875 102.427086L45.715626 102.427086Q45.715626 102.052086 45.48125 101.81771Q45.246876 101.583336 44.746876 101.583336Q44.325 101.583336 44.090626 101.78646Q43.85625 101.97396 43.85625 102.270836Q43.85625 102.552086 44.121876 102.72396Q44.3875 102.895836 45.0125 103.020836Q45.653126 103.145836 46.090626 103.302086Q47.434376 103.802086 47.434376 105.00521Q47.434376 105.88021 46.684376 106.427086Q45.95 106.958336 44.7625 106.958336Q43.965626 106.958336 43.340626 106.677086Q42.73125 106.38021 42.371876 105.895836Q42.028126 105.395836 42.028126 104.81771L43.6375 104.81771Q43.653126 105.270836 43.965626 105.520836Q44.278126 105.75521 44.79375 105.75521Q45.29375 105.75521 45.528126 105.56771Q45.778126 105.38021 45.778126 105.083336ZM51.2625 106.958336Q49.871876 106.958336 48.996876 106.09896Q48.121876 105.239586 48.121876 103.81771L48.121876 103.645836Q48.121876 102.69271 48.48125 101.94271Q48.85625 101.19271 49.528126 100.78646Q50.215626 100.38021 51.075 100.38021Q52.3875 100.38021 53.121876 101.208336Q53.871876 102.020836 53.871876 103.520836L53.871876 104.208336L49.840626 104.208336Q49.91875 104.833336 50.325 105.208336Q50.746876 105.583336 51.3875 105.583336Q52.35625 105.583336 52.903126 104.88021L53.746876 105.802086Q53.35625 106.34896 52.7 106.66146Q52.059376 106.958336 51.2625 106.958336ZM51.075 101.739586Q50.575 101.739586 50.2625 102.083336Q49.95 102.427086 49.85625 103.052086L52.215626 103.052086L52.215626 102.927086Q52.2 102.364586 51.903126 102.052086Q51.621876 101.739586 51.075 101.739586ZM57.91875 102.083336Q57.575 102.03646 57.309376 102.03646Q56.340626 102.03646 56.04375 102.677086L56.04375 106.833336L54.35625 106.833336L54.35625 100.489586L55.95 100.489586L55.996876 101.25521Q56.5125 100.38021 57.403126 100.38021Q57.684376 100.38021 57.934376 100.458336L57.91875 102.083336ZM60.73125 104.770836L61.903126 100.489586L63.66875 100.489586L61.528126 106.833336L59.91875 106.833336L57.778126 100.489586L59.54375 100.489586L60.73125 104.770836ZM66.1375 106.833336L64.43437 106.833336L64.43437 100.489586L66.1375 100.489586L66.1375 106.833336ZM64.34062 98.84896Q64.34062 98.47396 64.59062 98.22396Q64.85625 97.97396 65.29375 97.97396Q65.71562 97.97396 65.96562 98.22396Q66.23125 98.47396 66.23125 98.84896Q66.23125 99.239586 65.96562 99.489586Q65.71562 99.72396 65.27812 99.72396Q64.85625 99.72396 64.59062 99.489586Q64.34062 99.239586 64.34062 98.84896ZM69.98125 105.583336Q70.45 105.583336 70.74687 105.333336Q71.04375 105.06771 71.05937 104.645836L72.6375 104.645836Q72.6375 105.28646 72.29375 105.833336Q71.95 106.364586 71.34062 106.66146Q70.74687 106.958336 70.0125 106.958336Q68.65312 106.958336 67.87187 106.09896Q67.09062 105.22396 67.09062 103.69271L67.09062 103.583336Q67.09062 102.114586 67.87187 101.25521Q68.65312 100.38021 70.0125 100.38021Q71.2 100.38021 71.91875 101.052086Q72.6375 101.72396 72.6375 102.84896L71.05937 102.84896Q71.04375 102.364586 70.74687 102.052086Q70.45 101.739586 69.98125 101.739586Q69.3875 101.739586 69.075 102.177086Q68.77812 102.614586 68.77812 103.56771L68.77812 103.75521Q68.77812 104.72396 69.075 105.16146Q69.37187 105.583336 69.98125 105.583336ZM76.2625 106.958336Q74.87187 106.958336 73.99687 106.09896Q73.12187 105.239586 73.12187 103.81771L73.12187 103.645836Q73.12187 102.69271 73.48125 101.94271Q73.85625 101.19271 74.52812 100.78646Q75.21562 100.38021 76.075 100.38021Q77.3875 100.38021 78.12187 101.208336Q78.87187 102.020836 78.87187 103.520836L78.87187 104.208336L74.84062 104.208336Q74.91875 104.833336 75.325 105.208336Q75.74687 105.583336 76.3875 105.583336Q77.35625 105.583336 77.90312 104.88021L78.74687 105.802086Q78.35625 106.34896 77.7 106.66146Q77.05937 106.958336 76.2625 106.958336ZM76.075 101.739586Q75.575 101.739586 75.2625 102.083336Q74.95 102.427086 74.85625 103.052086L77.21562 103.052086L77.21562 102.927086Q77.2 102.364586 76.90312 102.052086Q76.62187 101.739586 76.075 101.739586ZM82.77812 105.083336Q82.77812 104.770836 82.46562 104.59896Q82.16875 104.41146 81.49687 104.270836Q79.23125 103.802086 79.23125 102.34896Q79.23125 101.50521 79.91875 100.94271Q80.62187 100.38021 81.7625 100.38021Q82.96562 100.38021 83.68437 100.94271Q84.41875 101.50521 84.41875 102.427086L82.71562 102.427086Q82.71562 102.052086 82.48125 101.81771Q82.24687 101.583336 81.74687 101.583336Q81.325 101.583336 81.09062 101.78646Q80.85625 101.97396 80.85625 102.270836Q80.85625 102.552086 81.12187 102.72396Q81.3875 102.895836 82.0125 103.020836Q82.65312 103.145836 83.09062 103.302086Q84.43437 103.802086 84.43437 105.00521Q84.43437 105.88021 83.68437 106.427086Q82.95 106.958336 81.7625 106.958336Q80.96562 106.958336 80.34062 106.677086Q79.73125 106.38021 79.37187 105.895836Q79.02812 105.395836 79.02812 104.81771L80.6375 104.81771Q80.65312 105.270836 80.96562 105.520836Q81.27812 105.75521 81.79375 105.75521Q82.29375 105.75521 82.52812 105.56771Q82.77812 105.38021 82.77812 105.083336Z" fill-rule="nonzero"/><path fill="#9e9e9e" d="M29.121876 124.833336L23.278126 124.833336L23.278126 123.677086L26.04375 120.72396Q26.60625 120.114586 26.871876 119.645836Q27.153126 119.177086 27.153126 118.770836Q27.153126 118.19271 26.85625 117.88021Q26.575 117.552086 26.04375 117.552086Q25.465626 117.552086 25.1375 117.94271Q24.809376 118.333336 24.809376 118.989586L23.10625 118.989586Q23.10625 118.208336 23.48125 117.56771Q23.85625 116.91146 24.528126 116.552086Q25.215626 116.177086 26.075 116.177086Q27.3875 116.177086 28.121876 116.81771Q28.85625 117.44271 28.85625 118.59896Q28.85625 119.239586 28.528126 119.895836Q28.2 120.552086 27.403126 121.427086L25.465626 123.47396L29.121876 123.47396L29.121876 124.833336ZM30.79375 126.97396L29.903126 126.50521L30.121876 126.13021Q30.5125 125.41146 30.528126 124.708336L30.528126 123.395836L31.95 123.395836L31.95 124.56771Q31.934376 125.208336 31.60625 125.864586Q31.29375 126.53646 30.79375 126.97396ZM37.871876 116.208336L37.871876 117.614586L37.715626 117.614586Q36.559376 117.63021 35.85625 118.208336Q35.16875 118.78646 35.028126 119.81771Q35.7 119.13021 36.73125 119.13021Q37.85625 119.13021 38.5125 119.927086Q39.16875 120.72396 39.16875 122.020836Q39.16875 122.84896 38.809376 123.520836Q38.45 124.19271 37.778126 124.583336Q37.121876 124.958336 36.29375 124.958336Q34.95 124.958336 34.121876 124.020836Q33.29375 123.06771 33.29375 121.50521L33.29375 120.895836Q33.29375 119.50521 33.809376 118.44271Q34.340626 117.38021 35.309376 116.802086Q36.29375 116.22396 37.590626 116.208336L37.871876 116.208336ZM36.215626 120.489586Q35.809376 120.489586 35.465626 120.708336Q35.1375 120.91146 34.98125 121.270836L34.98125 121.78646Q34.98125 122.63021 35.309376 123.114586Q35.653126 123.583336 36.2625 123.583336Q36.809376 123.583336 37.1375 123.16146Q37.48125 122.72396 37.48125 122.03646Q37.48125 121.333336 37.1375 120.91146Q36.79375 120.489586 36.215626 120.489586ZM40.2625 117.94271Q40.2625 117.16146 40.7625 116.677086Q41.278126 116.177086 42.10625 116.177086Q42.934376 116.177086 43.45 116.66146Q43.965626 117.145836 43.965626 117.97396L43.965626 118.395836Q43.965626 119.177086 43.45 119.66146Q42.934376 120.145836 42.121876 120.145836Q41.278126 120.145836 40.7625 119.66146Q40.2625 119.177086 40.2625 118.364586L40.2625 117.94271ZM41.3875 118.395836Q41.3875 118.739586 41.590626 118.958336Q41.79375 119.177086 42.121876 119.177086Q42.45 119.177086 42.6375 118.958336Q42.825 118.739586 42.825 118.38021L42.825 117.94271Q42.825 117.583336 42.6375 117.38021Q42.45 117.16146 42.10625 117.16146Q41.778126 117.16146 41.575 117.38021Q41.3875 117.583336 41.3875 117.958336L41.3875 118.395836ZM44.340626 122.739586Q44.340626 121.94271 44.85625 121.47396Q45.371876 120.989586 46.184376 120.989586Q47.0125 120.989586 47.528126 121.47396Q48.04375 121.94271 48.04375 122.770836L48.04375 123.19271Q48.04375 123.989586 47.54375 124.47396Q47.04375 124.958336 46.2 124.958336Q45.35625 124.958336 44.840626 124.47396Q44.340626 123.97396 44.340626 123.177086L44.340626 122.739586ZM45.465626 123.19271Q45.465626 123.520836 45.66875 123.75521Q45.8875 123.97396 46.2 123.97396Q46.91875 123.97396 46.91875 123.19271L46.91875 122.739586Q46.91875 122.395836 46.715626 122.177086Q46.5125 121.958336 46.184376 121.958336Q45.85625 121.958336 45.653126 122.177086Q45.465626 122.395836 45.465626 122.75521L45.465626 123.19271ZM42.45 124.19271L41.621876 123.75521L45.79375 117.083336L46.621876 117.520836L42.45 124.19271Z" fill-rule="nonzero"/><path stroke="#757575" stroke-width="1.0" stroke-linecap="butt" d="M22.7 111.333336L179.26666 111.333336L326.02298 76.66934" fill-rule="nonzero"/><path fill="#9e9e9e" d="M328.02298 76.66934C328.02298 75.56477 327.12756 74.66934 326.02298 74.66934C324.91843 74.66934 324.02298 75.56477 324.02298 76.66934C324.02298 77.77391 324.91843 78.66934 326.02298 78.66934C327.12756 78.66934 328.02298 77.77391 328.02298 76.66934" fill-rule="nonzero"/><path fill="#1a1a1a" d="M25.215626 136.83333L25.215626 139.83333L23.465626 139.83333L23.465626 131.30208L26.79375 131.30208Q27.746876 131.30208 28.48125 131.66145Q29.215626 132.0052 29.60625 132.66145Q29.996876 133.30208 29.996876 134.1302Q29.996876 135.3802 29.1375 136.11458Q28.278126 136.83333 26.7625 136.83333L25.215626 136.83333ZM25.215626 135.39583L26.79375 135.39583Q27.48125 135.39583 27.840626 135.0677Q28.215626 134.73958 28.215626 134.1302Q28.215626 133.5052 27.840626 133.1302Q27.48125 132.73958 26.825 132.72395L25.215626 132.72395L25.215626 135.39583ZM35.153126 139.1927Q34.528126 139.95833 33.41875 139.95833Q32.3875 139.95833 31.85625 139.36458Q31.325 138.77083 31.309376 137.64583L31.309376 133.48958L32.996876 133.48958L32.996876 137.58333Q32.996876 138.58333 33.903126 138.58333Q34.7625 138.58333 35.090626 137.97395L35.090626 133.48958L36.79375 133.48958L36.79375 139.83333L35.2 139.83333L35.153126 139.1927ZM44.059376 136.72395Q44.059376 138.23958 43.403126 139.09895Q42.7625 139.95833 41.590626 139.95833Q40.559376 139.95833 39.95 139.16145L39.871876 139.83333L38.35625 139.83333L38.35625 130.83333L40.04375 130.83333L40.04375 134.0677Q40.6375 133.3802 41.590626 133.3802Q42.746876 133.3802 43.403126 134.23958Q44.059376 135.08333 44.059376 136.6302L44.059376 136.72395ZM42.371876 136.59895Q42.371876 135.6302 42.059376 135.1927Q41.7625 134.7552 41.153126 134.7552Q40.35625 134.7552 40.04375 135.41145L40.04375 137.91145Q40.35625 138.58333 41.16875 138.58333Q41.996876 138.58333 42.246876 137.77083Q42.371876 137.39583 42.371876 136.59895ZM47.1375 139.83333L45.434376 139.83333L45.434376 130.83333L47.1375 130.83333L47.1375 139.83333ZM50.1375 139.83333L48.434376 139.83333L48.434376 133.48958L50.1375 133.48958L50.1375 139.83333ZM48.340626 131.84895Q48.340626 131.47395 48.590626 131.22395Q48.85625 130.97395 49.29375 130.97395Q49.715626 130.97395 49.965626 131.22395Q50.23125 131.47395 50.23125 131.84895Q50.23125 132.23958 49.965626 132.48958Q49.715626 132.72395 49.278126 132.72395Q48.85625 132.72395 48.590626 132.48958Q48.340626 132.23958 48.340626 131.84895ZM53.98125 138.58333Q54.45 138.58333 54.746876 138.33333Q55.04375 138.0677 55.059376 137.64583L56.6375 137.64583Q56.6375 138.28645 56.29375 138.83333Q55.95 139.36458 55.340626 139.66145Q54.746876 139.95833 54.0125 139.95833Q52.653126 139.95833 51.871876 139.09895Q51.090626 138.22395 51.090626 136.6927L51.090626 136.58333Q51.090626 135.11458 51.871876 134.2552Q52.653126 133.3802 54.0125 133.3802Q55.2 133.3802 55.91875 134.05208Q56.6375 134.72395 56.6375 135.84895L55.059376 135.84895Q55.04375 135.36458 54.746876 135.05208Q54.45 134.73958 53.98125 134.73958Q53.3875 134.73958 53.075 135.17708Q52.778126 135.61458 52.778126 136.5677L52.778126 136.7552Q52.778126 137.72395 53.075 138.16145Q53.371876 138.58333 53.98125 138.58333ZM59.1375 139.83333L57.434376 139.83333L57.434376 133.48958L59.1375 133.48958L59.1375 139.83333ZM57.340626 131.84895Q57.340626 131.47395 57.590626 131.22395Q57.85625 130.97395 58.29375 130.97395Q58.715626 130.97395 58.965626 131.22395Q59.23125 131.47395 59.23125 131.84895Q59.23125 132.23958 58.965626 132.48958Q58.715626 132.72395 58.278126 132.72395Q57.85625 132.72395 57.590626 132.48958Q57.340626 132.23958 57.340626 131.84895ZM62.371876 131.92708L62.371876 133.48958L63.465626 133.48958L63.465626 134.73958L62.371876 134.73958L62.371876 137.89583Q62.371876 138.2552 62.5125 138.41145Q62.653126 138.55208 63.028126 138.55208Q63.309376 138.55208 63.528126 138.52083L63.528126 139.80208Q63.028126 139.95833 62.496876 139.95833Q60.715626 139.95833 60.684376 138.14583L60.684376 134.73958L59.7625 134.73958L59.7625 133.48958L60.684376 133.48958L60.684376 131.92708L62.371876 131.92708ZM66.71562 137.4427L67.8875 133.48958L69.7 133.48958L67.15312 140.8177L67.0125 141.14583Q66.45 142.39583 65.1375 142.39583Q64.77812 142.39583 64.3875 142.28645L64.3875 141.0052L64.65312 141.0052Q65.1375 141.0052 65.37187 140.84895Q65.60625 140.70833 65.74687 140.3802L65.93437 139.84895L63.715626 133.48958L65.54375 133.48958L66.71562 137.4427ZM73.12187 137.53645Q73.12187 136.9427 73.45 136.4427Q73.77812 135.9427 74.66875 135.3177Q74.27812 134.8177 74.05937 134.36458Q73.85625 133.91145 73.85625 133.42708Q73.85625 132.42708 74.48125 131.80208Q75.10625 131.17708 76.16875 131.17708Q77.1375 131.17708 77.74687 131.7552Q78.35625 132.3177 78.35625 133.17708Q78.35625 134.1927 77.325 134.97395L76.66875 135.4427L78.1375 137.16145Q78.48125 136.47395 78.48125 135.66145L79.91875 135.66145Q79.91875 137.3177 79.15312 138.34895L80.43437 139.83333L78.5125 139.83333L78.075 139.33333Q77.1375 139.95833 75.90312 139.95833Q74.6375 139.95833 73.87187 139.28645Q73.12187 138.61458 73.12187 137.53645ZM75.98125 138.58333Q76.59062 138.58333 77.1375 138.2552L75.46562 136.30208L75.34062 136.39583Q74.80937 136.83333 74.80937 137.4427Q74.80937 137.95833 75.1375 138.27083Q75.46562 138.58333 75.98125 138.58333ZM75.37187 133.41145Q75.37187 133.84895 75.8875 134.5052L76.34062 134.20833Q76.68437 133.98958 76.80937 133.78645Q76.95 133.5677 76.95 133.28645Q76.95 132.98958 76.73125 132.77083Q76.5125 132.55208 76.16875 132.55208Q75.80937 132.55208 75.59062 132.78645Q75.37187 133.02083 75.37187 133.41145ZM90.91875 131.30208L90.91875 136.92708Q90.91875 138.3177 90.04375 139.14583Q89.16875 139.95833 87.65312 139.95833Q86.15312 139.95833 85.27812 139.16145Q84.40312 138.36458 84.3875 136.98958L84.3875 131.30208L86.1375 131.30208L86.1375 136.92708Q86.1375 137.77083 86.52812 138.16145Q86.93437 138.53645 87.65312 138.53645Q89.1375 138.53645 89.15312 136.97395L89.15312 131.30208L90.91875 131.30208ZM97.27812 138.0677L94.2 138.0677L93.60625 139.83333L91.74687 139.83333L94.91875 131.30208L96.54375 131.30208L99.74687 139.83333L97.87187 139.83333L97.27812 138.0677ZM94.66875 136.64583L96.80937 136.64583L95.73125 133.45833L94.66875 136.64583Z" fill-rule="nonzero"/><path fill="#9e9e9e" d="M27.3875 157.83333L25.7 157.83333L25.7 151.30208L23.684376 151.92708L23.684376 150.55208L27.215626 149.28645L27.3875 149.28645L27.3875 157.83333ZM34.3875 157.83333L32.7 157.83333L32.7 151.30208L30.684376 151.92708L30.684376 150.55208L34.215626 149.28645L34.3875 149.28645L34.3875 157.83333ZM37.79375 159.97395L36.903126 159.5052L37.121876 159.1302Q37.5125 158.41145 37.528126 157.70833L37.528126 156.39583L38.95 156.39583L38.95 157.5677Q38.934376 158.20833 38.60625 158.86458Q38.29375 159.53645 37.79375 159.97395ZM40.528126 153.6302L41.028126 149.30208L45.809376 149.30208L45.809376 150.70833L42.41875 150.70833L42.2 152.55208Q42.809376 152.22395 43.48125 152.22395Q44.7 152.22395 45.3875 152.98958Q46.090626 153.73958 46.090626 155.09895Q46.090626 155.92708 45.73125 156.58333Q45.3875 157.22395 44.73125 157.59895Q44.090626 157.95833 43.2 157.95833Q42.434376 157.95833 41.7625 157.64583Q41.10625 157.3177 40.715626 156.7552Q40.340626 156.1927 40.309376 155.45833L41.996876 155.45833Q42.04375 155.98958 42.35625 156.28645Q42.684376 156.58333 43.2 156.58333Q43.778126 156.58333 44.075 156.17708Q44.3875 155.7552 44.3875 155.0052Q44.3875 154.27083 44.028126 153.89583Q43.684376 153.5052 43.028126 153.5052Q42.41875 153.5052 42.04375 153.8177L41.8875 153.97395L40.528126 153.6302ZM47.2625 150.9427Q47.2625 150.16145 47.7625 149.67708Q48.278126 149.17708 49.10625 149.17708Q49.934376 149.17708 50.45 149.66145Q50.965626 150.14583 50.965626 150.97395L50.965626 151.39583Q50.965626 152.17708 50.45 152.66145Q49.934376 153.14583 49.121876 153.14583Q48.278126 153.14583 47.7625 152.66145Q47.2625 152.17708 47.2625 151.36458L47.2625 150.9427ZM48.3875 151.39583Q48.3875 151.73958 48.590626 151.95833Q48.79375 152.17708 49.121876 152.17708Q49.45 152.17708 49.6375 151.95833Q49.825 151.73958 49.825 151.3802L49.825 150.9427Q49.825 150.58333 49.6375 150.3802Q49.45 150.16145 49.10625 150.16145Q48.778126 150.16145 48.575 150.3802Q48.3875 150.58333 48.3875 150.95833L48.3875 151.39583ZM51.340626 155.73958Q51.340626 154.9427 51.85625 154.47395Q52.371876 153.98958 53.184376 153.98958Q54.0125 153.98958 54.528126 154.47395Q55.04375 154.9427 55.04375 155.77083L55.04375 156.1927Q55.04375 156.98958 54.54375 157.47395Q54.04375 157.95833 53.2 157.95833Q52.35625 157.95833 51.840626 157.47395Q51.340626 156.97395 51.340626 156.17708L51.340626 155.73958ZM52.465626 156.1927Q52.465626 156.52083 52.66875 156.7552Q52.8875 156.97395 53.2 156.97395Q53.91875 156.97395 53.91875 156.1927L53.91875 155.73958Q53.91875 155.39583 53.715626 155.17708Q53.5125 154.95833 53.184376 154.95833Q52.85625 154.95833 52.653126 155.17708Q52.465626 155.39583 52.465626 155.7552L52.465626 156.1927ZM49.45 157.1927L48.621876 156.7552L52.79375 150.08333L53.621876 150.52083L49.45 157.1927Z" fill-rule="nonzero"/><path stroke="#757575" stroke-width="1.0" stroke-linecap="butt" d="M22.7 144.33333L179.26666 144.33333L257.19293 112.12842" fill-rule="nonzero"/><path fill="#9e9e9e" d="M259.19293 112.12842C259.19293 111.02385 258.2975 110.12842 257.19293 110.12842C256.08835 110.12842 255.19292 111.02385 255.19292 112.12842C255.19292 113.23299 256.08835 114.12842 257.19293 114.12842C258.2975 114.12842 259.19293 113.23299 259.19293 112.12842" fill-rule="nonzero"/><path fill="#1a1a1a" d="M25.7625 173.51202L27.95 179.69952L30.1375 173.51202L32.434376 173.51202L32.434376 182.04327L30.66875 182.04327L30.66875 179.71515L30.85625 175.6839L28.54375 182.04327L27.340626 182.04327L25.04375 175.6839L25.215626 179.71515L25.215626 182.04327L23.465626 182.04327L23.465626 173.51202L25.7625 173.51202ZM38.028126 182.04327Q37.903126 181.8089 37.85625 181.48077Q37.246876 182.16827 36.2625 182.16827Q35.325 182.16827 34.715626 181.6214Q34.10625 181.07452 34.10625 180.26202Q34.10625 179.2464 34.840626 178.71515Q35.590626 178.16827 37.0125 178.16827L37.778126 178.16827L37.778126 177.8089Q37.778126 177.3714 37.559376 177.10577Q37.340626 176.84015 36.840626 176.84015Q36.41875 176.84015 36.16875 177.04327Q35.934376 177.2464 35.934376 177.60577L34.246876 177.60577Q34.246876 177.0589 34.575 176.59015Q34.91875 176.1214 35.54375 175.85577Q36.16875 175.59015 36.934376 175.59015Q38.10625 175.59015 38.79375 176.1839Q39.48125 176.76202 39.48125 177.82452L39.48125 180.57452Q39.496876 181.48077 39.73125 181.94952L39.73125 182.04327L38.028126 182.04327ZM36.621876 180.8714Q36.996876 180.8714 37.309376 180.69952Q37.6375 180.52765 37.778126 180.2464L37.778126 179.15265L37.153126 179.15265Q35.8875 179.15265 35.79375 180.04327L35.79375 180.13702Q35.79375 180.44952 36.0125 180.66827Q36.23125 180.8714 36.621876 180.8714ZM43.91875 177.29327Q43.575 177.2464 43.309376 177.2464Q42.340626 177.2464 42.04375 177.88702L42.04375 182.04327L40.35625 182.04327L40.35625 175.69952L41.95 175.69952L41.996876 176.46515Q42.5125 175.59015 43.403126 175.59015Q43.684376 175.59015 43.934376 175.66827L43.91875 177.29327ZM46.653126 179.4964L46.04375 180.10577L46.04375 182.04327L44.35625 182.04327L44.35625 173.04327L46.04375 173.04327L46.04375 178.02765L46.371876 177.60577L47.996876 175.69952L50.028126 175.69952L47.73125 178.34015L50.23125 182.04327L48.278126 182.04327L46.653126 179.4964ZM53.2625 182.16827Q51.871876 182.16827 50.996876 181.3089Q50.121876 180.44952 50.121876 179.02765L50.121876 178.85577Q50.121876 177.90265 50.48125 177.15265Q50.85625 176.40265 51.528126 175.9964Q52.215626 175.59015 53.075 175.59015Q54.3875 175.59015 55.121876 176.41827Q55.871876 177.23077 55.871876 178.73077L55.871876 179.41827L51.840626 179.41827Q51.91875 180.04327 52.325 180.41827Q52.746876 180.79327 53.3875 180.79327Q54.35625 180.79327 54.903126 180.09015L55.746876 181.01202Q55.35625 181.5589 54.7 181.8714Q54.059376 182.16827 53.2625 182.16827ZM53.075 176.94952Q52.575 176.94952 52.2625 177.29327Q51.95 177.63702 51.85625 178.26202L54.215626 178.26202L54.215626 178.13702Q54.2 177.57452 53.903126 177.26202Q53.621876 176.94952 53.075 176.94952ZM58.371876 174.13702L58.371876 175.69952L59.465626 175.69952L59.465626 176.94952L58.371876 176.94952L58.371876 180.10577Q58.371876 180.46515 58.5125 180.6214Q58.653126 180.76202 59.028126 180.76202Q59.309376 180.76202 59.528126 180.73077L59.528126 182.01202Q59.028126 182.16827 58.496876 182.16827Q56.715626 182.16827 56.684376 180.35577L56.684376 176.94952L55.7625 176.94952L55.7625 175.69952L56.684376 175.69952L56.684376 174.13702L58.371876 174.13702ZM66.91875 177.29327Q66.575 177.2464 66.30937 177.2464Q65.34062 177.2464 65.04375 177.88702L65.04375 182.04327L63.35625 182.04327L63.35625 175.69952L64.95 175.69952L64.99687 176.46515Q65.5125 175.59015 66.40312 175.59015Q66.68437 175.59015 66.93437 175.66827L66.91875 177.29327ZM70.2625 182.16827Q68.87187 182.16827 67.99687 181.3089Q67.12187 180.44952 67.12187 179.02765L67.12187 178.85577Q67.12187 177.90265 67.48125 177.15265Q67.85625 176.40265 68.52812 175.9964Q69.21562 175.59015 70.075 175.59015Q71.3875 175.59015 72.12187 176.41827Q72.87187 177.23077 72.87187 178.73077L72.87187 179.41827L68.84062 179.41827Q68.91875 180.04327 69.325 180.41827Q69.74687 180.79327 70.3875 180.79327Q71.35625 180.79327 71.90312 180.09015L72.74687 181.01202Q72.35625 181.5589 71.7 181.8714Q71.05937 182.16827 70.2625 182.16827ZM70.075 176.94952Q69.575 176.94952 69.2625 177.29327Q68.95 177.63702 68.85625 178.26202L71.21562 178.26202L71.21562 178.13702Q71.2 177.57452 70.90312 177.26202Q70.62187 176.94952 70.075 176.94952ZM76.77812 180.29327Q76.77812 179.98077 76.46562 179.8089Q76.16875 179.6214 75.49687 179.48077Q73.23125 179.01202 73.23125 177.5589Q73.23125 176.71515 73.91875 176.15265Q74.62187 175.59015 75.7625 175.59015Q76.96562 175.59015 77.68437 176.15265Q78.41875 176.71515 78.41875 177.63702L76.71562 177.63702Q76.71562 177.26202 76.48125 177.02765Q76.24687 176.79327 75.74687 176.79327Q75.325 176.79327 75.09062 176.9964Q74.85625 177.1839 74.85625 177.48077Q74.85625 177.76202 75.12187 177.9339Q75.3875 178.10577 76.0125 178.23077Q76.65312 178.35577 77.09062 178.51202Q78.43437 179.01202 78.43437 180.21515Q78.43437 181.09015 77.68437 181.63702Q76.95 182.16827 75.7625 182.16827Q74.96562 182.16827 74.34062 181.88702Q73.73125 181.59015 73.37187 181.10577Q73.02812 180.60577 73.02812 180.02765L74.6375 180.02765Q74.65312 180.48077 74.96562 180.73077Q75.27812 180.96515 75.79375 180.96515Q76.29375 180.96515 76.52812 180.77765Q76.77812 180.59015 76.77812 180.29327ZM82.2625 182.16827Q80.87187 182.16827 79.99687 181.3089Q79.12187 180.44952 79.12187 179.02765L79.12187 178.85577Q79.12187 177.90265 79.48125 177.15265Q79.85625 176.40265 80.52812 175.9964Q81.21562 175.59015 82.075 175.59015Q83.3875 175.59015 84.12187 176.41827Q84.87187 177.23077 84.87187 178.73077L84.87187 179.41827L80.84062 179.41827Q80.91875 180.04327 81.325 180.41827Q81.74687 180.79327 82.3875 180.79327Q83.35625 180.79327 83.90312 180.09015L84.74687 181.01202Q84.35625 181.5589 83.7 181.8714Q83.05937 182.16827 82.2625 182.16827ZM82.075 176.94952Q81.575 176.94952 81.2625 177.29327Q80.95 177.63702 80.85625 178.26202L83.21562 178.26202L83.21562 178.13702Q83.2 177.57452 82.90312 177.26202Q82.62187 176.94952 82.075 176.94952ZM89.02812 182.04327Q88.90312 181.8089 88.85625 181.48077Q88.24687 182.16827 87.2625 182.16827Q86.325 182.16827 85.71562 181.6214Q85.10625 181.07452 85.10625 180.26202Q85.10625 179.2464 85.84062 178.71515Q86.59062 178.16827 88.0125 178.16827L88.77812 178.16827L88.77812 177.8089Q88.77812 177.3714 88.55937 177.10577Q88.34062 176.84015 87.84062 176.84015Q87.41875 176.84015 87.16875 177.04327Q86.93437 177.2464 86.93437 177.60577L85.24687 177.60577Q85.24687 177.0589 85.575 176.59015Q85.91875 176.1214 86.54375 175.85577Q87.16875 175.59015 87.93437 175.59015Q89.10625 175.59015 89.79375 176.1839Q90.48125 176.76202 90.48125 177.82452L90.48125 180.57452Q90.49687 181.48077 90.73125 181.94952L90.73125 182.04327L89.02812 182.04327ZM87.62187 180.8714Q87.99687 180.8714 88.30937 180.69952Q88.6375 180.52765 88.77812 180.2464L88.77812 179.15265L88.15312 179.15265Q86.8875 179.15265 86.79375 180.04327L86.79375 180.13702Q86.79375 180.44952 87.0125 180.66827Q87.23125 180.8714 87.62187 180.8714ZM94.91875 177.29327Q94.575 177.2464 94.30937 177.2464Q93.34062 177.2464 93.04375 177.88702L93.04375 182.04327L91.35625 182.04327L91.35625 175.69952L92.95 175.69952L92.99687 176.46515Q93.5125 175.59015 94.40312 175.59015Q94.68437 175.59015 94.93437 175.66827L94.91875 177.29327ZM97.98125 180.79327Q98.45 180.79327 98.74687 180.54327Q99.04375 180.27765 99.05937 179.85577L100.6375 179.85577Q100.6375 180.4964 100.29375 181.04327Q99.95 181.57452 99.34062 181.8714Q98.74687 182.16827 98.0125 182.16827Q96.65312 182.16827 95.87187 181.3089Q95.09062 180.4339 95.09062 178.90265L95.09062 178.79327Q95.09062 177.32452 95.87187 176.46515Q96.65312 175.59015 98.0125 175.59015Q99.2 175.59015 99.91875 176.26202Q100.6375 176.9339 100.6375 178.0589L99.05937 178.0589Q99.04375 177.57452 98.74687 177.26202Q98.45 176.94952 97.98125 176.94952Q97.3875 176.94952 97.075 177.38702Q96.77812 177.82452 96.77812 178.77765L96.77812 178.96515Q96.77812 179.9339 97.075 180.3714Q97.37187 180.79327 97.98125 180.79327ZM102.99687 176.38702Q103.68437 175.59015 104.7 175.59015Q106.7625 175.59015 106.79375 177.98077L106.79375 182.04327L105.09062 182.04327L105.09062 178.02765Q105.09062 177.48077 104.85625 177.23077Q104.62187 176.96515 104.075 176.96515Q103.34062 176.96515 102.99687 177.54327L102.99687 182.04327L101.30937 182.04327L101.30937 173.04327L102.99687 173.04327L102.99687 176.38702ZM111.2625 182.16827Q109.87187 182.16827 108.99687 181.3089Q108.12187 180.44952 108.12187 179.02765L108.12187 178.85577Q108.12187 177.90265 108.48125 177.15265Q108.85625 176.40265 109.52812 175.9964Q110.21562 175.59015 111.075 175.59015Q112.3875 175.59015 113.12187 176.41827Q113.87187 177.23077 113.87187 178.73077L113.87187 179.41827L109.84062 179.41827Q109.91875 180.04327 110.325 180.41827Q110.74687 180.79327 111.3875 180.79327Q112.35625 180.79327 112.90312 180.09015L113.74687 181.01202Q113.35625 181.5589 112.7 181.8714Q112.05937 182.16827 111.2625 182.16827ZM111.075 176.94952Q110.575 176.94952 110.2625 177.29327Q109.95 177.63702 109.85625 178.26202L112.21562 178.26202L112.21562 178.13702Q112.2 177.57452 111.90312 177.26202Q111.62187 176.94952 111.075 176.94952ZM117.77812 180.29327Q117.77812 179.98077 117.46562 179.8089Q117.16875 179.6214 116.49687 179.48077Q114.23125 179.01202 114.23125 177.5589Q114.23125 176.71515 114.91875 176.15265Q115.62187 175.59015 116.7625 175.59015Q117.96562 175.59015 118.68437 176.15265Q119.41875 176.71515 119.41875 177.63702L117.71562 177.63702Q117.71562 177.26202 117.48125 177.02765Q117.24687 176.79327 116.74687 176.79327Q116.325 176.79327 116.09062 176.9964Q115.85625 177.1839 115.85625 177.48077Q115.85625 177.76202 116.12187 177.9339Q116.3875 178.10577 117.0125 178.23077Q117.65312 178.35577 118.09062 178.51202Q119.43437 179.01202 119.43437 180.21515Q119.43437 181.09015 118.68437 181.63702Q117.95 182.16827 116.7625 182.16827Q115.96562 182.16827 115.34062 181.88702Q114.73125 181.59015 114.37187 181.10577Q114.02812 180.60577 114.02812 180.02765L115.6375 180.02765Q115.65312 180.48077 115.96562 180.73077Q116.27812 180.96515 116.79375 180.96515Q117.29375 180.96515 117.52812 180.77765Q117.77812 180.59015 117.77812 180.29327Z" fill-rule="nonzero"/><path fill="#9e9e9e" d="M23.528126 195.84015L24.028126 191.51202L28.809376 191.51202L28.809376 192.91827L25.41875 192.91827L25.2 194.76202Q25.809376 194.4339 26.48125 194.4339Q27.7 194.4339 28.3875 195.19952Q29.090626 195.94952 29.090626 197.3089Q29.090626 198.13702 28.73125 198.79327Q28.3875 199.4339 27.73125 199.8089Q27.090626 200.16827 26.2 200.16827Q25.434376 200.16827 24.7625 199.85577Q24.10625 199.52765 23.715626 198.96515Q23.340626 198.40265 23.309376 197.66827L24.996876 197.66827Q25.04375 198.19952 25.35625 198.4964Q25.684376 198.79327 26.2 198.79327Q26.778126 198.79327 27.075 198.38702Q27.3875 197.96515 27.3875 197.21515Q27.3875 196.48077 27.028126 196.10577Q26.684376 195.71515 26.028126 195.71515Q25.41875 195.71515 25.04375 196.02765L24.8875 196.1839L23.528126 195.84015ZM30.79375 202.1839L29.903126 201.71515L30.121876 201.34015Q30.5125 200.6214 30.528126 199.91827L30.528126 198.60577L31.95 198.60577L31.95 199.77765Q31.934376 200.41827 31.60625 201.07452Q31.29375 201.7464 30.79375 202.1839ZM37.3875 200.04327L35.7 200.04327L35.7 193.51202L33.684376 194.13702L33.684376 192.76202L37.215626 191.4964L37.3875 191.4964L37.3875 200.04327ZM40.2625 193.15265Q40.2625 192.3714 40.7625 191.88702Q41.278126 191.38702 42.10625 191.38702Q42.934376 191.38702 43.45 191.8714Q43.965626 192.35577 43.965626 193.1839L43.965626 193.60577Q43.965626 194.38702 43.45 194.8714Q42.934376 195.35577 42.121876 195.35577Q41.278126 195.35577 40.7625 194.8714Q40.2625 194.38702 40.2625 193.57452L40.2625 193.15265ZM41.3875 193.60577Q41.3875 193.94952 41.590626 194.16827Q41.79375 194.38702 42.121876 194.38702Q42.45 194.38702 42.6375 194.16827Q42.825 193.94952 42.825 193.59015L42.825 193.15265Q42.825 192.79327 42.6375 192.59015Q42.45 192.3714 42.10625 192.3714Q41.778126 192.3714 41.575 192.59015Q41.3875 192.79327 41.3875 193.16827L41.3875 193.60577ZM44.340626 197.94952Q44.340626 197.15265 44.85625 196.6839Q45.371876 196.19952 46.184376 196.19952Q47.0125 196.19952 47.528126 196.6839Q48.04375 197.15265 48.04375 197.98077L48.04375 198.40265Q48.04375 199.19952 47.54375 199.6839Q47.04375 200.16827 46.2 200.16827Q45.35625 200.16827 44.840626 199.6839Q44.340626 199.1839 44.340626 198.38702L44.340626 197.94952ZM45.465626 198.40265Q45.465626 198.73077 45.66875 198.96515Q45.8875 199.1839 46.2 199.1839Q46.91875 199.1839 46.91875 198.40265L46.91875 197.94952Q46.91875 197.60577 46.715626 197.38702Q46.5125 197.16827 46.184376 197.16827Q45.85625 197.16827 45.653126 197.38702Q45.465626 197.60577 45.465626 197.96515L45.465626 198.40265ZM42.45 199.40265L41.621876 198.96515L45.79375 192.29327L46.621876 192.73077L42.45 199.40265Z" fill-rule="nonzero"/><path stroke="#757575" stroke-width="1.0" stroke-linecap="butt" d="M22.7 186.54327L179.26666 186.54327L205.08708 186.54327" fill-rule="nonzero"/><path fill="#9e9e9e" d="M207.08708 186.54327C207.08708 185.4387 206.19165 184.54327 205.08708 184.54327C203.98251 184.54327 203.08708 185.4387 203.08708 186.54327C203.08708 187.64784 203.98251 188.54327 205.08708 188.54327C206.19165 188.54327 207.08708 187.64784 207.08708 186.54327" fill-rule="nonzero"/><path fill="#1a1a1a" d="M649.4875 374.9881Q649.4875 374.4881 649.1281 374.22247Q648.78436 373.95685 647.8625 373.65997Q646.95624 373.3631 646.425 373.06622Q644.97186 372.28497 644.97186 370.95685Q644.97186 370.26935 645.3625 369.72247Q645.7531 369.1756 646.47186 368.87872Q647.20624 368.56622 648.1125 368.56622Q649.03436 368.56622 649.7375 368.90997Q650.45624 369.2381 650.84686 369.84747Q651.2531 370.44122 651.2531 371.20685L649.4875 371.20685Q649.4875 370.62872 649.1125 370.3006Q648.7531 369.97247 648.08124 369.97247Q647.4406 369.97247 647.08124 370.25372Q646.72186 370.51935 646.72186 370.95685Q646.72186 371.37872 647.14374 371.65997Q647.5656 371.94122 648.3781 372.19122Q649.8781 372.64435 650.5656 373.31622Q651.2531 373.97247 651.2531 374.97247Q651.2531 376.08185 650.40936 376.72247Q649.58124 377.34747 648.15936 377.34747Q647.175 377.34747 646.3625 376.9881Q645.55 376.6131 645.1281 375.9881Q644.70624 375.3631 644.70624 374.53497L646.47186 374.53497Q646.47186 375.95685 648.15936 375.95685Q648.78436 375.95685 649.1281 375.70685Q649.4875 375.44122 649.4875 374.9881ZM655.6281 377.22247Q655.5031 376.9881 655.45624 376.65997Q654.84686 377.34747 653.8625 377.34747Q652.925 377.34747 652.3156 376.8006Q651.70624 376.25372 651.70624 375.44122Q651.70624 374.4256 652.4406 373.89435Q653.1906 373.34747 654.6125 373.34747L655.3781 373.34747L655.3781 372.9881Q655.3781 372.5506 655.15936 372.28497Q654.9406 372.01935 654.4406 372.01935Q654.01874 372.01935 653.76874 372.22247Q653.53436 372.4256 653.53436 372.78497L651.84686 372.78497Q651.84686 372.2381 652.175 371.76935Q652.51874 371.3006 653.14374 371.03497Q653.76874 370.76935 654.53436 370.76935Q655.70624 370.76935 656.39374 371.3631Q657.08124 371.94122 657.08124 373.00372L657.08124 375.75372Q657.09686 376.65997 657.33124 377.12872L657.33124 377.22247L655.6281 377.22247ZM654.22186 376.0506Q654.59686 376.0506 654.90936 375.87872Q655.2375 375.70685 655.3781 375.4256L655.3781 374.33185L654.7531 374.33185Q653.4875 374.33185 653.39374 375.22247L653.39374 375.31622Q653.39374 375.62872 653.6125 375.84747Q653.83124 376.0506 654.22186 376.0506ZM659.7375 377.22247L658.03436 377.22247L658.03436 368.22247L659.7375 368.22247L659.7375 377.22247ZM664.6281 377.22247Q664.5031 376.9881 664.45624 376.65997Q663.84686 377.34747 662.8625 377.34747Q661.925 377.34747 661.3156 376.8006Q660.70624 376.25372 660.70624 375.44122Q660.70624 374.4256 661.4406 373.89435Q662.1906 373.34747 663.6125 373.34747L664.3781 373.34747L664.3781 372.9881Q664.3781 372.5506 664.15936 372.28497Q663.9406 372.01935 663.4406 372.01935Q663.01874 372.01935 662.76874 372.22247Q662.53436 372.4256 662.53436 372.78497L660.84686 372.78497Q660.84686 372.2381 661.175 371.76935Q661.51874 371.3006 662.14374 371.03497Q662.76874 370.76935 663.53436 370.76935Q664.70624 370.76935 665.39374 371.3631Q666.08124 371.94122 666.08124 373.00372L666.08124 375.75372Q666.09686 376.65997 666.33124 377.12872L666.33124 377.22247L664.6281 377.22247ZM663.22186 376.0506Q663.59686 376.0506 663.90936 375.87872Q664.2375 375.70685 664.3781 375.4256L664.3781 374.33185L663.7531 374.33185Q662.4875 374.33185 662.39374 375.22247L662.39374 375.31622Q662.39374 375.62872 662.6125 375.84747Q662.83124 376.0506 663.22186 376.0506ZM670.51874 372.47247Q670.175 372.4256 669.90936 372.4256Q668.9406 372.4256 668.64374 373.06622L668.64374 377.22247L666.95624 377.22247L666.95624 370.87872L668.55 370.87872L668.59686 371.64435Q669.1125 370.76935 670.0031 370.76935Q670.28436 370.76935 670.53436 370.84747L670.51874 372.47247ZM672.7375 377.22247L671.03436 377.22247L671.03436 370.87872L672.7375 370.87872L672.7375 377.22247ZM670.9406 369.2381Q670.9406 368.8631 671.1906 368.6131Q671.45624 368.3631 671.89374 368.3631Q672.3156 368.3631 672.5656 368.6131Q672.83124 368.8631 672.83124 369.2381Q672.83124 369.62872 672.5656 369.87872Q672.3156 370.1131 671.8781 370.1131Q671.45624 370.1131 671.1906 369.87872Q670.9406 369.62872 670.9406 369.2381ZM676.8625 377.34747Q675.47186 377.34747 674.59686 376.4881Q673.72186 375.62872 673.72186 374.20685L673.72186 374.03497Q673.72186 373.08185 674.08124 372.33185Q674.45624 371.58185 675.1281 371.1756Q675.8156 370.76935 676.675 370.76935Q677.9875 370.76935 678.72186 371.59747Q679.47186 372.40997 679.47186 373.90997L679.47186 374.59747L675.4406 374.59747Q675.51874 375.22247 675.925 375.59747Q676.34686 375.97247 676.9875 375.97247Q677.95624 375.97247 678.5031 375.26935L679.34686 376.19122Q678.95624 376.7381 678.3 377.0506Q677.65936 377.34747 676.8625 377.34747ZM676.675 372.12872Q676.175 372.12872 675.8625 372.47247Q675.55 372.81622 675.45624 373.44122L677.8156 373.44122L677.8156 373.31622Q677.8 372.75372 677.5031 372.44122Q677.22186 372.12872 676.675 372.12872ZM683.3781 375.47247Q683.3781 375.15997 683.0656 374.9881Q682.76874 374.8006 682.09686 374.65997Q679.83124 374.19122 679.83124 372.7381Q679.83124 371.89435 680.51874 371.33185Q681.22186 370.76935 682.3625 370.76935Q683.5656 370.76935 684.28436 371.33185Q685.01874 371.89435 685.01874 372.81622L683.3156 372.81622Q683.3156 372.44122 683.08124 372.20685Q682.84686 371.97247 682.34686 371.97247Q681.925 371.97247 681.6906 372.1756Q681.45624 372.3631 681.45624 372.65997Q681.45624 372.94122 681.72186 373.1131Q681.9875 373.28497 682.6125 373.40997Q683.2531 373.53497 683.6906 373.69122Q685.03436 374.19122 685.03436 375.39435Q685.03436 376.26935 684.28436 376.81622Q683.55 377.34747 682.3625 377.34747Q681.5656 377.34747 680.9406 377.06622Q680.33124 376.76935 679.97186 376.28497Q679.6281 375.78497 679.6281 375.20685L681.2375 375.20685Q681.2531 375.65997 681.5656 375.90997Q681.8781 376.14435 682.39374 376.14435Q682.89374 376.14435 683.1281 375.95685Q683.3781 375.76935 683.3781 375.47247ZM691.58124 375.97247Q692.05 375.97247 692.34686 375.72247Q692.64374 375.45685 692.65936 375.03497L694.2375 375.03497Q694.2375 375.6756 693.89374 376.22247Q693.55 376.75372 692.9406 377.0506Q692.34686 377.34747 691.6125 377.34747Q690.2531 377.34747 689.47186 376.4881Q688.6906 375.6131 688.6906 374.08185L688.6906 373.97247Q688.6906 372.50372 689.47186 371.64435Q690.2531 370.76935 691.6125 370.76935Q692.8 370.76935 693.51874 371.44122Q694.2375 372.1131 694.2375 373.2381L692.65936 373.2381Q692.64374 372.75372 692.34686 372.44122Q692.05 372.12872 691.58124 372.12872Q690.9875 372.12872 690.675 372.56622Q690.3781 373.00372 690.3781 373.95685L690.3781 374.14435Q690.3781 375.1131 690.675 375.5506Q690.97186 375.97247 691.58124 375.97247ZM694.6906 373.9881Q694.6906 373.0506 695.05 372.31622Q695.40936 371.56622 696.09686 371.1756Q696.78436 370.76935 697.675 370.76935Q698.97186 370.76935 699.76874 371.5506Q700.58124 372.33185 700.675 373.6756L700.6906 374.1131Q700.6906 375.58185 699.8781 376.47247Q699.0656 377.34747 697.6906 377.34747Q696.3156 377.34747 695.5031 376.47247Q694.6906 375.58185 694.6906 374.06622L694.6906 373.9881ZM696.3781 374.1131Q696.3781 375.01935 696.72186 375.50372Q697.0656 375.97247 697.6906 375.97247Q698.3156 375.97247 698.65936 375.50372Q699.0031 375.03497 699.0031 373.9881Q699.0031 373.1131 698.65936 372.62872Q698.3156 372.12872 697.675 372.12872Q697.0656 372.12872 696.72186 372.6131Q696.3781 373.09747 696.3781 374.1131ZM705.3781 375.47247Q705.3781 375.15997 705.0656 374.9881Q704.76874 374.8006 704.09686 374.65997Q701.83124 374.19122 701.83124 372.7381Q701.83124 371.89435 702.51874 371.33185Q703.22186 370.76935 704.3625 370.76935Q705.5656 370.76935 706.28436 371.33185Q707.01874 371.89435 707.01874 372.81622L705.3156 372.81622Q705.3156 372.44122 705.08124 372.20685Q704.84686 371.97247 704.34686 371.97247Q703.925 371.97247 703.6906 372.1756Q703.45624 372.3631 703.45624 372.65997Q703.45624 372.94122 703.72186 373.1131Q703.9875 373.28497 704.6125 373.40997Q705.2531 373.53497 705.6906 373.69122Q707.03436 374.19122 707.03436 375.39435Q707.03436 376.26935 706.28436 376.81622Q705.55 377.34747 704.3625 377.34747Q703.5656 377.34747 702.9406 377.06622Q702.33124 376.76935 701.97186 376.28497Q701.6281 375.78497 701.6281 375.20685L703.2375 375.20685Q703.2531 375.65997 703.5656 375.90997Q703.8781 376.14435 704.39374 376.14435Q704.89374 376.14435 705.1281 375.95685Q705.3781 375.76935 705.3781 375.47247ZM709.97186 369.31622L709.97186 370.87872L711.0656 370.87872L711.0656 372.12872L709.97186 372.12872L709.97186 375.28497Q709.97186 375.64435 710.1125 375.8006Q710.2531 375.94122 710.6281 375.94122Q710.90936 375.94122 711.1281 375.90997L711.1281 377.19122Q710.6281 377.34747 710.09686 377.34747Q708.3156 377.34747 708.28436 375.53497L708.28436 372.12872L707.3625 372.12872L707.3625 370.87872L708.28436 370.87872L708.28436 369.31622L709.97186 369.31622ZM715.3781 375.47247Q715.3781 375.15997 715.0656 374.9881Q714.76874 374.8006 714.09686 374.65997Q711.83124 374.19122 711.83124 372.7381Q711.83124 371.89435 712.51874 371.33185Q713.22186 370.76935 714.3625 370.76935Q715.5656 370.76935 716.28436 371.33185Q717.01874 371.89435 717.01874 372.81622L715.3156 372.81622Q715.3156 372.44122 715.08124 372.20685Q714.84686 371.97247 714.34686 371.97247Q713.925 371.97247 713.6906 372.1756Q713.45624 372.3631 713.45624 372.65997Q713.45624 372.94122 713.72186 373.1131Q713.9875 373.28497 714.6125 373.40997Q715.2531 373.53497 715.6906 373.69122Q717.03436 374.19122 717.03436 375.39435Q717.03436 376.26935 716.28436 376.81622Q715.55 377.34747 714.3625 377.34747Q713.5656 377.34747 712.9406 377.06622Q712.33124 376.76935 711.97186 376.28497Q711.6281 375.78497 711.6281 375.20685L713.2375 375.20685Q713.2531 375.65997 713.5656 375.90997Q713.8781 376.14435 714.39374 376.14435Q714.89374 376.14435 715.1281 375.95685Q715.3781 375.76935 715.3781 375.47247Z" fill-rule="nonzero"/><path fill="#9e9e9e" d="M690.675 387.64435L687.3781 395.22247L685.59686 395.22247L688.89374 388.06622L684.65936 388.06622L684.65936 386.69122L690.675 386.69122L690.675 387.64435ZM697.4406 388.95685Q697.4406 389.58185 697.1281 390.06622Q696.8156 390.53497 696.26874 390.83185Q696.89374 391.12872 697.2531 391.65997Q697.6281 392.1756 697.6281 392.87872Q697.6281 394.01935 696.84686 394.69122Q696.08124 395.34747 694.7375 395.34747Q693.40936 395.34747 692.6281 394.69122Q691.8625 394.01935 691.8625 392.87872Q691.8625 392.1756 692.22186 391.64435Q692.58124 391.1131 693.20624 390.83185Q692.65936 390.53497 692.34686 390.06622Q692.03436 389.58185 692.03436 388.95685Q692.03436 387.8631 692.7531 387.22247Q693.4875 386.56622 694.7375 386.56622Q695.9875 386.56622 696.70624 387.22247Q697.4406 387.8631 697.4406 388.95685ZM695.925 392.75372Q695.925 392.20685 695.59686 391.87872Q695.28436 391.53497 694.7375 391.53497Q694.1906 391.53497 693.8625 391.8631Q693.55 392.19122 693.55 392.75372Q693.55 393.3006 693.8625 393.64435Q694.1906 393.97247 694.7531 393.97247Q695.3 393.97247 695.6125 393.65997Q695.925 393.33185 695.925 392.75372ZM695.7531 389.03497Q695.7531 388.53497 695.4875 388.2381Q695.22186 387.94122 694.7375 387.94122Q694.26874 387.94122 694.0031 388.2381Q693.7375 388.51935 693.7375 389.03497Q693.7375 389.5506 694.0031 389.8631Q694.26874 390.1756 694.7375 390.1756Q695.22186 390.1756 695.4875 389.8631Q695.7531 389.5506 695.7531 389.03497ZM699.39374 397.3631L698.5031 396.89435L698.72186 396.51935Q699.1125 395.8006 699.1281 395.09747L699.1281 393.78497L700.55 393.78497L700.55 394.95685Q700.53436 395.59747 700.20624 396.25372Q699.89374 396.9256 699.39374 397.3631ZM707.6281 391.69122Q707.6281 393.45685 706.89374 394.40997Q706.15936 395.34747 704.7531 395.34747Q703.34686 395.34747 702.6125 394.4256Q701.8781 393.50372 701.8625 391.78497L701.8625 390.20685Q701.8625 388.4256 702.59686 387.50372Q703.34686 386.56622 704.7375 386.56622Q706.1281 386.56622 706.8625 387.4881Q707.6125 388.40997 707.6281 390.12872L707.6281 391.69122ZM705.925 389.97247Q705.925 388.90997 705.6281 388.4256Q705.34686 387.94122 704.7375 387.94122Q704.14374 387.94122 703.84686 388.40997Q703.5656 388.8631 703.55 389.84747L703.55 391.90997Q703.55 392.95685 703.83124 393.47247Q704.1125 393.97247 704.7531 393.97247Q705.3625 393.97247 705.64374 393.4881Q705.925 393.00372 705.925 392.00372L705.925 389.97247ZM708.8625 388.33185Q708.8625 387.5506 709.3625 387.06622Q709.8781 386.56622 710.70624 386.56622Q711.53436 386.56622 712.05 387.0506Q712.5656 387.53497 712.5656 388.3631L712.5656 388.78497Q712.5656 389.56622 712.05 390.0506Q711.53436 390.53497 710.72186 390.53497Q709.8781 390.53497 709.3625 390.0506Q708.8625 389.56622 708.8625 388.75372L708.8625 388.33185ZM709.9875 388.78497Q709.9875 389.12872 710.1906 389.34747Q710.39374 389.56622 710.72186 389.56622Q711.05 389.56622 711.2375 389.34747Q711.425 389.12872 711.425 388.76935L711.425 388.33185Q711.425 387.97247 711.2375 387.76935Q711.05 387.5506 710.70624 387.5506Q710.3781 387.5506 710.175 387.76935Q709.9875 387.97247 709.9875 388.34747L709.9875 388.78497ZM712.9406 393.12872Q712.9406 392.33185 713.45624 391.8631Q713.97186 391.37872 714.78436 391.37872Q715.6125 391.37872 716.1281 391.8631Q716.64374 392.33185 716.64374 393.15997L716.64374 393.58185Q716.64374 394.37872 716.14374 394.8631Q715.64374 395.34747 714.8 395.34747Q713.95624 395.34747 713.4406 394.8631Q712.9406 394.3631 712.9406 393.56622L712.9406 393.12872ZM714.0656 393.58185Q714.0656 393.90997 714.26874 394.14435Q714.4875 394.3631 714.8 394.3631Q715.51874 394.3631 715.51874 393.58185L715.51874 393.12872Q715.51874 392.78497 715.3156 392.56622Q715.1125 392.34747 714.78436 392.34747Q714.45624 392.34747 714.2531 392.56622Q714.0656 392.78497 714.0656 393.14435L714.0656 393.58185ZM711.05 394.58185L710.22186 394.14435L714.39374 387.47247L715.22186 387.90997L711.05 394.58185Z" fill-rule="nonzero"/><path stroke="#757575" stroke-width="1.0" stroke-linecap="butt" d="M717.3 381.72247L560.73334 381.72247L481.94635 381.72247" fill-rule="nonzero"/><path fill="#9e9e9e" d="M483.94635 381.72247C483.94635 380.61792 483.05093 379.72247 481.94635 379.72247C480.8418 379.72247 479.94635 380.61792 479.94635 381.72247C479.94635 382.82706 480.8418 383.72247 481.94635 383.72247C483.05093 383.72247 483.94635 382.82706 483.94635 381.72247" fill-rule="nonzero"/><path fill="#757575" d="M34.16875 29.028126L29.60625 29.028126L29.60625 41.7L27.746876 41.7L27.746876 29.028126L23.184376 29.028126L23.184376 27.48125L34.16875 27.48125L34.16875 29.028126ZM35.590626 36.325Q35.590626 34.7625 36.2 33.528126Q36.809376 32.278126 37.8875 31.60625Q38.98125 30.934376 40.3875 30.934376Q42.54375 30.934376 43.871876 32.434376Q45.215626 33.91875 45.215626 36.403126L45.215626 36.528126Q45.215626 38.075 44.621876 39.309376Q44.028126 40.528126 42.91875 41.215626Q41.825 41.903126 40.403126 41.903126Q38.2625 41.903126 36.91875 40.403126Q35.590626 38.903126 35.590626 36.45L35.590626 36.325ZM37.403126 36.528126Q37.403126 38.29375 38.215626 39.35625Q39.04375 40.41875 40.403126 40.41875Q41.778126 40.41875 42.590626 39.340626Q43.403126 38.2625 43.403126 36.325Q43.403126 34.575 42.575 33.496876Q41.746876 32.41875 40.3875 32.41875Q39.04375 32.41875 38.215626 33.48125Q37.403126 34.54375 37.403126 36.528126ZM49.5125 28.575L49.5125 31.1375L51.496876 31.1375L51.496876 32.528126L49.5125 32.528126L49.5125 39.075Q49.5125 39.715626 49.778126 40.04375Q50.04375 40.35625 50.684376 40.35625Q50.996876 40.35625 51.54375 40.23125L51.54375 41.7Q50.825 41.903126 50.153126 41.903126Q48.95 41.903126 48.325 41.16875Q47.715626 40.434376 47.715626 39.075L47.715626 32.528126L45.79375 32.528126L45.79375 31.1375L47.715626 31.1375L47.715626 28.575L49.5125 28.575ZM60.590626 41.7Q60.434376 41.3875 60.340626 40.590626Q59.075 41.903126 57.325 41.903126Q55.7625 41.903126 54.7625 41.0125Q53.7625 40.121876 53.7625 38.7625Q53.7625 37.121876 55.0125 36.215626Q56.278126 35.29375 58.54375 35.29375L60.309376 35.29375L60.309376 34.465626Q60.309376 33.5125 59.73125 32.95Q59.16875 32.3875 58.075 32.3875Q57.10625 32.3875 56.45 32.8875Q55.79375 33.371876 55.79375 34.059376L53.98125 34.059376Q53.98125 33.278126 54.54375 32.54375Q55.10625 31.79375 56.059376 31.371876Q57.028126 30.934376 58.184376 30.934376Q60.0125 30.934376 61.04375 31.85625Q62.075 32.7625 62.121876 34.371876L62.121876 39.23125Q62.121876 40.684376 62.48125 41.54375L62.48125 41.7L60.590626 41.7ZM57.590626 40.325Q58.45 40.325 59.2 39.8875Q59.965626 39.45 60.309376 38.746876L60.309376 36.575L58.8875 36.575Q55.575 36.575 55.575 38.5125Q55.575 39.371876 56.1375 39.85625Q56.7 40.325 57.590626 40.325ZM67.02812 41.7L65.23125 41.7L65.23125 26.7L67.02812 26.7L67.02812 41.7ZM79.30937 40.41875Q80.27812 40.41875 80.99687 39.840626Q81.71562 39.246876 81.79375 38.371876L83.5125 38.371876Q83.45 39.278126 82.87187 40.10625Q82.30937 40.91875 81.34062 41.41875Q80.3875 41.903126 79.30937 41.903126Q77.15312 41.903126 75.87187 40.465626Q74.60625 39.0125 74.60625 36.5125L74.60625 36.215626Q74.60625 34.66875 75.16875 33.465626Q75.73125 32.2625 76.79375 31.60625Q77.85625 30.934376 79.29375 30.934376Q81.075 30.934376 82.24687 31.996876Q83.43437 33.059376 83.5125 34.7625L81.79375 34.7625Q81.71562 33.746876 81.0125 33.090626Q80.325 32.41875 79.29375 32.41875Q77.91875 32.41875 77.15312 33.41875Q76.40312 34.403126 76.40312 36.278126L76.40312 36.621876Q76.40312 38.45 77.15312 39.434376Q77.90312 40.41875 79.30937 40.41875ZM84.59062 36.325Q84.59062 34.7625 85.2 33.528126Q85.80937 32.278126 86.8875 31.60625Q87.98125 30.934376 89.3875 30.934376Q91.54375 30.934376 92.87187 32.434376Q94.21562 33.91875 94.21562 36.403126L94.21562 36.528126Q94.21562 38.075 93.62187 39.309376Q93.02812 40.528126 91.91875 41.215626Q90.825 41.903126 89.40312 41.903126Q87.2625 41.903126 85.91875 40.403126Q84.59062 38.903126 84.59062 36.45L84.59062 36.325ZM86.40312 36.528126Q86.40312 38.29375 87.21562 39.35625Q88.04375 40.41875 89.40312 40.41875Q90.77812 40.41875 91.59062 39.340626Q92.40312 38.2625 92.40312 36.325Q92.40312 34.575 91.575 33.496876Q90.74687 32.41875 89.3875 32.41875Q88.04375 32.41875 87.21562 33.48125Q86.40312 34.54375 86.40312 36.528126ZM102.21562 38.903126Q102.21562 38.16875 101.66875 37.7625Q101.12187 37.35625 99.74687 37.059376Q98.37187 36.7625 97.55937 36.35625Q96.7625 35.95 96.37187 35.3875Q95.99687 34.809376 95.99687 34.028126Q95.99687 32.73125 97.09062 31.840626Q98.18437 30.934376 99.90312 30.934376Q101.7 30.934376 102.80937 31.871876Q103.93437 32.79375 103.93437 34.23125L102.10625 34.23125Q102.10625 33.496876 101.48125 32.965626Q100.85625 32.41875 99.90312 32.41875Q98.90312 32.41875 98.34062 32.85625Q97.79375 33.278126 97.79375 33.98125Q97.79375 34.621876 98.30937 34.965626Q98.825 35.29375 100.18437 35.60625Q101.54375 35.903126 102.37187 36.325Q103.21562 36.73125 103.62187 37.325Q104.02812 37.91875 104.02812 38.7625Q104.02812 40.184376 102.8875 41.04375Q101.7625 41.903126 99.95 41.903126Q98.68437 41.903126 97.7 41.45Q96.73125 40.996876 96.16875 40.2Q95.62187 39.3875 95.62187 38.45L97.43437 38.45Q97.48125 39.35625 98.15312 39.8875Q98.84062 40.41875 99.95 40.41875Q100.98125 40.41875 101.59062 40.0125Q102.21562 39.590626 102.21562 38.903126ZM108.5125 28.575L108.5125 31.1375L110.49687 31.1375L110.49687 32.528126L108.5125 32.528126L108.5125 39.075Q108.5125 39.715626 108.77812 40.04375Q109.04375 40.35625 109.68437 40.35625Q109.99687 40.35625 110.54375 40.23125L110.54375 41.7Q109.825 41.903126 109.15312 41.903126Q107.95 41.903126 107.325 41.16875Q106.71562 40.434376 106.71562 39.075L106.71562 32.528126L104.79375 32.528126L104.79375 31.1375L106.71562 31.1375L106.71562 28.575L108.5125 28.575ZM119.21562 38.903126Q119.21562 38.16875 118.66875 37.7625Q118.12187 37.35625 116.74687 37.059376Q115.37187 36.7625 114.55937 36.35625Q113.7625 35.95 113.37187 35.3875Q112.99687 34.809376 112.99687 34.028126Q112.99687 32.73125 114.09062 31.840626Q115.18437 30.934376 116.90312 30.934376Q118.7 30.934376 119.80937 31.871876Q120.93437 32.79375 120.93437 34.23125L119.10625 34.23125Q119.10625 33.496876 118.48125 32.965626Q117.85625 32.41875 116.90312 32.41875Q115.90312 32.41875 115.34062 32.85625Q114.79375 33.278126 114.79375 33.98125Q114.79375 34.621876 115.30937 34.965626Q115.825 35.29375 117.18437 35.60625Q118.54375 35.903126 119.37187 36.325Q120.21562 36.73125 120.62187 37.325Q121.02812 37.91875 121.02812 38.7625Q121.02812 40.184376 119.8875 41.04375Q118.7625 41.903126 116.95 41.903126Q115.68437 41.903126 114.7 41.45Q113.73125 40.996876 113.16875 40.2Q112.62187 39.3875 112.62187 38.45L114.43437 38.45Q114.48125 39.35625 115.15312 39.8875Q115.84062 40.41875 116.95 40.41875Q117.98125 40.41875 118.59062 40.0125Q119.21562 39.590626 119.21562 38.903126Z" fill-rule="nonzero"/></svg>