<svg version="1.1" viewBox="0.0 0.0 612.0 371.0" fill="none" stroke="none" stroke-linecap="square" stroke-miterlimit="10" width="612" height="371" xmlns:xlink="http://www.w3.org/1999/xlink" xmlns="http://www.w3.org/2000/svg"><path fill="#ffffff" d="M0 0L612.0 0L612.0 371.0L0 371.0L0 0Z" fill-rule="nonzero"/><path fill="#4285f4" d="M306.0 54.916668C321.61093 54.916668 337.12457 57.373787 351.97144 62.197826L306.0 203.68333Z" fill-rule="nonzero"/><path fill="#ea4335" d="M351.97144 62.197826C397.26166 76.91351 432.76984 112.421684 447.4855 157.7119C462.2012 203.00212 454.34564 252.60002 426.35477 291.1262L306.0 203.68333Z" fill-rule="nonzero"/><path fill="#46bdc6" d="M218.55714 83.328575C243.97357 64.86246 274.58356 54.916668 306.0 54.916668L306.0 203.68333Z" fill-rule="nonzero"/><path fill="#ff6d01" d="M197.55377 101.84554C203.95717 95.02662 210.98943 88.826836 218.55714 83.328575L306.0 203.68333Z" fill-rule="nonzero"/><path fill="#34a853" d="M197.55377 305.52112C143.79318 248.27193 143.79318 159.09474 197.55377 101.84554L306.0 203.68333Z" fill-rule="nonzero"/><path fill="#fbbc04" d="M426.35477 291.1262C400.2937 326.99615 359.59137 349.37247 315.34113 352.15643C271.0909 354.94043 227.90503 337.84192 197.55377 305.52112L306.0 203.68333Z" fill-rule="nonzero"/><path fill="#000000" d="M322.48624 82.73261L323.00186 77.76386L328.0956 77.76386L328.0956 78.93574L324.06436 78.93574L323.7675 81.63886Q324.50186 81.21699 325.42374 81.21699Q326.7831 81.21699 327.58 82.12324Q328.3925 83.01386 328.3925 84.54511Q328.3925 86.07636 327.54874 86.96699Q326.7206 87.85761 325.23624 87.85761Q323.92374 87.85761 323.08 87.12324Q322.25186 86.38886 322.12686 85.09199L323.33 85.09199Q323.43936 85.95136 323.92374 86.38886Q324.42374 86.82636 325.23624 86.82636Q326.11124 86.82636 326.61124 86.23261Q327.12686 85.62324 327.12686 84.56074Q327.12686 83.56074 326.58 82.96699Q326.0331 82.35761 325.12686 82.35761Q324.31436 82.35761 323.83 82.71699L323.50186 82.98261L322.48624 82.73261Z" fill-rule="nonzero"/><path fill="#000000" d="M413.85815 165.81314L414.79565 165.81314Q415.7019 165.79752 416.2019 165.34439Q416.71753 164.89127 416.71753 164.11002Q416.71753 162.36002 414.98315 162.36002Q414.15503 162.36002 413.67065 162.82877Q413.18628 163.29752 413.18628 164.06314L411.92065 164.06314Q411.92065 162.87564 412.78003 162.09439Q413.65503 161.31314 414.98315 161.31314Q416.3894 161.31314 417.18628 162.06314Q417.98315 162.81314 417.98315 164.12564Q417.98315 164.78189 417.56128 165.39127Q417.15503 166.00064 416.42065 166.29752Q417.24878 166.56314 417.68628 167.17252Q418.1394 167.76627 418.1394 168.62564Q418.1394 169.96939 417.2644 170.76627Q416.3894 171.54752 414.98315 171.54752Q413.59253 171.54752 412.7019 170.79752Q411.8269 170.03189 411.8269 168.78189L413.10815 168.78189Q413.10815 169.56314 413.60815 170.04752Q414.12378 170.51627 414.98315 170.51627Q415.90503 170.51627 416.3894 170.03189Q416.87378 169.54752 416.87378 168.65689Q416.87378 167.79752 416.34253 167.32877Q415.81128 166.86002 414.79565 166.84439L413.85815 166.84439L413.85815 165.81314ZM426.24878 167.15689Q426.24878 169.37564 425.48315 170.46939Q424.73315 171.54752 423.12378 171.54752Q421.53003 171.54752 420.7644 170.50064Q419.99878 169.43814 419.96753 167.32877L419.96753 165.64127Q419.96753 163.45377 420.71753 162.39127Q421.48315 161.31314 423.10815 161.31314Q424.71753 161.31314 425.46753 162.34439Q426.23315 163.37564 426.24878 165.51627L426.24878 167.15689ZM424.98315 165.43814Q424.98315 163.82877 424.53003 163.09439Q424.09253 162.36002 423.10815 162.36002Q422.1394 162.36002 421.68628 163.09439Q421.24878 163.81314 421.23315 165.32877L421.23315 167.36002Q421.23315 168.96939 421.7019 169.75064Q422.17065 170.51627 423.12378 170.51627Q424.06128 170.51627 424.5144 169.79752Q424.96753 169.06314 424.98315 167.50064L424.98315 165.43814Z" fill-rule="nonzero"/><path fill="#000000" d="M313.03293 330.3994L306.5173 330.3994L306.5173 329.49316L309.9548 325.66504Q310.72043 324.79004 311.0173 324.2588Q311.31418 323.7119 311.31418 323.11816Q311.31418 322.35254 310.8298 321.85254Q310.36105 321.35254 309.5798 321.35254Q308.6423 321.35254 308.11105 321.8838Q307.59543 322.41504 307.59543 323.3838L306.3298 323.3838Q306.3298 322.0088 307.2048 321.16504Q308.09543 320.30566 309.5798 320.30566Q310.97043 320.30566 311.7673 321.04004Q312.5798 321.7588 312.5798 322.97754Q312.5798 324.4463 310.7048 326.47754L308.04855 329.36816L313.03293 329.36816L313.03293 330.3994ZM320.54855 323.04004Q320.54855 323.79004 320.15793 324.36816Q319.7673 324.9463 319.09543 325.2744Q319.87668 325.61816 320.3298 326.2588Q320.78293 326.8994 320.78293 327.7119Q320.78293 329.0088 319.90793 329.7744Q319.04855 330.54004 317.62668 330.54004Q316.18918 330.54004 315.31418 329.7744Q314.4548 328.99316 314.4548 327.7119Q314.4548 326.8994 314.8923 326.2588Q315.3298 325.60254 316.11105 325.2744Q315.4548 324.9463 315.06418 324.36816Q314.68918 323.7744 314.68918 323.04004Q314.68918 321.79004 315.48605 321.05566Q316.29855 320.30566 317.62668 320.30566Q318.93918 320.30566 319.73605 321.05566Q320.54855 321.79004 320.54855 323.04004ZM319.5173 327.68066Q319.5173 326.85254 318.98605 326.3369Q318.4548 325.80566 317.59543 325.80566Q316.75168 325.80566 316.23605 326.3213Q315.72043 326.8369 315.72043 327.6963Q315.72043 328.54004 316.22043 329.0244Q316.72043 329.5088 317.62668 329.5088Q318.50168 329.5088 319.00168 329.0244Q319.5173 328.5244 319.5173 327.68066ZM317.62668 321.35254Q316.87668 321.35254 316.40793 321.8213Q315.9548 322.2744 315.9548 323.0713Q315.9548 323.8213 316.40793 324.29004Q316.86105 324.7588 317.61105 324.7588Q318.37668 324.7588 318.8298 324.29004Q319.28293 323.8213 319.28293 323.0713Q319.28293 322.30566 318.81418 321.8369Q318.34543 321.35254 317.62668 321.35254Z" fill-rule="nonzero"/><path fill="#000000" d="M181.3019 208.18333L174.78627 208.18333L174.78627 207.27708L178.22377 203.44896Q178.9894 202.57396 179.28627 202.04271Q179.58315 201.49583 179.58315 200.90208Q179.58315 200.13646 179.09877 199.63646Q178.63002 199.13646 177.84877 199.13646Q176.91127 199.13646 176.38002 199.66771Q175.8644 200.19896 175.8644 201.16771L174.59877 201.16771Q174.59877 199.79271 175.47377 198.94896Q176.3644 198.08958 177.84877 198.08958Q179.2394 198.08958 180.03627 198.82396Q180.84877 199.54271 180.84877 200.76146Q180.84877 202.23021 178.97377 204.26146L176.31752 207.15208L181.3019 207.15208L181.3019 208.18333ZM188.13002 204.83958L189.50502 204.83958L189.50502 205.87083L188.13002 205.87083L188.13002 208.18333L186.84877 208.18333L186.84877 205.87083L182.31752 205.87083L182.31752 205.12083L186.77065 198.23021L188.13002 198.23021L188.13002 204.83958ZM183.75502 204.83958L186.84877 204.83958L186.84877 199.96458L186.70815 200.23021L183.75502 204.83958Z" fill-rule="nonzero"/><path fill="#000000" d="M226.14603 113.5195L227.08353 113.5195Q227.98978 113.503876 228.48978 113.05075Q229.0054 112.597626 229.0054 111.816376Q229.0054 110.066376 227.27103 110.066376Q226.4429 110.066376 225.95853 110.535126Q225.47415 111.003876 225.47415 111.7695L224.20853 111.7695Q224.20853 110.582 225.0679 109.80075Q225.9429 109.0195 227.27103 109.0195Q228.67728 109.0195 229.47415 109.7695Q230.27103 110.5195 230.27103 111.832Q230.27103 112.48825 229.84915 113.097626Q229.4429 113.707 228.70853 114.003876Q229.53665 114.2695 229.97415 114.878876Q230.42728 115.472626 230.42728 116.332Q230.42728 117.67575 229.55228 118.472626Q228.67728 119.253876 227.27103 119.253876Q225.8804 119.253876 224.98978 118.503876Q224.11478 117.73825 224.11478 116.48825L225.39603 116.48825Q225.39603 117.2695 225.89603 117.753876Q226.41165 118.222626 227.27103 118.222626Q228.1929 118.222626 228.67728 117.73825Q229.16165 117.253876 229.16165 116.36325Q229.16165 115.503876 228.6304 115.035126Q228.09915 114.566376 227.08353 114.55075L226.14603 114.55075L226.14603 113.5195Z" fill-rule="nonzero"/><path fill="#000000" d="M266.2876 95.24226L265.02197 95.24226L265.02197 86.82039L262.45947 87.74226L262.45947 86.60164L266.08447 85.24226L266.2876 85.24226L266.2876 95.24226ZM276.36572 90.99226Q276.36572 93.21101 275.6001 94.30476Q274.8501 95.38289 273.24072 95.38289Q271.64697 95.38289 270.88135 94.33601Q270.11572 93.27351 270.08447 91.16414L270.08447 89.47664Q270.08447 87.28914 270.83447 86.22664Q271.6001 85.14851 273.2251 85.14851Q274.83447 85.14851 275.58447 86.17976Q276.3501 87.21101 276.36572 89.35164L276.36572 90.99226ZM275.1001 89.27351Q275.1001 87.66414 274.64697 86.92976Q274.20947 86.19539 273.2251 86.19539Q272.25635 86.19539 271.80322 86.92976Q271.36572 87.64851 271.3501 89.16414L271.3501 91.19539Q271.3501 92.80476 271.81885 93.58601Q272.2876 94.35164 273.24072 94.35164Q274.17822 94.35164 274.63135 93.63289Q275.08447 92.89851 275.1001 91.33601L275.1001 89.27351Z" fill-rule="nonzero"/><path fill="#1a1a1a" d="M23.7375 64.68229Q23.7375 64.18229 23.378124 63.916664Q23.034374 63.65104 22.1125 63.354164Q21.20625 63.05729 20.675 62.760414Q19.221874 61.979164 19.221874 60.65104Q19.221874 59.96354 19.6125 59.416664Q20.003124 58.86979 20.721874 58.572914Q21.45625 58.260414 22.3625 58.260414Q23.284374 58.260414 23.9875 58.604164Q24.70625 58.93229 25.096874 59.541664Q25.503124 60.135414 25.503124 60.90104L23.7375 60.90104Q23.7375 60.322914 23.3625 59.99479Q23.003124 59.666664 22.33125 59.666664Q21.690624 59.666664 21.33125 59.947914Q20.971874 60.21354 20.971874 60.65104Q20.971874 61.072914 21.39375 61.354164Q21.815624 61.635414 22.628124 61.885414Q24.128124 62.33854 24.815624 63.010414Q25.503124 63.666664 25.503124 64.666664Q25.503124 65.77604 24.659374 66.416664Q23.83125 67.041664 22.409374 67.041664Q21.425 67.041664 20.6125 66.68229Q19.8 66.30729 19.378124 65.68229Q18.95625 65.05729 18.95625 64.229164L20.721874 64.229164Q20.721874 65.65104 22.409374 65.65104Q23.034374 65.65104 23.378124 65.40104Q23.7375 65.135414 23.7375 64.68229ZM28.221874 59.010414L28.221874 60.572914L29.315624 60.572914L29.315624 61.822914L28.221874 61.822914L28.221874 64.979164Q28.221874 65.33854 28.3625 65.49479Q28.503124 65.635414 28.878124 65.635414Q29.159374 65.635414 29.378124 65.604164L29.378124 66.885414Q28.878124 67.041664 28.346874 67.041664Q26.565624 67.041664 26.534374 65.229164L26.534374 61.822914L25.6125 61.822914L25.6125 60.572914L26.534374 60.572914L26.534374 59.010414L28.221874 59.010414ZM33.878124 66.916664Q33.753124 66.68229 33.70625 66.354164Q33.096874 67.041664 32.1125 67.041664Q31.175 67.041664 30.565624 66.49479Q29.95625 65.947914 29.95625 65.135414Q29.95625 64.11979 30.690624 63.58854Q31.440624 63.041664 32.8625 63.041664L33.628124 63.041664L33.628124 62.68229Q33.628124 62.24479 33.409374 61.979164Q33.190624 61.71354 32.690624 61.71354Q32.26875 61.71354 32.01875 61.916664Q31.784374 62.11979 31.784374 62.479164L30.096874 62.479164Q30.096874 61.93229 30.425 61.46354Q30.76875 60.99479 31.39375 60.729164Q32.01875 60.46354 32.784374 60.46354Q33.95625 60.46354 34.64375 61.05729Q35.33125 61.635414 35.33125 62.697914L35.33125 65.447914Q35.346874 66.354164 35.58125 66.822914L35.58125 66.916664L33.878124 66.916664ZM32.471874 65.74479Q32.846874 65.74479 33.159374 65.572914Q33.4875 65.40104 33.628124 65.11979L33.628124 64.02604L33.003124 64.02604Q31.7375 64.02604 31.64375 64.916664L31.64375 65.010414Q31.64375 65.322914 31.8625 65.541664Q32.08125 65.74479 32.471874 65.74479ZM38.221874 59.010414L38.221874 60.572914L39.315624 60.572914L39.315624 61.822914L38.221874 61.822914L38.221874 64.979164Q38.221874 65.33854 38.3625 65.49479Q38.503124 65.635414 38.878124 65.635414Q39.159374 65.635414 39.378124 65.604164L39.378124 66.885414Q38.878124 67.041664 38.346874 67.041664Q36.565624 67.041664 36.534374 65.229164L36.534374 61.822914L35.6125 61.822914L35.6125 60.572914L36.534374 60.572914L36.534374 59.010414L38.221874 59.010414ZM41.9875 66.916664L40.284374 66.916664L40.284374 60.572914L41.9875 60.572914L41.9875 66.916664ZM40.190624 58.93229Q40.190624 58.55729 40.440624 58.30729Q40.70625 58.05729 41.14375 58.05729Q41.565624 58.05729 41.815624 58.30729Q42.08125 58.55729 42.08125 58.93229Q42.08125 59.322914 41.815624 59.572914Q41.565624 59.80729 41.128124 59.80729Q40.70625 59.80729 40.440624 59.572914Q40.190624 59.322914 40.190624 58.93229ZM46.628124 65.166664Q46.628124 64.854164 46.315624 64.68229Q46.01875 64.49479 45.346874 64.354164Q43.08125 63.885414 43.08125 62.43229Q43.08125 61.58854 43.76875 61.02604Q44.471874 60.46354 45.6125 60.46354Q46.815624 60.46354 47.534374 61.02604Q48.26875 61.58854 48.26875 62.510414L46.565624 62.510414Q46.565624 62.135414 46.33125 61.90104Q46.096874 61.666664 45.596874 61.666664Q45.175 61.666664 44.940624 61.86979Q44.70625 62.05729 44.70625 62.354164Q44.70625 62.635414 44.971874 62.80729Q45.2375 62.979164 45.8625 63.104164Q46.503124 63.229164 46.940624 63.385414Q48.284374 63.885414 48.284374 65.08854Q48.284374 65.96354 47.534374 66.510414Q46.8 67.041664 45.6125 67.041664Q44.815624 67.041664 44.190624 66.760414Q43.58125 66.46354 43.221874 65.979164Q42.878124 65.479164 42.878124 64.90104L44.4875 64.90104Q44.503124 65.354164 44.815624 65.604164Q45.128124 65.83854 45.64375 65.83854Q46.14375 65.83854 46.378124 65.65104Q46.628124 65.46354 46.628124 65.166664ZM51.221874 59.010414L51.221874 60.572914L52.315624 60.572914L52.315624 61.822914L51.221874 61.822914L51.221874 64.979164Q51.221874 65.33854 51.3625 65.49479Q51.503124 65.635414 51.878124 65.635414Q52.159374 65.635414 52.378124 65.604164L52.378124 66.885414Q51.878124 67.041664 51.346874 67.041664Q49.565624 67.041664 49.534374 65.229164L49.534374 61.822914L48.6125 61.822914L48.6125 60.572914L49.534374 60.572914L49.534374 59.010414L51.221874 59.010414ZM54.9875 66.916664L53.284374 66.916664L53.284374 60.572914L54.9875 60.572914L54.9875 66.916664ZM53.190624 58.93229Q53.190624 58.55729 53.440624 58.30729Q53.70625 58.05729 54.14375 58.05729Q54.565624 58.05729 54.815624 58.30729Q55.08125 58.55729 55.08125 58.93229Q55.08125 59.322914 54.815624 59.572914Q54.565624 59.80729 54.128124 59.80729Q53.70625 59.80729 53.440624 59.572914Q53.190624 59.322914 53.190624 58.93229ZM58.83125 65.666664Q59.3 65.666664 59.596874 65.416664Q59.89375 65.15104 59.909374 64.729164L61.4875 64.729164Q61.4875 65.36979 61.14375 65.916664Q60.8 66.447914 60.190624 66.74479Q59.596874 67.041664 58.8625 67.041664Q57.503124 67.041664 56.721874 66.18229Q55.940624 65.30729 55.940624 63.77604L55.940624 63.666664Q55.940624 62.197914 56.721874 61.33854Q57.503124 60.46354 58.8625 60.46354Q60.05 60.46354 60.76875 61.135414Q61.4875 61.80729 61.4875 62.93229L59.909374 62.93229Q59.89375 62.447914 59.596874 62.135414Q59.3 61.822914 58.83125 61.822914Q58.2375 61.822914 57.925 62.260414Q57.628124 62.697914 57.628124 63.65104L57.628124 63.83854Q57.628124 64.80729 57.925 65.24479Q58.221874 65.666664 58.83125 65.666664ZM64.94063 63.697914Q64.94063 62.21354 65.59688 61.33854Q66.26875 60.46354 67.425 60.46354Q68.34688 60.46354 68.95625 61.15104L68.95625 57.916664L70.64375 57.916664L70.64375 66.916664L69.12813 66.916664L69.03438 66.24479Q68.40938 67.041664 67.40938 67.041664Q66.28438 67.041664 65.6125 66.166664Q64.94063 65.27604 64.94063 63.697914ZM66.62813 63.822914Q66.62813 64.71354 66.94063 65.197914Q67.25313 65.666664 67.84688 65.666664Q68.62813 65.666664 68.95625 64.99479L68.95625 62.49479Q68.62813 61.83854 67.8625 61.83854Q66.62813 61.83854 66.62813 63.822914ZM75.87813 66.916664Q75.75313 66.68229 75.70625 66.354164Q75.09688 67.041664 74.1125 67.041664Q73.175 67.041664 72.56563 66.49479Q71.95625 65.947914 71.95625 65.135414Q71.95625 64.11979 72.69063 63.58854Q73.44063 63.041664 74.8625 63.041664L75.62813 63.041664L75.62813 62.68229Q75.62813 62.24479 75.40938 61.979164Q75.19063 61.71354 74.69063 61.71354Q74.26875 61.71354 74.01875 61.916664Q73.78438 62.11979 73.78438 62.479164L72.09688 62.479164Q72.09688 61.93229 72.425 61.46354Q72.76875 60.99479 73.39375 60.729164Q74.01875 60.46354 74.78438 60.46354Q75.95625 60.46354 76.64375 61.05729Q77.33125 61.635414 77.33125 62.697914L77.33125 65.447914Q77.34688 66.354164 77.58125 66.822914L77.58125 66.916664L75.87813 66.916664ZM74.47188 65.74479Q74.84688 65.74479 75.15938 65.572914Q75.4875 65.40104 75.62813 65.11979L75.62813 64.02604L75.00313 64.02604Q73.7375 64.02604 73.64375 64.916664L73.64375 65.010414Q73.64375 65.322914 73.8625 65.541664Q74.08125 65.74479 74.47188 65.74479ZM80.22188 59.010414L80.22188 60.572914L81.31563 60.572914L81.31563 61.822914L80.22188 61.822914L80.22188 64.979164Q80.22188 65.33854 80.3625 65.49479Q80.50313 65.635414 80.87813 65.635414Q81.15938 65.635414 81.37813 65.604164L81.37813 66.885414Q80.87813 67.041664 80.34688 67.041664Q78.56563 67.041664 78.53438 65.229164L78.53438 61.822914L77.6125 61.822914L77.6125 60.572914L78.53438 60.572914L78.53438 59.010414L80.22188 59.010414ZM85.87813 66.916664Q85.75313 66.68229 85.70625 66.354164Q85.09688 67.041664 84.1125 67.041664Q83.175 67.041664 82.56563 66.49479Q81.95625 65.947914 81.95625 65.135414Q81.95625 64.11979 82.69063 63.58854Q83.44063 63.041664 84.8625 63.041664L85.62813 63.041664L85.62813 62.68229Q85.62813 62.24479 85.40938 61.979164Q85.19063 61.71354 84.69063 61.71354Q84.26875 61.71354 84.01875 61.916664Q83.78438 62.11979 83.78438 62.479164L82.09688 62.479164Q82.09688 61.93229 82.425 61.46354Q82.76875 60.99479 83.39375 60.729164Q84.01875 60.46354 84.78438 60.46354Q85.95625 60.46354 86.64375 61.05729Q87.33125 61.635414 87.33125 62.697914L87.33125 65.447914Q87.34688 66.354164 87.58125 66.822914L87.58125 66.916664L85.87813 66.916664ZM84.47188 65.74479Q84.84688 65.74479 85.15938 65.572914Q85.4875 65.40104 85.62813 65.11979L85.62813 64.02604L85.00313 64.02604Q83.7375 64.02604 83.64375 64.916664L83.64375 65.010414Q83.64375 65.322914 83.8625 65.541664Q84.08125 65.74479 84.47188 65.74479ZM94.62813 65.166664Q94.62813 64.854164 94.31563 64.68229Q94.01875 64.49479 93.34688 64.354164Q91.08125 63.885414 91.08125 62.43229Q91.08125 61.58854 91.76875 61.02604Q92.47188 60.46354 93.6125 60.46354Q94.81563 60.46354 95.53438 61.02604Q96.26875 61.58854 96.26875 62.510414L94.56563 62.510414Q94.56563 62.135414 94.33125 61.90104Q94.09688 61.666664 93.59688 61.666664Q93.175 61.666664 92.94063 61.86979Q92.70625 62.05729 92.70625 62.354164Q92.70625 62.635414 92.97188 62.80729Q93.2375 62.979164 93.8625 63.104164Q94.50313 63.229164 94.94063 63.385414Q96.28438 63.885414 96.28438 65.08854Q96.28438 65.96354 95.53438 66.510414Q94.8 67.041664 93.6125 67.041664Q92.81563 67.041664 92.19063 66.760414Q91.58125 66.46354 91.22188 65.979164Q90.87813 65.479164 90.87813 64.90104L92.4875 64.90104Q92.50313 65.354164 92.81563 65.604164Q93.12813 65.83854 93.64375 65.83854Q94.14375 65.83854 94.37813 65.65104Q94.62813 65.46354 94.62813 65.166664ZM100.87813 66.916664Q100.75313 66.68229 100.70625 66.354164Q100.09688 67.041664 99.1125 67.041664Q98.175 67.041664 97.56563 66.49479Q96.95625 65.947914 96.95625 65.135414Q96.95625 64.11979 97.69063 63.58854Q98.44063 63.041664 99.8625 63.041664L100.62813 63.041664L100.62813 62.68229Q100.62813 62.24479 100.40938 61.979164Q100.19063 61.71354 99.69063 61.71354Q99.26875 61.71354 99.01875 61.916664Q98.78438 62.11979 98.78438 62.479164L97.09688 62.479164Q97.09688 61.93229 97.425 61.46354Q97.76875 60.99479 98.39375 60.729164Q99.01875 60.46354 99.78438 60.46354Q100.95625 60.46354 101.64375 61.05729Q102.33125 61.635414 102.33125 62.697914L102.33125 65.447914Q102.34688 66.354164 102.58125 66.822914L102.58125 66.916664L100.87813 66.916664ZM99.47188 65.74479Q99.84688 65.74479 100.15938 65.572914Q100.4875 65.40104 100.62813 65.11979L100.62813 64.02604L100.00313 64.02604Q98.7375 64.02604 98.64375 64.916664L98.64375 65.010414Q98.64375 65.322914 98.8625 65.541664Q99.08125 65.74479 99.47188 65.74479ZM104.9875 66.916664L103.28438 66.916664L103.28438 57.916664L104.9875 57.916664L104.9875 66.916664ZM109.1125 67.041664Q107.72188 67.041664 106.84688 66.18229Q105.97188 65.322914 105.97188 63.90104L105.97188 63.729164Q105.97188 62.77604 106.33125 62.02604Q106.70625 61.27604 107.37813 60.86979Q108.06563 60.46354 108.925 60.46354Q110.2375 60.46354 110.97188 61.291664Q111.72188 62.104164 111.72188 63.604164L111.72188 64.291664L107.69063 64.291664Q107.76875 64.916664 108.175 65.291664Q108.59688 65.666664 109.2375 65.666664Q110.20625 65.666664 110.75313 64.96354L111.59688 65.885414Q111.20625 66.43229 110.55 66.74479Q109.90938 67.041664 109.1125 67.041664ZM108.925 61.822914Q108.425 61.822914 108.1125 62.166664Q107.8 62.510414 107.70625 63.135414L110.06563 63.135414L110.06563 63.010414Q110.05 62.447914 109.75313 62.135414Q109.47188 61.822914 108.925 61.822914ZM115.62813 65.166664Q115.62813 64.854164 115.31563 64.68229Q115.01875 64.49479 114.34688 64.354164Q112.08125 63.885414 112.08125 62.43229Q112.08125 61.58854 112.76875 61.02604Q113.47188 60.46354 114.6125 60.46354Q115.81563 60.46354 116.53438 61.02604Q117.26875 61.58854 117.26875 62.510414L115.56563 62.510414Q115.56563 62.135414 115.33125 61.90104Q115.09688 61.666664 114.59688 61.666664Q114.175 61.666664 113.94063 61.86979Q113.70625 62.05729 113.70625 62.354164Q113.70625 62.635414 113.97188 62.80729Q114.2375 62.979164 114.8625 63.104164Q115.50313 63.229164 115.94063 63.385414Q117.28438 63.885414 117.28438 65.08854Q117.28438 65.96354 116.53438 66.510414Q115.8 67.041664 114.6125 67.041664Q113.81563 67.041664 113.19063 66.760414Q112.58125 66.46354 112.22188 65.979164Q111.87813 65.479164 111.87813 64.90104L113.4875 64.90104Q113.50313 65.354164 113.81563 65.604164Q114.12813 65.83854 114.64375 65.83854Q115.14375 65.83854 115.37813 65.65104Q115.62813 65.46354 115.62813 65.166664Z" fill-rule="nonzero"/><path fill="#9e9e9e" d="M23.2375 84.916664L21.55 84.916664L21.55 78.385414L19.534374 79.010414L19.534374 77.635414L23.065624 76.36979L23.2375 76.36979L23.2375 84.916664ZM31.878124 81.385414Q31.878124 83.15104 31.14375 84.104164Q30.409374 85.041664 29.003124 85.041664Q27.596874 85.041664 26.8625 84.11979Q26.128124 83.197914 26.1125 81.479164L26.1125 79.90104Q26.1125 78.11979 26.846874 77.197914Q27.596874 76.260414 28.9875 76.260414Q30.378124 76.260414 31.1125 77.18229Q31.8625 78.104164 31.878124 79.822914L31.878124 81.385414ZM30.175 79.666664Q30.175 78.604164 29.878124 78.11979Q29.596874 77.635414 28.9875 77.635414Q28.39375 77.635414 28.096874 78.104164Q27.815624 78.55729 27.8 79.541664L27.8 81.604164Q27.8 82.65104 28.08125 83.166664Q28.3625 83.666664 29.003124 83.666664Q29.6125 83.666664 29.89375 83.18229Q30.175 82.697914 30.175 81.697914L30.175 79.666664ZM33.64375 87.05729L32.753124 86.58854L32.971874 86.21354Q33.3625 85.49479 33.378124 84.791664L33.378124 83.479164L34.8 83.479164L34.8 84.65104Q34.784374 85.291664 34.45625 85.947914Q34.14375 86.61979 33.64375 87.05729ZM41.878124 81.385414Q41.878124 83.15104 41.14375 84.104164Q40.409374 85.041664 39.003124 85.041664Q37.596874 85.041664 36.8625 84.11979Q36.128124 83.197914 36.1125 81.479164L36.1125 79.90104Q36.1125 78.11979 36.846874 77.197914Q37.596874 76.260414 38.9875 76.260414Q40.378124 76.260414 41.1125 77.18229Q41.8625 78.104164 41.878124 79.822914L41.878124 81.385414ZM40.175 79.666664Q40.175 78.604164 39.878124 78.11979Q39.596874 77.635414 38.9875 77.635414Q38.39375 77.635414 38.096874 78.104164Q37.815624 78.55729 37.8 79.541664L37.8 81.604164Q37.8 82.65104 38.08125 83.166664Q38.3625 83.666664 39.003124 83.666664Q39.6125 83.666664 39.89375 83.18229Q40.175 82.697914 40.175 81.697914L40.175 79.666664ZM43.1125 78.02604Q43.1125 77.24479 43.6125 76.760414Q44.128124 76.260414 44.95625 76.260414Q45.784374 76.260414 46.3 76.74479Q46.815624 77.229164 46.815624 78.05729L46.815624 78.479164Q46.815624 79.260414 46.3 79.74479Q45.784374 80.229164 44.971874 80.229164Q44.128124 80.229164 43.6125 79.74479Q43.1125 79.260414 43.1125 78.447914L43.1125 78.02604ZM44.2375 78.479164Q44.2375 78.822914 44.440624 79.041664Q44.64375 79.260414 44.971874 79.260414Q45.3 79.260414 45.4875 79.041664Q45.675 78.822914 45.675 78.46354L45.675 78.02604Q45.675 77.666664 45.4875 77.46354Q45.3 77.24479 44.95625 77.24479Q44.628124 77.24479 44.425 77.46354Q44.2375 77.666664 44.2375 78.041664L44.2375 78.479164ZM47.190624 82.822914Q47.190624 82.02604 47.70625 81.55729Q48.221874 81.072914 49.034374 81.072914Q49.8625 81.072914 50.378124 81.55729Q50.89375 82.02604 50.89375 82.854164L50.89375 83.27604Q50.89375 84.072914 50.39375 84.55729Q49.89375 85.041664 49.05 85.041664Q48.20625 85.041664 47.690624 84.55729Q47.190624 84.05729 47.190624 83.260414L47.190624 82.822914ZM48.315624 83.27604Q48.315624 83.604164 48.51875 83.83854Q48.7375 84.05729 49.05 84.05729Q49.76875 84.05729 49.76875 83.27604L49.76875 82.822914Q49.76875 82.479164 49.565624 82.260414Q49.3625 82.041664 49.034374 82.041664Q48.70625 82.041664 48.503124 82.260414Q48.315624 82.479164 48.315624 82.83854L48.315624 83.27604ZM45.3 84.27604L44.471874 83.83854L48.64375 77.166664L49.471874 77.604164L45.3 84.27604Z" fill-rule="nonzero"/><path stroke="#757575" stroke-width="1.0" stroke-linecap="butt" d="M18.55 71.416664L151.23334 71.416664L262.32715 69.2721" fill-rule="nonzero"/><path fill="#9e9e9e" d="M264.32715 69.2721C264.32715 68.167534 263.4317 67.2721 262.32715 67.2721C261.22256 67.2721 260.32715 68.167534 260.32715 69.2721C260.32715 70.37667 261.22256 71.2721 262.32715 71.2721C263.4317 71.2721 264.32715 70.37667 264.32715 69.2721" fill-rule="nonzero"/><path fill="#1a1a1a" d="M26.315624 95.83854Q26.315624 97.104164 25.8625 98.05729Q25.425 98.99479 24.596874 99.52604Q23.76875 100.041664 22.70625 100.041664Q21.64375 100.041664 20.8 99.52604Q19.971874 99.010414 19.51875 98.072914Q19.065624 97.11979 19.05 95.885414L19.05 95.46354Q19.05 94.21354 19.503124 93.260414Q19.95625 92.291664 20.784374 91.77604Q21.628124 91.260414 22.690624 91.260414Q23.753124 91.260414 24.58125 91.77604Q25.409374 92.291664 25.8625 93.260414Q26.315624 94.21354 26.315624 95.46354L26.315624 95.83854ZM24.534374 95.46354Q24.534374 94.11979 24.05 93.416664Q23.58125 92.71354 22.690624 92.71354Q21.8 92.71354 21.315624 93.416664Q20.846874 94.104164 20.83125 95.43229L20.83125 95.83854Q20.83125 97.15104 21.315624 97.86979Q21.8 98.58854 22.70625 98.58854Q23.58125 98.58854 24.05 97.90104Q24.534374 97.197914 24.534374 95.86979L24.534374 95.46354ZM29.221874 92.010414L29.221874 93.572914L30.315624 93.572914L30.315624 94.822914L29.221874 94.822914L29.221874 97.979164Q29.221874 98.33854 29.3625 98.49479Q29.503124 98.635414 29.878124 98.635414Q30.159374 98.635414 30.378124 98.604164L30.378124 99.885414Q29.878124 100.041664 29.346874 100.041664Q27.565624 100.041664 27.534374 98.229164L27.534374 94.822914L26.6125 94.822914L26.6125 93.572914L27.534374 93.572914L27.534374 92.010414L29.221874 92.010414ZM32.846874 94.260414Q33.534374 93.46354 34.55 93.46354Q36.6125 93.46354 36.64375 95.854164L36.64375 99.916664L34.940624 99.916664L34.940624 95.90104Q34.940624 95.354164 34.70625 95.104164Q34.471874 94.83854 33.925 94.83854Q33.190624 94.83854 32.846874 95.416664L32.846874 99.916664L31.159374 99.916664L31.159374 90.916664L32.846874 90.916664L32.846874 94.260414ZM41.1125 100.041664Q39.721874 100.041664 38.846874 99.18229Q37.971874 98.322914 37.971874 96.90104L37.971874 96.729164Q37.971874 95.77604 38.33125 95.02604Q38.70625 94.27604 39.378124 93.86979Q40.065624 93.46354 40.925 93.46354Q42.2375 93.46354 42.971874 94.291664Q43.721874 95.104164 43.721874 96.604164L43.721874 97.291664L39.690624 97.291664Q39.76875 97.916664 40.175 98.291664Q40.596874 98.666664 41.2375 98.666664Q42.20625 98.666664 42.753124 97.96354L43.596874 98.885414Q43.20625 99.43229 42.55 99.74479Q41.909374 100.041664 41.1125 100.041664ZM40.925 94.822914Q40.425 94.822914 40.1125 95.166664Q39.8 95.510414 39.70625 96.135414L42.065624 96.135414L42.065624 96.010414Q42.05 95.447914 41.753124 95.135414Q41.471874 94.822914 40.925 94.822914ZM47.76875 95.166664Q47.425 95.11979 47.159374 95.11979Q46.190624 95.11979 45.89375 95.760414L45.89375 99.916664L44.20625 99.916664L44.20625 93.572914L45.8 93.572914L45.846874 94.33854Q46.3625 93.46354 47.253124 93.46354Q47.534374 93.46354 47.784374 93.541664L47.76875 95.166664Z" fill-rule="nonzero"/><path fill="#9e9e9e" d="M20.846874 112.90104L21.753124 112.90104Q22.39375 112.90104 22.70625 112.58854Q23.01875 112.260414 23.01875 111.729164Q23.01875 111.21354 22.70625 110.93229Q22.409374 110.635414 21.8625 110.635414Q21.378124 110.635414 21.05 110.90104Q20.721874 111.166664 20.721874 111.58854L19.034374 111.58854Q19.034374 110.93229 19.39375 110.40104Q19.753124 109.86979 20.39375 109.572914Q21.05 109.260414 21.83125 109.260414Q23.175 109.260414 23.940624 109.916664Q24.721874 110.55729 24.721874 111.697914Q24.721874 112.291664 24.3625 112.791664Q24.003124 113.27604 23.425 113.52604Q24.14375 113.791664 24.4875 114.30729Q24.846874 114.822914 24.846874 115.52604Q24.846874 116.666664 24.01875 117.354164Q23.190624 118.041664 21.83125 118.041664Q20.55 118.041664 19.7375 117.36979Q18.925 116.68229 18.925 115.572914L20.6125 115.572914Q20.6125 116.05729 20.971874 116.36979Q21.346874 116.666664 21.8625 116.666664Q22.471874 116.666664 22.815624 116.354164Q23.159374 116.02604 23.159374 115.49479Q23.159374 114.229164 21.753124 114.229164L20.846874 114.229164L20.846874 112.90104ZM26.64375 120.05729L25.753124 119.58854L25.971874 119.21354Q26.3625 118.49479 26.378124 117.791664L26.378124 116.479164L27.8 116.479164L27.8 117.65104Q27.784374 118.291664 27.45625 118.947914Q27.14375 119.61979 26.64375 120.05729ZM34.878124 114.385414Q34.878124 116.15104 34.14375 117.104164Q33.409374 118.041664 32.003124 118.041664Q30.596874 118.041664 29.8625 117.11979Q29.128124 116.197914 29.1125 114.479164L29.1125 112.90104Q29.1125 111.11979 29.846874 110.197914Q30.596874 109.260414 31.9875 109.260414Q33.378124 109.260414 34.1125 110.18229Q34.8625 111.104164 34.878124 112.822914L34.878124 114.385414ZM33.175 112.666664Q33.175 111.604164 32.878124 111.11979Q32.596874 110.635414 31.9875 110.635414Q31.39375 110.635414 31.096874 111.104164Q30.815624 111.55729 30.8 112.541664L30.8 114.604164Q30.8 115.65104 31.08125 116.166664Q31.3625 116.666664 32.003124 116.666664Q32.6125 116.666664 32.89375 116.18229Q33.175 115.697914 33.175 114.697914L33.175 112.666664ZM36.1125 111.02604Q36.1125 110.24479 36.6125 109.760414Q37.128124 109.260414 37.95625 109.260414Q38.784374 109.260414 39.3 109.74479Q39.815624 110.229164 39.815624 111.05729L39.815624 111.479164Q39.815624 112.260414 39.3 112.74479Q38.784374 113.229164 37.971874 113.229164Q37.128124 113.229164 36.6125 112.74479Q36.1125 112.260414 36.1125 111.447914L36.1125 111.02604ZM37.2375 111.479164Q37.2375 111.822914 37.440624 112.041664Q37.64375 112.260414 37.971874 112.260414Q38.3 112.260414 38.4875 112.041664Q38.675 111.822914 38.675 111.46354L38.675 111.02604Q38.675 110.666664 38.4875 110.46354Q38.3 110.24479 37.95625 110.24479Q37.628124 110.24479 37.425 110.46354Q37.2375 110.666664 37.2375 111.041664L37.2375 111.479164ZM40.190624 115.822914Q40.190624 115.02604 40.70625 114.55729Q41.221874 114.072914 42.034374 114.072914Q42.8625 114.072914 43.378124 114.55729Q43.89375 115.02604 43.89375 115.854164L43.89375 116.27604Q43.89375 117.072914 43.39375 117.55729Q42.89375 118.041664 42.05 118.041664Q41.20625 118.041664 40.690624 117.55729Q40.190624 117.05729 40.190624 116.260414L40.190624 115.822914ZM41.315624 116.27604Q41.315624 116.604164 41.51875 116.83854Q41.7375 117.05729 42.05 117.05729Q42.76875 117.05729 42.76875 116.27604L42.76875 115.822914Q42.76875 115.479164 42.565624 115.260414Q42.3625 115.041664 42.034374 115.041664Q41.70625 115.041664 41.503124 115.260414Q41.315624 115.479164 41.315624 115.83854L41.315624 116.27604ZM38.3 117.27604L37.471874 116.83854L41.64375 110.166664L42.471874 110.604164L38.3 117.27604Z" fill-rule="nonzero"/><path stroke="#757575" stroke-width="1.0" stroke-linecap="butt" d="M18.55 104.416664L151.23334 104.416664L212.5379 97.67139" fill-rule="nonzero"/><path fill="#9e9e9e" d="M214.5379 97.67139C214.5379 96.56682 213.64247 95.67139 212.5379 95.67139C211.43333 95.67139 210.5379 96.56682 210.5379 97.67139C210.5379 98.775955 211.43333 99.67139 212.5379 99.67139C213.64247 99.67139 214.5379 98.775955 214.5379 97.67139" fill-rule="nonzero"/><path fill="#1a1a1a" d="M21.065624 196.18333L21.065624 199.18333L19.315624 199.18333L19.315624 190.65208L22.64375 190.65208Q23.596874 190.65208 24.33125 191.01146Q25.065624 191.35521 25.45625 192.01146Q25.846874 192.65208 25.846874 193.48021Q25.846874 194.73021 24.9875 195.46458Q24.128124 196.18333 22.6125 196.18333L21.065624 196.18333ZM21.065624 194.74583L22.64375 194.74583Q23.33125 194.74583 23.690624 194.41771Q24.065624 194.08958 24.065624 193.48021Q24.065624 192.85521 23.690624 192.48021Q23.33125 192.08958 22.675 192.07396L21.065624 192.07396L21.065624 194.74583ZM31.003124 198.54271Q30.378124 199.30833 29.26875 199.30833Q28.2375 199.30833 27.70625 198.71458Q27.175 198.12083 27.159374 196.99583L27.159374 192.83958L28.846874 192.83958L28.846874 196.93333Q28.846874 197.93333 29.753124 197.93333Q30.6125 197.93333 30.940624 197.32396L30.940624 192.83958L32.64375 192.83958L32.64375 199.18333L31.05 199.18333L31.003124 198.54271ZM39.909374 196.07396Q39.909374 197.58958 39.253124 198.44896Q38.6125 199.30833 37.440624 199.30833Q36.409374 199.30833 35.8 198.51146L35.721874 199.18333L34.20625 199.18333L34.20625 190.18333L35.89375 190.18333L35.89375 193.41771Q36.4875 192.73021 37.440624 192.73021Q38.596874 192.73021 39.253124 193.58958Q39.909374 194.43333 39.909374 195.98021L39.909374 196.07396ZM38.221874 195.94896Q38.221874 194.98021 37.909374 194.54271Q37.6125 194.10521 37.003124 194.10521Q36.20625 194.10521 35.89375 194.76146L35.89375 197.26146Q36.20625 197.93333 37.01875 197.93333Q37.846874 197.93333 38.096874 197.12083Q38.221874 196.74583 38.221874 195.94896ZM42.9875 199.18333L41.284374 199.18333L41.284374 190.18333L42.9875 190.18333L42.9875 199.18333ZM45.9875 199.18333L44.284374 199.18333L44.284374 192.83958L45.9875 192.83958L45.9875 199.18333ZM44.190624 191.19896Q44.190624 190.82396 44.440624 190.57396Q44.70625 190.32396 45.14375 190.32396Q45.565624 190.32396 45.815624 190.57396Q46.08125 190.82396 46.08125 191.19896Q46.08125 191.58958 45.815624 191.83958Q45.565624 192.07396 45.128124 192.07396Q44.70625 192.07396 44.440624 191.83958Q44.190624 191.58958 44.190624 191.19896ZM49.83125 197.93333Q50.3 197.93333 50.596874 197.68333Q50.89375 197.41771 50.909374 196.99583L52.4875 196.99583Q52.4875 197.63646 52.14375 198.18333Q51.8 198.71458 51.190624 199.01146Q50.596874 199.30833 49.8625 199.30833Q48.503124 199.30833 47.721874 198.44896Q46.940624 197.57396 46.940624 196.04271L46.940624 195.93333Q46.940624 194.46458 47.721874 193.60521Q48.503124 192.73021 49.8625 192.73021Q51.05 192.73021 51.76875 193.40208Q52.4875 194.07396 52.4875 195.19896L50.909374 195.19896Q50.89375 194.71458 50.596874 194.40208Q50.3 194.08958 49.83125 194.08958Q49.2375 194.08958 48.925 194.52708Q48.628124 194.96458 48.628124 195.91771L48.628124 196.10521Q48.628124 197.07396 48.925 197.51146Q49.221874 197.93333 49.83125 197.93333ZM54.9875 199.18333L53.284374 199.18333L53.284374 192.83958L54.9875 192.83958L54.9875 199.18333ZM53.190624 191.19896Q53.190624 190.82396 53.440624 190.57396Q53.70625 190.32396 54.14375 190.32396Q54.565624 190.32396 54.815624 190.57396Q55.08125 190.82396 55.08125 191.19896Q55.08125 191.58958 54.815624 191.83958Q54.565624 192.07396 54.128124 192.07396Q53.70625 192.07396 53.440624 191.83958Q53.190624 191.58958 53.190624 191.19896ZM58.221874 191.27708L58.221874 192.83958L59.315624 192.83958L59.315624 194.08958L58.221874 194.08958L58.221874 197.24583Q58.221874 197.60521 58.3625 197.76146Q58.503124 197.90208 58.878124 197.90208Q59.159374 197.90208 59.378124 197.87083L59.378124 199.15208Q58.878124 199.30833 58.346874 199.30833Q56.565624 199.30833 56.534374 197.49583L56.534374 194.08958L55.6125 194.08958L55.6125 192.83958L56.534374 192.83958L56.534374 191.27708L58.221874 191.27708ZM62.565624 196.79271L63.7375 192.83958L65.55 192.83958L63.003124 200.16771L62.8625 200.49583Q62.3 201.74583 60.9875 201.74583Q60.628124 201.74583 60.2375 201.63646L60.2375 200.35521L60.503124 200.35521Q60.9875 200.35521 61.221874 200.19896Q61.45625 200.05833 61.596874 199.73021L61.784374 199.19896L59.565624 192.83958L61.39375 192.83958L62.565624 196.79271ZM68.97188 196.88646Q68.97188 196.29271 69.3 195.79271Q69.62813 195.29271 70.51875 194.66771Q70.12813 194.16771 69.90938 193.71458Q69.70625 193.26146 69.70625 192.77708Q69.70625 191.77708 70.33125 191.15208Q70.95625 190.52708 72.01875 190.52708Q72.9875 190.52708 73.59688 191.10521Q74.20625 191.66771 74.20625 192.52708Q74.20625 193.54271 73.175 194.32396L72.51875 194.79271L73.9875 196.51146Q74.33125 195.82396 74.33125 195.01146L75.76875 195.01146Q75.76875 196.66771 75.00313 197.69896L76.28438 199.18333L74.3625 199.18333L73.925 198.68333Q72.9875 199.30833 71.75313 199.30833Q70.4875 199.30833 69.72188 198.63646Q68.97188 197.96458 68.97188 196.88646ZM71.83125 197.93333Q72.44063 197.93333 72.9875 197.60521L71.31563 195.65208L71.19063 195.74583Q70.65938 196.18333 70.65938 196.79271Q70.65938 197.30833 70.9875 197.62083Q71.31563 197.93333 71.83125 197.93333ZM71.22188 192.76146Q71.22188 193.19896 71.7375 193.85521L72.19063 193.55833Q72.53438 193.33958 72.65938 193.13646Q72.8 192.91771 72.8 192.63646Q72.8 192.33958 72.58125 192.12083Q72.3625 191.90208 72.01875 191.90208Q71.65938 191.90208 71.44063 192.13646Q71.22188 192.37083 71.22188 192.76146ZM85.12813 197.41771L82.05 197.41771L81.45625 199.18333L79.59688 199.18333L82.76875 190.65208L84.39375 190.65208L87.59688 199.18333L85.72188 199.18333L85.12813 197.41771ZM82.51875 195.99583L84.65938 195.99583L83.58125 192.80833L82.51875 195.99583ZM87.94063 195.96458Q87.94063 194.48021 88.59688 193.60521Q89.26875 192.73021 90.425 192.73021Q91.34688 192.73021 91.95625 193.41771L91.95625 190.18333L93.64375 190.18333L93.64375 199.18333L92.12813 199.18333L92.03438 198.51146Q91.40938 199.30833 90.40938 199.30833Q89.28438 199.30833 88.6125 198.43333Q87.94063 197.54271 87.94063 195.96458ZM89.62813 196.08958Q89.62813 196.98021 89.94063 197.46458Q90.25313 197.93333 90.84688 197.93333Q91.62813 197.93333 91.95625 197.26146L91.95625 194.76146Q91.62813 194.10521 90.8625 194.10521Q89.62813 194.10521 89.62813 196.08958ZM94.94063 195.96458Q94.94063 194.48021 95.59688 193.60521Q96.26875 192.73021 97.425 192.73021Q98.34688 192.73021 98.95625 193.41771L98.95625 190.18333L100.64375 190.18333L100.64375 199.18333L99.12813 199.18333L99.03438 198.51146Q98.40938 199.30833 97.40938 199.30833Q96.28438 199.30833 95.6125 198.43333Q94.94063 197.54271 94.94063 195.96458ZM96.62813 196.08958Q96.62813 196.98021 96.94063 197.46458Q97.25313 197.93333 97.84688 197.93333Q98.62813 197.93333 98.95625 197.26146L98.95625 194.76146Q98.62813 194.10521 97.8625 194.10521Q96.62813 194.10521 96.62813 196.08958ZM105.62813 197.43333Q105.62813 197.12083 105.31563 196.94896Q105.01875 196.76146 104.34688 196.62083Q102.08125 196.15208 102.08125 194.69896Q102.08125 193.85521 102.76875 193.29271Q103.47188 192.73021 104.6125 192.73021Q105.81563 192.73021 106.53438 193.29271Q107.26875 193.85521 107.26875 194.77708L105.56563 194.77708Q105.56563 194.40208 105.33125 194.16771Q105.09688 193.93333 104.59688 193.93333Q104.175 193.93333 103.94063 194.13646Q103.70625 194.32396 103.70625 194.62083Q103.70625 194.90208 103.97188 195.07396Q104.2375 195.24583 104.8625 195.37083Q105.50313 195.49583 105.94063 195.65208Q107.28438 196.15208 107.28438 197.35521Q107.28438 198.23021 106.53438 198.77708Q105.8 199.30833 104.6125 199.30833Q103.81563 199.30833 103.19063 199.02708Q102.58125 198.73021 102.22188 198.24583Q101.87813 197.74583 101.87813 197.16771L103.4875 197.16771Q103.50313 197.62083 103.81563 197.87083Q104.12813 198.10521 104.64375 198.10521Q105.14375 198.10521 105.37813 197.91771Q105.62813 197.73021 105.62813 197.43333Z" fill-rule="nonzero"/><path fill="#9e9e9e" d="M24.971874 217.18333L19.128124 217.18333L19.128124 216.02708L21.89375 213.07396Q22.45625 212.46458 22.721874 211.99583Q23.003124 211.52708 23.003124 211.12083Q23.003124 210.54271 22.70625 210.23021Q22.425 209.90208 21.89375 209.90208Q21.315624 209.90208 20.9875 210.29271Q20.659374 210.68333 20.659374 211.33958L18.95625 211.33958Q18.95625 210.55833 19.33125 209.91771Q19.70625 209.26146 20.378124 208.90208Q21.065624 208.52708 21.925 208.52708Q23.2375 208.52708 23.971874 209.16771Q24.70625 209.79271 24.70625 210.94896Q24.70625 211.58958 24.378124 212.24583Q24.05 212.90208 23.253124 213.77708L21.315624 215.82396L24.971874 215.82396L24.971874 217.18333ZM31.14375 213.96458L32.1125 213.96458L32.1125 215.33958L31.14375 215.33958L31.14375 217.18333L29.440624 217.18333L29.440624 215.33958L25.95625 215.33958L25.878124 214.27708L29.425 208.65208L31.14375 208.65208L31.14375 213.96458ZM27.565624 213.96458L29.440624 213.96458L29.440624 210.96458L29.33125 211.15208L27.565624 213.96458ZM33.64375 219.32396L32.753124 218.85521L32.971874 218.48021Q33.3625 217.76146 33.378124 217.05833L33.378124 215.74583L34.8 215.74583L34.8 216.91771Q34.784374 217.55833 34.45625 218.21458Q34.14375 218.88646 33.64375 219.32396ZM41.878124 213.65208Q41.878124 215.41771 41.14375 216.37083Q40.409374 217.30833 39.003124 217.30833Q37.596874 217.30833 36.8625 216.38646Q36.128124 215.46458 36.1125 213.74583L36.1125 212.16771Q36.1125 210.38646 36.846874 209.46458Q37.596874 208.52708 38.9875 208.52708Q40.378124 208.52708 41.1125 209.44896Q41.8625 210.37083 41.878124 212.08958L41.878124 213.65208ZM40.175 211.93333Q40.175 210.87083 39.878124 210.38646Q39.596874 209.90208 38.9875 209.90208Q38.39375 209.90208 38.096874 210.37083Q37.815624 210.82396 37.8 211.80833L37.8 213.87083Q37.8 214.91771 38.08125 215.43333Q38.3625 215.93333 39.003124 215.93333Q39.6125 215.93333 39.89375 215.44896Q40.175 214.96458 40.175 213.96458L40.175 211.93333ZM43.1125 210.29271Q43.1125 209.51146 43.6125 209.02708Q44.128124 208.52708 44.95625 208.52708Q45.784374 208.52708 46.3 209.01146Q46.815624 209.49583 46.815624 210.32396L46.815624 210.74583Q46.815624 211.52708 46.3 212.01146Q45.784374 212.49583 44.971874 212.49583Q44.128124 212.49583 43.6125 212.01146Q43.1125 211.52708 43.1125 210.71458L43.1125 210.29271ZM44.2375 210.74583Q44.2375 211.08958 44.440624 211.30833Q44.64375 211.52708 44.971874 211.52708Q45.3 211.52708 45.4875 211.30833Q45.675 211.08958 45.675 210.73021L45.675 210.29271Q45.675 209.93333 45.4875 209.73021Q45.3 209.51146 44.95625 209.51146Q44.628124 209.51146 44.425 209.73021Q44.2375 209.93333 44.2375 210.30833L44.2375 210.74583ZM47.190624 215.08958Q47.190624 214.29271 47.70625 213.82396Q48.221874 213.33958 49.034374 213.33958Q49.8625 213.33958 50.378124 213.82396Q50.89375 214.29271 50.89375 215.12083L50.89375 215.54271Q50.89375 216.33958 50.39375 216.82396Q49.89375 217.30833 49.05 217.30833Q48.20625 217.30833 47.690624 216.82396Q47.190624 216.32396 47.190624 215.52708L47.190624 215.08958ZM48.315624 215.54271Q48.315624 215.87083 48.51875 216.10521Q48.7375 216.32396 49.05 216.32396Q49.76875 216.32396 49.76875 215.54271L49.76875 215.08958Q49.76875 214.74583 49.565624 214.52708Q49.3625 214.30833 49.034374 214.30833Q48.70625 214.30833 48.503124 214.52708Q48.315624 214.74583 48.315624 215.10521L48.315624 215.54271ZM45.3 216.54271L44.471874 216.10521L48.64375 209.43333L49.471874 209.87083L45.3 216.54271Z" fill-rule="nonzero"/><path stroke="#757575" stroke-width="1.0" stroke-linecap="butt" d="M18.55 203.68333L151.23334 203.68333L164.67166 203.68333" fill-rule="nonzero"/><path fill="#9e9e9e" d="M166.67166 203.68333C166.67166 202.57877 165.77623 201.68333 164.67166 201.68333C163.5671 201.68333 162.67166 202.57877 162.67166 203.68333C162.67166 204.7879 163.5671 205.68333 164.67166 205.68333C165.77623 205.68333 166.67166 204.7879 166.67166 203.68333" fill-rule="nonzero"/><path fill="#1a1a1a" d="M473.6375 59.80729L471.02814 59.80729L471.02814 66.916664L469.2625 66.916664L469.2625 59.80729L466.6844 59.80729L466.6844 58.385414L473.6375 58.385414L473.6375 59.80729ZM477.66876 62.166664Q477.325 62.11979 477.0594 62.11979Q476.09064 62.11979 475.79376 62.760414L475.79376 66.916664L474.10626 66.916664L474.10626 60.572914L475.7 60.572914L475.7469 61.33854Q476.2625 60.46354 477.15314 60.46354Q477.4344 60.46354 477.6844 60.541664L477.66876 62.166664ZM481.77814 66.916664Q481.65314 66.68229 481.60626 66.354164Q480.9969 67.041664 480.0125 67.041664Q479.075 67.041664 478.46564 66.49479Q477.85626 65.947914 477.85626 65.135414Q477.85626 64.11979 478.59064 63.58854Q479.34064 63.041664 480.7625 63.041664L481.52814 63.041664L481.52814 62.68229Q481.52814 62.24479 481.3094 61.979164Q481.09064 61.71354 480.59064 61.71354Q480.16876 61.71354 479.91876 61.916664Q479.6844 62.11979 479.6844 62.479164L477.9969 62.479164Q477.9969 61.93229 478.325 61.46354Q478.66876 60.99479 479.29376 60.729164Q479.91876 60.46354 480.6844 60.46354Q481.85626 60.46354 482.54376 61.05729Q483.23126 61.635414 483.23126 62.697914L483.23126 65.447914Q483.2469 66.354164 483.48126 66.822914L483.48126 66.916664L481.77814 66.916664ZM480.3719 65.74479Q480.7469 65.74479 481.0594 65.572914Q481.3875 65.40104 481.52814 65.11979L481.52814 64.02604L480.90314 64.02604Q479.6375 64.02604 479.54376 64.916664L479.54376 65.010414Q479.54376 65.322914 479.7625 65.541664Q479.98126 65.74479 480.3719 65.74479ZM485.65314 60.572914L485.71564 61.30729Q486.3875 60.46354 487.52814 60.46354Q488.54376 60.46354 489.02814 61.05729Q489.52814 61.635414 489.54376 62.822914L489.54376 66.916664L487.84064 66.916664L487.84064 62.854164Q487.84064 62.322914 487.60626 62.08854Q487.3719 61.83854 486.825 61.83854Q486.1219 61.83854 485.7625 62.447914L485.7625 66.916664L484.0594 66.916664L484.0594 60.572914L485.65314 60.572914ZM494.52814 65.166664Q494.52814 64.854164 494.21564 64.68229Q493.91876 64.49479 493.2469 64.354164Q490.98126 63.885414 490.98126 62.43229Q490.98126 61.58854 491.66876 61.02604Q492.3719 60.46354 493.5125 60.46354Q494.71564 60.46354 495.4344 61.02604Q496.16876 61.58854 496.16876 62.510414L494.46564 62.510414Q494.46564 62.135414 494.23126 61.90104Q493.9969 61.666664 493.4969 61.666664Q493.075 61.666664 492.84064 61.86979Q492.60626 62.05729 492.60626 62.354164Q492.60626 62.635414 492.8719 62.80729Q493.1375 62.979164 493.7625 63.104164Q494.40314 63.229164 494.84064 63.385414Q496.1844 63.885414 496.1844 65.08854Q496.1844 65.96354 495.4344 66.510414Q494.7 67.041664 493.5125 67.041664Q492.71564 67.041664 492.09064 66.760414Q491.48126 66.46354 491.1219 65.979164Q490.77814 65.479164 490.77814 64.90104L492.3875 64.90104Q492.40314 65.354164 492.71564 65.604164Q493.02814 65.83854 493.54376 65.83854Q494.04376 65.83854 494.27814 65.65104Q494.52814 65.46354 494.52814 65.166664ZM500.77814 66.916664Q500.65314 66.68229 500.60626 66.354164Q499.9969 67.041664 499.0125 67.041664Q498.075 67.041664 497.46564 66.49479Q496.85626 65.947914 496.85626 65.135414Q496.85626 64.11979 497.59064 63.58854Q498.34064 63.041664 499.7625 63.041664L500.52814 63.041664L500.52814 62.68229Q500.52814 62.24479 500.3094 61.979164Q500.09064 61.71354 499.59064 61.71354Q499.16876 61.71354 498.91876 61.916664Q498.6844 62.11979 498.6844 62.479164L496.9969 62.479164Q496.9969 61.93229 497.325 61.46354Q497.66876 60.99479 498.29376 60.729164Q498.91876 60.46354 499.6844 60.46354Q500.85626 60.46354 501.54376 61.05729Q502.23126 61.635414 502.23126 62.697914L502.23126 65.447914Q502.2469 66.354164 502.48126 66.822914L502.48126 66.916664L500.77814 66.916664ZM499.3719 65.74479Q499.7469 65.74479 500.0594 65.572914Q500.3875 65.40104 500.52814 65.11979L500.52814 64.02604L499.90314 64.02604Q498.6375 64.02604 498.54376 64.916664L498.54376 65.010414Q498.54376 65.322914 498.7625 65.541664Q498.98126 65.74479 499.3719 65.74479ZM505.73126 65.666664Q506.2 65.666664 506.4969 65.416664Q506.79376 65.15104 506.8094 64.729164L508.3875 64.729164Q508.3875 65.36979 508.04376 65.916664Q507.7 66.447914 507.09064 66.74479Q506.4969 67.041664 505.7625 67.041664Q504.40314 67.041664 503.6219 66.18229Q502.84064 65.30729 502.84064 63.77604L502.84064 63.666664Q502.84064 62.197914 503.6219 61.33854Q504.40314 60.46354 505.7625 60.46354Q506.95 60.46354 507.66876 61.135414Q508.3875 61.80729 508.3875 62.93229L506.8094 62.93229Q506.79376 62.447914 506.4969 62.135414Q506.2 61.822914 505.73126 61.822914Q505.1375 61.822914 504.825 62.260414Q504.52814 62.697914 504.52814 63.65104L504.52814 63.83854Q504.52814 64.80729 504.825 65.24479Q505.1219 65.666664 505.73126 65.666664ZM511.1219 59.010414L511.1219 60.572914L512.21564 60.572914L512.21564 61.822914L511.1219 61.822914L511.1219 64.979164Q511.1219 65.33854 511.2625 65.49479Q511.40314 65.635414 511.77814 65.635414Q512.0594 65.635414 512.27814 65.604164L512.27814 66.885414Q511.77814 67.041664 511.2469 67.041664Q509.46564 67.041664 509.4344 65.229164L509.4344 61.822914L508.5125 61.822914L508.5125 60.572914L509.4344 60.572914L509.4344 59.010414L511.1219 59.010414ZM514.8875 66.916664L513.1844 66.916664L513.1844 60.572914L514.8875 60.572914L514.8875 66.916664ZM513.09064 58.93229Q513.09064 58.55729 513.34064 58.30729Q513.60626 58.05729 514.04376 58.05729Q514.46564 58.05729 514.71564 58.30729Q514.98126 58.55729 514.98126 58.93229Q514.98126 59.322914 514.71564 59.572914Q514.46564 59.80729 514.02814 59.80729Q513.60626 59.80729 513.34064 59.572914Q513.09064 59.322914 513.09064 58.93229ZM515.84064 63.68229Q515.84064 62.74479 516.2 62.010414Q516.5594 61.260414 517.2469 60.86979Q517.9344 60.46354 518.825 60.46354Q520.1219 60.46354 520.91876 61.24479Q521.73126 62.02604 521.825 63.36979L521.84064 63.80729Q521.84064 65.27604 521.02814 66.166664Q520.21564 67.041664 518.84064 67.041664Q517.46564 67.041664 516.65314 66.166664Q515.84064 65.27604 515.84064 63.760414L515.84064 63.68229ZM517.52814 63.80729Q517.52814 64.71354 517.8719 65.197914Q518.21564 65.666664 518.84064 65.666664Q519.46564 65.666664 519.8094 65.197914Q520.15314 64.729164 520.15314 63.68229Q520.15314 62.80729 519.8094 62.322914Q519.46564 61.822914 518.825 61.822914Q518.21564 61.822914 517.8719 62.30729Q517.52814 62.791664 517.52814 63.80729ZM524.65314 60.572914L524.71564 61.30729Q525.3875 60.46354 526.52814 60.46354Q527.54376 60.46354 528.02814 61.05729Q528.52814 61.635414 528.54376 62.822914L528.54376 66.916664L526.84064 66.916664L526.84064 62.854164Q526.84064 62.322914 526.60626 62.08854Q526.3719 61.83854 525.825 61.83854Q525.1219 61.83854 524.7625 62.447914L524.7625 66.916664L523.0594 66.916664L523.0594 60.572914L524.65314 60.572914ZM535.73126 65.666664Q536.2 65.666664 536.4969 65.416664Q536.79376 65.15104 536.8094 64.729164L538.3875 64.729164Q538.3875 65.36979 538.04376 65.916664Q537.7 66.447914 537.09064 66.74479Q536.4969 67.041664 535.7625 67.041664Q534.40314 67.041664 533.6219 66.18229Q532.84064 65.30729 532.84064 63.77604L532.84064 63.666664Q532.84064 62.197914 533.6219 61.33854Q534.40314 60.46354 535.7625 60.46354Q536.95 60.46354 537.66876 61.135414Q538.3875 61.80729 538.3875 62.93229L536.8094 62.93229Q536.79376 62.447914 536.4969 62.135414Q536.2 61.822914 535.73126 61.822914Q535.1375 61.822914 534.825 62.260414Q534.52814 62.697914 534.52814 63.65104L534.52814 63.83854Q534.52814 64.80729 534.825 65.24479Q535.1219 65.666664 535.73126 65.666664ZM538.84064 63.68229Q538.84064 62.74479 539.2 62.010414Q539.5594 61.260414 540.2469 60.86979Q540.9344 60.46354 541.825 60.46354Q543.1219 60.46354 543.91876 61.24479Q544.73126 62.02604 544.825 63.36979L544.84064 63.80729Q544.84064 65.27604 544.02814 66.166664Q543.21564 67.041664 541.84064 67.041664Q540.46564 67.041664 539.65314 66.166664Q538.84064 65.27604 538.84064 63.760414L538.84064 63.68229ZM540.52814 63.80729Q540.52814 64.71354 540.8719 65.197914Q541.21564 65.666664 541.84064 65.666664Q542.46564 65.666664 542.8094 65.197914Q543.15314 64.729164 543.15314 63.68229Q543.15314 62.80729 542.8094 62.322914Q542.46564 61.822914 541.825 61.822914Q541.21564 61.822914 540.8719 62.30729Q540.52814 62.791664 540.52814 63.80729ZM547.6844 60.572914L547.7469 61.291664Q548.41876 60.46354 549.5594 60.46354Q550.79376 60.46354 551.2469 61.43229Q551.91876 60.46354 553.15314 60.46354Q554.1844 60.46354 554.6844 61.072914Q555.1844 61.666664 555.1844 62.86979L555.1844 66.916664L553.4969 66.916664L553.4969 62.86979Q553.4969 62.33854 553.27814 62.08854Q553.075 61.83854 552.52814 61.83854Q551.77814 61.83854 551.48126 62.55729L551.48126 66.916664L549.79376 66.916664L549.79376 62.885414Q549.79376 62.322914 549.575 62.08854Q549.35626 61.83854 548.84064 61.83854Q548.1219 61.83854 547.79376 62.43229L547.79376 66.916664L546.10626 66.916664L546.10626 60.572914L547.6844 60.572914ZM557.8875 66.916664L556.1844 66.916664L556.1844 60.572914L557.8875 60.572914L557.8875 66.916664ZM556.09064 58.93229Q556.09064 58.55729 556.34064 58.30729Q556.60626 58.05729 557.04376 58.05729Q557.46564 58.05729 557.71564 58.30729Q557.98126 58.55729 557.98126 58.93229Q557.98126 59.322914 557.71564 59.572914Q557.46564 59.80729 557.02814 59.80729Q556.60626 59.80729 556.34064 59.572914Q556.09064 59.322914 556.09064 58.93229ZM562.52814 65.166664Q562.52814 64.854164 562.21564 64.68229Q561.91876 64.49479 561.2469 64.354164Q558.98126 63.885414 558.98126 62.43229Q558.98126 61.58854 559.66876 61.02604Q560.3719 60.46354 561.5125 60.46354Q562.71564 60.46354 563.4344 61.02604Q564.16876 61.58854 564.16876 62.510414L562.46564 62.510414Q562.46564 62.135414 562.23126 61.90104Q561.9969 61.666664 561.4969 61.666664Q561.075 61.666664 560.84064 61.86979Q560.60626 62.05729 560.60626 62.354164Q560.60626 62.635414 560.8719 62.80729Q561.1375 62.979164 561.7625 63.104164Q562.40314 63.229164 562.84064 63.385414Q564.1844 63.885414 564.1844 65.08854Q564.1844 65.96354 563.4344 66.510414Q562.7 67.041664 561.5125 67.041664Q560.71564 67.041664 560.09064 66.760414Q559.48126 66.46354 559.1219 65.979164Q558.77814 65.479164 558.77814 64.90104L560.3875 64.90104Q560.40314 65.354164 560.71564 65.604164Q561.02814 65.83854 561.54376 65.83854Q562.04376 65.83854 562.27814 65.65104Q562.52814 65.46354 562.52814 65.166664ZM568.52814 65.166664Q568.52814 64.854164 568.21564 64.68229Q567.91876 64.49479 567.2469 64.354164Q564.98126 63.885414 564.98126 62.43229Q564.98126 61.58854 565.66876 61.02604Q566.3719 60.46354 567.5125 60.46354Q568.71564 60.46354 569.4344 61.02604Q570.16876 61.58854 570.16876 62.510414L568.46564 62.510414Q568.46564 62.135414 568.23126 61.90104Q567.9969 61.666664 567.4969 61.666664Q567.075 61.666664 566.84064 61.86979Q566.60626 62.05729 566.60626 62.354164Q566.60626 62.635414 566.8719 62.80729Q567.1375 62.979164 567.7625 63.104164Q568.40314 63.229164 568.84064 63.385414Q570.1844 63.885414 570.1844 65.08854Q570.1844 65.96354 569.4344 66.510414Q568.7 67.041664 567.5125 67.041664Q566.71564 67.041664 566.09064 66.760414Q565.48126 66.46354 565.1219 65.979164Q564.77814 65.479164 564.77814 64.90104L566.3875 64.90104Q566.40314 65.354164 566.71564 65.604164Q567.02814 65.83854 567.54376 65.83854Q568.04376 65.83854 568.27814 65.65104Q568.52814 65.46354 568.52814 65.166664ZM572.8875 66.916664L571.1844 66.916664L571.1844 60.572914L572.8875 60.572914L572.8875 66.916664ZM571.09064 58.93229Q571.09064 58.55729 571.34064 58.30729Q571.60626 58.05729 572.04376 58.05729Q572.46564 58.05729 572.71564 58.30729Q572.98126 58.55729 572.98126 58.93229Q572.98126 59.322914 572.71564 59.572914Q572.46564 59.80729 572.02814 59.80729Q571.60626 59.80729 571.34064 59.572914Q571.09064 59.322914 571.09064 58.93229ZM573.84064 63.68229Q573.84064 62.74479 574.2 62.010414Q574.5594 61.260414 575.2469 60.86979Q575.9344 60.46354 576.825 60.46354Q578.1219 60.46354 578.91876 61.24479Q579.73126 62.02604 579.825 63.36979L579.84064 63.80729Q579.84064 65.27604 579.02814 66.166664Q578.21564 67.041664 576.84064 67.041664Q575.46564 67.041664 574.65314 66.166664Q573.84064 65.27604 573.84064 63.760414L573.84064 63.68229ZM575.52814 63.80729Q575.52814 64.71354 575.8719 65.197914Q576.21564 65.666664 576.84064 65.666664Q577.46564 65.666664 577.8094 65.197914Q578.15314 64.729164 578.15314 63.68229Q578.15314 62.80729 577.8094 62.322914Q577.46564 61.822914 576.825 61.822914Q576.21564 61.822914 575.8719 62.30729Q575.52814 62.791664 575.52814 63.80729ZM582.65314 60.572914L582.71564 61.30729Q583.3875 60.46354 584.52814 60.46354Q585.54376 60.46354 586.02814 61.05729Q586.52814 61.635414 586.54376 62.822914L586.54376 66.916664L584.84064 66.916664L584.84064 62.854164Q584.84064 62.322914 584.60626 62.08854Q584.3719 61.83854 583.825 61.83854Q583.1219 61.83854 582.7625 62.447914L582.7625 66.916664L581.0594 66.916664L581.0594 60.572914L582.65314 60.572914ZM591.52814 65.166664Q591.52814 64.854164 591.21564 64.68229Q590.91876 64.49479 590.2469 64.354164Q587.98126 63.885414 587.98126 62.43229Q587.98126 61.58854 588.66876 61.02604Q589.3719 60.46354 590.5125 60.46354Q591.71564 60.46354 592.4344 61.02604Q593.16876 61.58854 593.16876 62.510414L591.46564 62.510414Q591.46564 62.135414 591.23126 61.90104Q590.9969 61.666664 590.4969 61.666664Q590.075 61.666664 589.84064 61.86979Q589.60626 62.05729 589.60626 62.354164Q589.60626 62.635414 589.8719 62.80729Q590.1375 62.979164 590.7625 63.104164Q591.40314 63.229164 591.84064 63.385414Q593.1844 63.885414 593.1844 65.08854Q593.1844 65.96354 592.4344 66.510414Q591.7 67.041664 590.5125 67.041664Q589.71564 67.041664 589.09064 66.760414Q588.48126 66.46354 588.1219 65.979164Q587.77814 65.479164 587.77814 64.90104L589.3875 64.90104Q589.40314 65.354164 589.71564 65.604164Q590.02814 65.83854 590.54376 65.83854Q591.04376 65.83854 591.27814 65.65104Q591.52814 65.46354 591.52814 65.166664Z" fill-rule="nonzero"/><path fill="#9e9e9e" d="M568.27814 80.71354L568.77814 76.385414L573.5594 76.385414L573.5594 77.791664L570.16876 77.791664L569.95 79.635414Q570.5594 79.30729 571.23126 79.30729Q572.45 79.30729 573.1375 80.072914Q573.84064 80.822914 573.84064 82.18229Q573.84064 83.010414 573.48126 83.666664Q573.1375 84.30729 572.48126 84.68229Q571.84064 85.041664 570.95 85.041664Q570.1844 85.041664 569.5125 84.729164Q568.85626 84.40104 568.46564 83.83854Q568.09064 83.27604 568.0594 82.541664L569.7469 82.541664Q569.79376 83.072914 570.10626 83.36979Q570.4344 83.666664 570.95 83.666664Q571.52814 83.666664 571.825 83.260414Q572.1375 82.83854 572.1375 82.08854Q572.1375 81.354164 571.77814 80.979164Q571.4344 80.58854 570.77814 80.58854Q570.16876 80.58854 569.79376 80.90104L569.6375 81.05729L568.27814 80.71354ZM575.54376 87.05729L574.65314 86.58854L574.8719 86.21354Q575.2625 85.49479 575.27814 84.791664L575.27814 83.479164L576.7 83.479164L576.7 84.65104Q576.6844 85.291664 576.35626 85.947914Q576.04376 86.61979 575.54376 87.05729ZM583.77814 81.385414Q583.77814 83.15104 583.04376 84.104164Q582.3094 85.041664 580.90314 85.041664Q579.4969 85.041664 578.7625 84.11979Q578.02814 83.197914 578.0125 81.479164L578.0125 79.90104Q578.0125 78.11979 578.7469 77.197914Q579.4969 76.260414 580.8875 76.260414Q582.27814 76.260414 583.0125 77.18229Q583.7625 78.104164 583.77814 79.822914L583.77814 81.385414ZM582.075 79.666664Q582.075 78.604164 581.77814 78.11979Q581.4969 77.635414 580.8875 77.635414Q580.29376 77.635414 579.9969 78.104164Q579.71564 78.55729 579.7 79.541664L579.7 81.604164Q579.7 82.65104 579.98126 83.166664Q580.2625 83.666664 580.90314 83.666664Q581.5125 83.666664 581.79376 83.18229Q582.075 82.697914 582.075 81.697914L582.075 79.666664ZM585.0125 78.02604Q585.0125 77.24479 585.5125 76.760414Q586.02814 76.260414 586.85626 76.260414Q587.6844 76.260414 588.2 76.74479Q588.71564 77.229164 588.71564 78.05729L588.71564 78.479164Q588.71564 79.260414 588.2 79.74479Q587.6844 80.229164 586.8719 80.229164Q586.02814 80.229164 585.5125 79.74479Q585.0125 79.260414 585.0125 78.447914L585.0125 78.02604ZM586.1375 78.479164Q586.1375 78.822914 586.34064 79.041664Q586.54376 79.260414 586.8719 79.260414Q587.2 79.260414 587.3875 79.041664Q587.575 78.822914 587.575 78.46354L587.575 78.02604Q587.575 77.666664 587.3875 77.46354Q587.2 77.24479 586.85626 77.24479Q586.52814 77.24479 586.325 77.46354Q586.1375 77.666664 586.1375 78.041664L586.1375 78.479164ZM589.09064 82.822914Q589.09064 82.02604 589.60626 81.55729Q590.1219 81.072914 590.9344 81.072914Q591.7625 81.072914 592.27814 81.55729Q592.79376 82.02604 592.79376 82.854164L592.79376 83.27604Q592.79376 84.072914 592.29376 84.55729Q591.79376 85.041664 590.95 85.041664Q590.10626 85.041664 589.59064 84.55729Q589.09064 84.05729 589.09064 83.260414L589.09064 82.822914ZM590.21564 83.27604Q590.21564 83.604164 590.41876 83.83854Q590.6375 84.05729 590.95 84.05729Q591.66876 84.05729 591.66876 83.27604L591.66876 82.822914Q591.66876 82.479164 591.46564 82.260414Q591.2625 82.041664 590.9344 82.041664Q590.60626 82.041664 590.40314 82.260414Q590.21564 82.479164 590.21564 82.83854L590.21564 83.27604ZM587.2 84.27604L586.3719 83.83854L590.54376 77.166664L591.3719 77.604164L587.2 84.27604Z" fill-rule="nonzero"/><path stroke="#757575" stroke-width="1.0" stroke-linecap="butt" d="M593.45 71.416664L460.76666 71.416664L328.1086 64.094986" fill-rule="nonzero"/><path fill="#9e9e9e" d="M330.1086 64.094986C330.1086 62.990417 329.2132 62.094986 328.1086 62.094986C327.00406 62.094986 326.1086 62.990417 326.1086 64.094986C326.1086 65.199554 327.00406 66.094986 328.1086 66.094986C329.2132 66.094986 330.1086 65.199554 330.1086 64.094986" fill-rule="nonzero"/><path fill="#1a1a1a" d="M535.6375 153.27611Q535.6375 152.77611 535.27814 152.51048Q534.9344 152.24486 534.0125 151.94798Q533.10626 151.65111 532.575 151.35423Q531.1219 150.57298 531.1219 149.24486Q531.1219 148.55736 531.5125 148.01048Q531.90314 147.46361 532.6219 147.16673Q533.35626 146.85423 534.2625 146.85423Q535.1844 146.85423 535.8875 147.19798Q536.60626 147.52611 536.9969 148.13548Q537.40314 148.72923 537.40314 149.49486L535.6375 149.49486Q535.6375 148.91673 535.2625 148.58861Q534.90314 148.26048 534.23126 148.26048Q533.59064 148.26048 533.23126 148.54173Q532.8719 148.80736 532.8719 149.24486Q532.8719 149.66673 533.29376 149.94798Q533.71564 150.22923 534.52814 150.47923Q536.02814 150.93236 536.71564 151.60423Q537.40314 152.26048 537.40314 153.26048Q537.40314 154.36986 536.5594 155.01048Q535.73126 155.63548 534.3094 155.63548Q533.325 155.63548 532.5125 155.27611Q531.7 154.90111 531.27814 154.27611Q530.85626 153.65111 530.85626 152.82298L532.6219 152.82298Q532.6219 154.24486 534.3094 154.24486Q534.9344 154.24486 535.27814 153.99486Q535.6375 153.72923 535.6375 153.27611ZM541.90314 154.86986Q541.27814 155.63548 540.16876 155.63548Q539.1375 155.63548 538.60626 155.04173Q538.075 154.44798 538.0594 153.32298L538.0594 149.16673L539.7469 149.16673L539.7469 153.26048Q539.7469 154.26048 540.65314 154.26048Q541.5125 154.26048 541.84064 153.65111L541.84064 149.16673L543.54376 149.16673L543.54376 155.51048L541.95 155.51048L541.90314 154.86986ZM550.8094 152.40111Q550.8094 153.91673 550.15314 154.77611Q549.5125 155.63548 548.34064 155.63548Q547.3094 155.63548 546.7 154.83861L546.6219 155.51048L545.10626 155.51048L545.10626 146.51048L546.79376 146.51048L546.79376 149.74486Q547.3875 149.05736 548.34064 149.05736Q549.4969 149.05736 550.15314 149.91673Q550.8094 150.76048 550.8094 152.30736L550.8094 152.40111ZM549.1219 152.27611Q549.1219 151.30736 548.8094 150.86986Q548.5125 150.43236 547.90314 150.43236Q547.10626 150.43236 546.79376 151.08861L546.79376 153.58861Q547.10626 154.26048 547.91876 154.26048Q548.7469 154.26048 548.9969 153.44798Q549.1219 153.07298 549.1219 152.27611ZM555.52814 153.76048Q555.52814 153.44798 555.21564 153.27611Q554.91876 153.08861 554.2469 152.94798Q551.98126 152.47923 551.98126 151.02611Q551.98126 150.18236 552.66876 149.61986Q553.3719 149.05736 554.5125 149.05736Q555.71564 149.05736 556.4344 149.61986Q557.16876 150.18236 557.16876 151.10423L555.46564 151.10423Q555.46564 150.72923 555.23126 150.49486Q554.9969 150.26048 554.4969 150.26048Q554.075 150.26048 553.84064 150.46361Q553.60626 150.65111 553.60626 150.94798Q553.60626 151.22923 553.8719 151.40111Q554.1375 151.57298 554.7625 151.69798Q555.40314 151.82298 555.84064 151.97923Q557.1844 152.47923 557.1844 153.68236Q557.1844 154.55736 556.4344 155.10423Q555.7 155.63548 554.5125 155.63548Q553.71564 155.63548 553.09064 155.35423Q552.48126 155.05736 552.1219 154.57298Q551.77814 154.07298 551.77814 153.49486L553.3875 153.49486Q553.40314 153.94798 553.71564 154.19798Q554.02814 154.43236 554.54376 154.43236Q555.04376 154.43236 555.27814 154.24486Q555.52814 154.05736 555.52814 153.76048ZM560.73126 154.26048Q561.2 154.26048 561.4969 154.01048Q561.79376 153.74486 561.8094 153.32298L563.3875 153.32298Q563.3875 153.96361 563.04376 154.51048Q562.7 155.04173 562.09064 155.33861Q561.4969 155.63548 560.7625 155.63548Q559.40314 155.63548 558.6219 154.77611Q557.84064 153.90111 557.84064 152.36986L557.84064 152.26048Q557.84064 150.79173 558.6219 149.93236Q559.40314 149.05736 560.7625 149.05736Q561.95 149.05736 562.66876 149.72923Q563.3875 150.40111 563.3875 151.52611L561.8094 151.52611Q561.79376 151.04173 561.4969 150.72923Q561.2 150.41673 560.73126 150.41673Q560.1375 150.41673 559.825 150.85423Q559.52814 151.29173 559.52814 152.24486L559.52814 152.43236Q559.52814 153.40111 559.825 153.83861Q560.1219 154.26048 560.73126 154.26048ZM567.66876 150.76048Q567.325 150.71361 567.0594 150.71361Q566.09064 150.71361 565.79376 151.35423L565.79376 155.51048L564.10626 155.51048L564.10626 149.16673L565.7 149.16673L565.7469 149.93236Q566.2625 149.05736 567.15314 149.05736Q567.4344 149.05736 567.6844 149.13548L567.66876 150.76048ZM569.8875 155.51048L568.1844 155.51048L568.1844 149.16673L569.8875 149.16673L569.8875 155.51048ZM568.09064 147.52611Q568.09064 147.15111 568.34064 146.90111Q568.60626 146.65111 569.04376 146.65111Q569.46564 146.65111 569.71564 146.90111Q569.98126 147.15111 569.98126 147.52611Q569.98126 147.91673 569.71564 148.16673Q569.46564 148.40111 569.02814 148.40111Q568.60626 148.40111 568.34064 148.16673Q568.09064 147.91673 568.09064 147.52611ZM576.8094 152.40111Q576.8094 153.91673 576.15314 154.77611Q575.5125 155.63548 574.34064 155.63548Q573.3094 155.63548 572.7 154.83861L572.6219 155.51048L571.10626 155.51048L571.10626 146.51048L572.79376 146.51048L572.79376 149.74486Q573.3875 149.05736 574.34064 149.05736Q575.4969 149.05736 576.15314 149.91673Q576.8094 150.76048 576.8094 152.30736L576.8094 152.40111ZM575.1219 152.27611Q575.1219 151.30736 574.8094 150.86986Q574.5125 150.43236 573.90314 150.43236Q573.10626 150.43236 572.79376 151.08861L572.79376 153.58861Q573.10626 154.26048 573.91876 154.26048Q574.7469 154.26048 574.9969 153.44798Q575.1219 153.07298 575.1219 152.27611ZM581.0125 155.63548Q579.6219 155.63548 578.7469 154.77611Q577.8719 153.91673 577.8719 152.49486L577.8719 152.32298Q577.8719 151.36986 578.23126 150.61986Q578.60626 149.86986 579.27814 149.46361Q579.96564 149.05736 580.825 149.05736Q582.1375 149.05736 582.8719 149.88548Q583.6219 150.69798 583.6219 152.19798L583.6219 152.88548L579.59064 152.88548Q579.66876 153.51048 580.075 153.88548Q580.4969 154.26048 581.1375 154.26048Q582.10626 154.26048 582.65314 153.55736L583.4969 154.47923Q583.10626 155.02611 582.45 155.33861Q581.8094 155.63548 581.0125 155.63548ZM580.825 150.41673Q580.325 150.41673 580.0125 150.76048Q579.7 151.10423 579.60626 151.72923L581.96564 151.72923L581.96564 151.60423Q581.95 151.04173 581.65314 150.72923Q581.3719 150.41673 580.825 150.41673ZM587.66876 150.76048Q587.325 150.71361 587.0594 150.71361Q586.09064 150.71361 585.79376 151.35423L585.79376 155.51048L584.10626 155.51048L584.10626 149.16673L585.7 149.16673L585.7469 149.93236Q586.2625 149.05736 587.15314 149.05736Q587.4344 149.05736 587.6844 149.13548L587.66876 150.76048ZM591.52814 153.76048Q591.52814 153.44798 591.21564 153.27611Q590.91876 153.08861 590.2469 152.94798Q587.98126 152.47923 587.98126 151.02611Q587.98126 150.18236 588.66876 149.61986Q589.3719 149.05736 590.5125 149.05736Q591.71564 149.05736 592.4344 149.61986Q593.16876 150.18236 593.16876 151.10423L591.46564 151.10423Q591.46564 150.72923 591.23126 150.49486Q590.9969 150.26048 590.4969 150.26048Q590.075 150.26048 589.84064 150.46361Q589.60626 150.65111 589.60626 150.94798Q589.60626 151.22923 589.8719 151.40111Q590.1375 151.57298 590.7625 151.69798Q591.40314 151.82298 591.84064 151.97923Q593.1844 152.47923 593.1844 153.68236Q593.1844 154.55736 592.4344 155.10423Q591.7 155.63548 590.5125 155.63548Q589.71564 155.63548 589.09064 155.35423Q588.48126 155.05736 588.1219 154.57298Q587.77814 154.07298 587.77814 153.49486L589.3875 153.49486Q589.40314 153.94798 589.71564 154.19798Q590.02814 154.43236 590.54376 154.43236Q591.04376 154.43236 591.27814 154.24486Q591.52814 154.05736 591.52814 153.76048Z" fill-rule="nonzero"/><path fill="#9e9e9e" d="M562.7469 168.49486L563.65314 168.49486Q564.29376 168.49486 564.60626 168.18236Q564.91876 167.85423 564.91876 167.32298Q564.91876 166.80736 564.60626 166.52611Q564.3094 166.22923 563.7625 166.22923Q563.27814 166.22923 562.95 166.49486Q562.6219 166.76048 562.6219 167.18236L560.9344 167.18236Q560.9344 166.52611 561.29376 165.99486Q561.65314 165.46361 562.29376 165.16673Q562.95 164.85423 563.73126 164.85423Q565.075 164.85423 565.84064 165.51048Q566.6219 166.15111 566.6219 167.29173Q566.6219 167.88548 566.2625 168.38548Q565.90314 168.86986 565.325 169.11986Q566.04376 169.38548 566.3875 169.90111Q566.7469 170.41673 566.7469 171.11986Q566.7469 172.26048 565.91876 172.94798Q565.09064 173.63548 563.73126 173.63548Q562.45 173.63548 561.6375 172.96361Q560.825 172.27611 560.825 171.16673L562.5125 171.16673Q562.5125 171.65111 562.8719 171.96361Q563.2469 172.26048 563.7625 172.26048Q564.3719 172.26048 564.71564 171.94798Q565.0594 171.61986 565.0594 171.08861Q565.0594 169.82298 563.65314 169.82298L562.7469 169.82298L562.7469 168.49486ZM573.77814 169.97923Q573.77814 171.74486 573.04376 172.69798Q572.3094 173.63548 570.90314 173.63548Q569.4969 173.63548 568.7625 172.71361Q568.02814 171.79173 568.0125 170.07298L568.0125 168.49486Q568.0125 166.71361 568.7469 165.79173Q569.4969 164.85423 570.8875 164.85423Q572.27814 164.85423 573.0125 165.77611Q573.7625 166.69798 573.77814 168.41673L573.77814 169.97923ZM572.075 168.26048Q572.075 167.19798 571.77814 166.71361Q571.4969 166.22923 570.8875 166.22923Q570.29376 166.22923 569.9969 166.69798Q569.71564 167.15111 569.7 168.13548L569.7 170.19798Q569.7 171.24486 569.98126 171.76048Q570.2625 172.26048 570.90314 172.26048Q571.5125 172.26048 571.79376 171.77611Q572.075 171.29173 572.075 170.29173L572.075 168.26048ZM575.54376 175.65111L574.65314 175.18236L574.8719 174.80736Q575.2625 174.08861 575.27814 173.38548L575.27814 172.07298L576.7 172.07298L576.7 173.24486Q576.6844 173.88548 576.35626 174.54173Q576.04376 175.21361 575.54376 175.65111ZM583.77814 169.97923Q583.77814 171.74486 583.04376 172.69798Q582.3094 173.63548 580.90314 173.63548Q579.4969 173.63548 578.7625 172.71361Q578.02814 171.79173 578.0125 170.07298L578.0125 168.49486Q578.0125 166.71361 578.7469 165.79173Q579.4969 164.85423 580.8875 164.85423Q582.27814 164.85423 583.0125 165.77611Q583.7625 166.69798 583.77814 168.41673L583.77814 169.97923ZM582.075 168.26048Q582.075 167.19798 581.77814 166.71361Q581.4969 166.22923 580.8875 166.22923Q580.29376 166.22923 579.9969 166.69798Q579.71564 167.15111 579.7 168.13548L579.7 170.19798Q579.7 171.24486 579.98126 171.76048Q580.2625 172.26048 580.90314 172.26048Q581.5125 172.26048 581.79376 171.77611Q582.075 171.29173 582.075 170.29173L582.075 168.26048ZM585.0125 166.61986Q585.0125 165.83861 585.5125 165.35423Q586.02814 164.85423 586.85626 164.85423Q587.6844 164.85423 588.2 165.33861Q588.71564 165.82298 588.71564 166.65111L588.71564 167.07298Q588.71564 167.85423 588.2 168.33861Q587.6844 168.82298 586.8719 168.82298Q586.02814 168.82298 585.5125 168.33861Q585.0125 167.85423 585.0125 167.04173L585.0125 166.61986ZM586.1375 167.07298Q586.1375 167.41673 586.34064 167.63548Q586.54376 167.85423 586.8719 167.85423Q587.2 167.85423 587.3875 167.63548Q587.575 167.41673 587.575 167.05736L587.575 166.61986Q587.575 166.26048 587.3875 166.05736Q587.2 165.83861 586.85626 165.83861Q586.52814 165.83861 586.325 166.05736Q586.1375 166.26048 586.1375 166.63548L586.1375 167.07298ZM589.09064 171.41673Q589.09064 170.61986 589.60626 170.15111Q590.1219 169.66673 590.9344 169.66673Q591.7625 169.66673 592.27814 170.15111Q592.79376 170.61986 592.79376 171.44798L592.79376 171.86986Q592.79376 172.66673 592.29376 173.15111Q591.79376 173.63548 590.95 173.63548Q590.10626 173.63548 589.59064 173.15111Q589.09064 172.65111 589.09064 171.85423L589.09064 171.41673ZM590.21564 171.86986Q590.21564 172.19798 590.41876 172.43236Q590.6375 172.65111 590.95 172.65111Q591.66876 172.65111 591.66876 171.86986L591.66876 171.41673Q591.66876 171.07298 591.46564 170.85423Q591.2625 170.63548 590.9344 170.63548Q590.60626 170.63548 590.40314 170.85423Q590.21564 171.07298 590.21564 171.43236L590.21564 171.86986ZM587.2 172.86986L586.3719 172.43236L590.54376 165.76048L591.3719 166.19798L587.2 172.86986Z" fill-rule="nonzero"/><path stroke="#757575" stroke-width="1.0" stroke-linecap="butt" d="M593.45 160.01048L460.76666 160.01048L440.41122 160.01048" fill-rule="nonzero"/><path fill="#9e9e9e" d="M442.41122 160.01048C442.41122 158.90591 441.5158 158.01048 440.41122 158.01048C439.30667 158.01048 438.41122 158.90591 438.41122 160.01048C438.41122 161.11505 439.30667 162.01048 440.41122 162.01048C441.5158 162.01048 442.41122 161.11505 442.41122 160.01048" fill-rule="nonzero"/><path fill="#1a1a1a" d="M546.34064 327.96564L542.96564 327.96564L542.96564 331.45L541.21564 331.45L541.21564 322.91876L546.7625 322.91876L546.7625 324.34064L542.96564 324.34064L542.96564 326.54376L546.34064 326.54376L546.34064 327.96564ZM551.66876 326.7Q551.325 326.65314 551.0594 326.65314Q550.09064 326.65314 549.79376 327.29376L549.79376 331.45L548.10626 331.45L548.10626 325.10626L549.7 325.10626L549.7469 325.8719Q550.2625 324.9969 551.15314 324.9969Q551.4344 324.9969 551.6844 325.075L551.66876 326.7ZM555.0125 331.575Q553.6219 331.575 552.7469 330.71564Q551.8719 329.85626 551.8719 328.4344L551.8719 328.2625Q551.8719 327.3094 552.23126 326.5594Q552.60626 325.8094 553.27814 325.40314Q553.96564 324.9969 554.825 324.9969Q556.1375 324.9969 556.8719 325.825Q557.6219 326.6375 557.6219 328.1375L557.6219 328.825L553.59064 328.825Q553.66876 329.45 554.075 329.825Q554.4969 330.2 555.1375 330.2Q556.10626 330.2 556.65314 329.4969L557.4969 330.41876Q557.10626 330.96564 556.45 331.27814Q555.8094 331.575 555.0125 331.575ZM554.825 326.35626Q554.325 326.35626 554.0125 326.7Q553.7 327.04376 553.60626 327.66876L555.96564 327.66876L555.96564 327.54376Q555.95 326.98126 555.65314 326.66876Q555.3719 326.35626 554.825 326.35626ZM561.0125 331.575Q559.6219 331.575 558.7469 330.71564Q557.8719 329.85626 557.8719 328.4344L557.8719 328.2625Q557.8719 327.3094 558.23126 326.5594Q558.60626 325.8094 559.27814 325.40314Q559.96564 324.9969 560.825 324.9969Q562.1375 324.9969 562.8719 325.825Q563.6219 326.6375 563.6219 328.1375L563.6219 328.825L559.59064 328.825Q559.66876 329.45 560.075 329.825Q560.4969 330.2 561.1375 330.2Q562.10626 330.2 562.65314 329.4969L563.4969 330.41876Q563.10626 330.96564 562.45 331.27814Q561.8094 331.575 561.0125 331.575ZM560.825 326.35626Q560.325 326.35626 560.0125 326.7Q559.7 327.04376 559.60626 327.66876L561.96564 327.66876L561.96564 327.54376Q561.95 326.98126 561.65314 326.66876Q561.3719 326.35626 560.825 326.35626ZM565.6844 325.10626L565.7469 325.825Q566.41876 324.9969 567.5594 324.9969Q568.79376 324.9969 569.2469 325.96564Q569.91876 324.9969 571.15314 324.9969Q572.1844 324.9969 572.6844 325.60626Q573.1844 326.2 573.1844 327.40314L573.1844 331.45L571.4969 331.45L571.4969 327.40314Q571.4969 326.8719 571.27814 326.6219Q571.075 326.3719 570.52814 326.3719Q569.77814 326.3719 569.48126 327.09064L569.48126 331.45L567.79376 331.45L567.79376 327.41876Q567.79376 326.85626 567.575 326.6219Q567.35626 326.3719 566.84064 326.3719Q566.1219 326.3719 565.79376 326.96564L565.79376 331.45L564.10626 331.45L564.10626 325.10626L565.6844 325.10626ZM575.8875 331.45L574.1844 331.45L574.1844 325.10626L575.8875 325.10626L575.8875 331.45ZM574.09064 323.46564Q574.09064 323.09064 574.34064 322.84064Q574.60626 322.59064 575.04376 322.59064Q575.46564 322.59064 575.71564 322.84064Q575.98126 323.09064 575.98126 323.46564Q575.98126 323.85626 575.71564 324.10626Q575.46564 324.34064 575.02814 324.34064Q574.60626 324.34064 574.34064 324.10626Q574.09064 323.85626 574.09064 323.46564ZM580.90314 330.8094Q580.27814 331.575 579.16876 331.575Q578.1375 331.575 577.60626 330.98126Q577.075 330.3875 577.0594 329.2625L577.0594 325.10626L578.7469 325.10626L578.7469 329.2Q578.7469 330.2 579.65314 330.2Q580.5125 330.2 580.84064 329.59064L580.84064 325.10626L582.54376 325.10626L582.54376 331.45L580.95 331.45L580.90314 330.8094ZM585.6844 325.10626L585.7469 325.825Q586.41876 324.9969 587.5594 324.9969Q588.79376 324.9969 589.2469 325.96564Q589.91876 324.9969 591.15314 324.9969Q592.1844 324.9969 592.6844 325.60626Q593.1844 326.2 593.1844 327.40314L593.1844 331.45L591.4969 331.45L591.4969 327.40314Q591.4969 326.8719 591.27814 326.6219Q591.075 326.3719 590.52814 326.3719Q589.77814 326.3719 589.48126 327.09064L589.48126 331.45L587.79376 331.45L587.79376 327.41876Q587.79376 326.85626 587.575 326.6219Q587.35626 326.3719 586.84064 326.3719Q586.1219 326.3719 585.79376 326.96564L585.79376 331.45L584.10626 331.45L584.10626 325.10626L585.6844 325.10626Z" fill-rule="nonzero"/><path fill="#9e9e9e" d="M566.8719 349.45L561.02814 349.45L561.02814 348.29376L563.79376 345.34064Q564.35626 344.73126 564.6219 344.2625Q564.90314 343.79376 564.90314 343.3875Q564.90314 342.8094 564.60626 342.4969Q564.325 342.16876 563.79376 342.16876Q563.21564 342.16876 562.8875 342.5594Q562.5594 342.95 562.5594 343.60626L560.85626 343.60626Q560.85626 342.825 561.23126 342.1844Q561.60626 341.52814 562.27814 341.16876Q562.96564 340.79376 563.825 340.79376Q565.1375 340.79376 565.8719 341.4344Q566.60626 342.0594 566.60626 343.21564Q566.60626 343.85626 566.27814 344.5125Q565.95 345.16876 565.15314 346.04376L563.21564 348.09064L566.8719 348.09064L566.8719 349.45ZM573.59064 343.1844Q573.59064 343.8094 573.27814 344.29376Q572.96564 344.7625 572.41876 345.0594Q573.04376 345.35626 573.40314 345.8875Q573.77814 346.40314 573.77814 347.10626Q573.77814 348.2469 572.9969 348.91876Q572.23126 349.575 570.8875 349.575Q569.5594 349.575 568.77814 348.91876Q568.0125 348.2469 568.0125 347.10626Q568.0125 346.40314 568.3719 345.8719Q568.73126 345.34064 569.35626 345.0594Q568.8094 344.7625 568.4969 344.29376Q568.1844 343.8094 568.1844 343.1844Q568.1844 342.09064 568.90314 341.45Q569.6375 340.79376 570.8875 340.79376Q572.1375 340.79376 572.85626 341.45Q573.59064 342.09064 573.59064 343.1844ZM572.075 346.98126Q572.075 346.4344 571.7469 346.10626Q571.4344 345.7625 570.8875 345.7625Q570.34064 345.7625 570.0125 346.09064Q569.7 346.41876 569.7 346.98126Q569.7 347.52814 570.0125 347.8719Q570.34064 348.2 570.90314 348.2Q571.45 348.2 571.7625 347.8875Q572.075 347.5594 572.075 346.98126ZM571.90314 343.2625Q571.90314 342.7625 571.6375 342.46564Q571.3719 342.16876 570.8875 342.16876Q570.41876 342.16876 570.15314 342.46564Q569.8875 342.7469 569.8875 343.2625Q569.8875 343.77814 570.15314 344.09064Q570.41876 344.40314 570.8875 344.40314Q571.3719 344.40314 571.6375 344.09064Q571.90314 343.77814 571.90314 343.2625ZM575.54376 351.59064L574.65314 351.1219L574.8719 350.7469Q575.2625 350.02814 575.27814 349.325L575.27814 348.0125L576.7 348.0125L576.7 349.1844Q576.6844 349.825 576.35626 350.48126Q576.04376 351.15314 575.54376 351.59064ZM583.77814 345.91876Q583.77814 347.6844 583.04376 348.6375Q582.3094 349.575 580.90314 349.575Q579.4969 349.575 578.7625 348.65314Q578.02814 347.73126 578.0125 346.0125L578.0125 344.4344Q578.0125 342.65314 578.7469 341.73126Q579.4969 340.79376 580.8875 340.79376Q582.27814 340.79376 583.0125 341.71564Q583.7625 342.6375 583.77814 344.35626L583.77814 345.91876ZM582.075 344.2Q582.075 343.1375 581.77814 342.65314Q581.4969 342.16876 580.8875 342.16876Q580.29376 342.16876 579.9969 342.6375Q579.71564 343.09064 579.7 344.075L579.7 346.1375Q579.7 347.1844 579.98126 347.7Q580.2625 348.2 580.90314 348.2Q581.5125 348.2 581.79376 347.71564Q582.075 347.23126 582.075 346.23126L582.075 344.2ZM585.0125 342.5594Q585.0125 341.77814 585.5125 341.29376Q586.02814 340.79376 586.85626 340.79376Q587.6844 340.79376 588.2 341.27814Q588.71564 341.7625 588.71564 342.59064L588.71564 343.0125Q588.71564 343.79376 588.2 344.27814Q587.6844 344.7625 586.8719 344.7625Q586.02814 344.7625 585.5125 344.27814Q585.0125 343.79376 585.0125 342.98126L585.0125 342.5594ZM586.1375 343.0125Q586.1375 343.35626 586.34064 343.575Q586.54376 343.79376 586.8719 343.79376Q587.2 343.79376 587.3875 343.575Q587.575 343.35626 587.575 342.9969L587.575 342.5594Q587.575 342.2 587.3875 341.9969Q587.2 341.77814 586.85626 341.77814Q586.52814 341.77814 586.325 341.9969Q586.1375 342.2 586.1375 342.575L586.1375 343.0125ZM589.09064 347.35626Q589.09064 346.5594 589.60626 346.09064Q590.1219 345.60626 590.9344 345.60626Q591.7625 345.60626 592.27814 346.09064Q592.79376 346.5594 592.79376 347.3875L592.79376 347.8094Q592.79376 348.60626 592.29376 349.09064Q591.79376 349.575 590.95 349.575Q590.10626 349.575 589.59064 349.09064Q589.09064 348.59064 589.09064 347.79376L589.09064 347.35626ZM590.21564 347.8094Q590.21564 348.1375 590.41876 348.3719Q590.6375 348.59064 590.95 348.59064Q591.66876 348.59064 591.66876 347.8094L591.66876 347.35626Q591.66876 347.0125 591.46564 346.79376Q591.2625 346.575 590.9344 346.575Q590.60626 346.575 590.40314 346.79376Q590.21564 347.0125 590.21564 347.3719L590.21564 347.8094ZM587.2 348.8094L586.3719 348.3719L590.54376 341.7L591.3719 342.1375L587.2 348.8094Z" fill-rule="nonzero"/><path stroke="#757575" stroke-width="1.0" stroke-linecap="butt" d="M593.45 335.95L460.76666 335.95L314.87408 344.7328" fill-rule="nonzero"/><path fill="#9e9e9e" d="M316.87408 344.7328C316.87408 343.6282 315.97864 342.7328 314.87408 342.7328C313.7695 342.7328 312.87408 343.6282 312.87408 344.7328C312.87408 345.83737 313.7695 346.7328 314.87408 346.7328C315.97864 346.7328 316.87408 345.83737 316.87408 344.7328" fill-rule="nonzero"/><path fill="#757575" d="M30.01875 24.878124L25.45625 24.878124L25.45625 37.55L23.596874 37.55L23.596874 24.878124L19.034374 24.878124L19.034374 23.33125L30.01875 23.33125L30.01875 24.878124ZM31.440624 32.175Q31.440624 30.6125 32.05 29.378124Q32.659374 28.128124 33.7375 27.45625Q34.83125 26.784374 36.2375 26.784374Q38.39375 26.784374 39.721874 28.284374Q41.065624 29.76875 41.065624 32.253124L41.065624 32.378124Q41.065624 33.925 40.471874 35.159374Q39.878124 36.378124 38.76875 37.065624Q37.675 37.753124 36.253124 37.753124Q34.1125 37.753124 32.76875 36.253124Q31.440624 34.753124 31.440624 32.3L31.440624 32.175ZM33.253124 32.378124Q33.253124 34.14375 34.065624 35.20625Q34.89375 36.26875 36.253124 36.26875Q37.628124 36.26875 38.440624 35.190624Q39.253124 34.1125 39.253124 32.175Q39.253124 30.425 38.425 29.346874Q37.596874 28.26875 36.2375 28.26875Q34.89375 28.26875 34.065624 29.33125Q33.253124 30.39375 33.253124 32.378124ZM45.3625 24.425L45.3625 26.9875L47.346874 26.9875L47.346874 28.378124L45.3625 28.378124L45.3625 34.925Q45.3625 35.565624 45.628124 35.89375Q45.89375 36.20625 46.534374 36.20625Q46.846874 36.20625 47.39375 36.08125L47.39375 37.55Q46.675 37.753124 46.003124 37.753124Q44.8 37.753124 44.175 37.01875Q43.565624 36.284374 43.565624 34.925L43.565624 28.378124L41.64375 28.378124L41.64375 26.9875L43.565624 26.9875L43.565624 24.425L45.3625 24.425ZM56.440624 37.55Q56.284374 37.2375 56.190624 36.440624Q54.925 37.753124 53.175 37.753124Q51.6125 37.753124 50.6125 36.8625Q49.6125 35.971874 49.6125 34.6125Q49.6125 32.971874 50.8625 32.065624Q52.128124 31.14375 54.39375 31.14375L56.159374 31.14375L56.159374 30.315624Q56.159374 29.3625 55.58125 28.8Q55.01875 28.2375 53.925 28.2375Q52.95625 28.2375 52.3 28.7375Q51.64375 29.221874 51.64375 29.909374L49.83125 29.909374Q49.83125 29.128124 50.39375 28.39375Q50.95625 27.64375 51.909374 27.221874Q52.878124 26.784374 54.034374 26.784374Q55.8625 26.784374 56.89375 27.70625Q57.925 28.6125 57.971874 30.221874L57.971874 35.08125Q57.971874 36.534374 58.33125 37.39375L58.33125 37.55L56.440624 37.55ZM53.440624 36.175Q54.3 36.175 55.05 35.7375Q55.815624 35.3 56.159374 34.596874L56.159374 32.425L54.7375 32.425Q51.425 32.425 51.425 34.3625Q51.425 35.221874 51.9875 35.70625Q52.55 36.175 53.440624 36.175ZM62.878124 37.55L61.08125 37.55L61.08125 22.55L62.878124 22.55L62.878124 37.55ZM72.87813 37.55L71.08125 37.55L71.08125 26.9875L72.87813 26.9875L72.87813 37.55ZM70.925 24.175Q70.925 23.7375 71.19063 23.440624Q71.47188 23.128124 71.9875 23.128124Q72.51875 23.128124 72.78438 23.440624Q73.06563 23.7375 73.06563 24.175Q73.06563 24.6125 72.78438 24.909374Q72.51875 25.20625 71.9875 25.20625Q71.47188 25.20625 71.19063 24.909374Q70.925 24.6125 70.925 24.175ZM77.62813 26.9875L77.69063 28.315624Q78.89375 26.784374 80.84688 26.784374Q84.20625 26.784374 84.22188 30.565624L84.22188 37.55L82.425 37.55L82.425 30.55Q82.40938 29.409374 81.89375 28.8625Q81.39375 28.315624 80.3 28.315624Q79.425 28.315624 78.75313 28.784374Q78.09688 29.253124 77.72188 30.01875L77.72188 37.55L75.925 37.55L75.925 26.9875L77.62813 26.9875ZM91.15938 36.26875Q92.12813 36.26875 92.84688 35.690624Q93.56563 35.096874 93.64375 34.221874L95.3625 34.221874Q95.3 35.128124 94.72188 35.95625Q94.15938 36.76875 93.19063 37.26875Q92.2375 37.753124 91.15938 37.753124Q89.00313 37.753124 87.72188 36.315624Q86.45625 34.8625 86.45625 32.3625L86.45625 32.065624Q86.45625 30.51875 87.01875 29.315624Q87.58125 28.1125 88.64375 27.45625Q89.70625 26.784374 91.14375 26.784374Q92.925 26.784374 94.09688 27.846874Q95.28438 28.909374 95.3625 30.6125L93.64375 30.6125Q93.56563 29.596874 92.8625 28.940624Q92.175 28.26875 91.14375 28.26875Q89.76875 28.26875 89.00313 29.26875Q88.25313 30.253124 88.25313 32.128124L88.25313 32.471874Q88.25313 34.3 89.00313 35.284374Q89.75313 36.26875 91.15938 36.26875ZM96.44063 32.175Q96.44063 30.6125 97.05 29.378124Q97.65938 28.128124 98.7375 27.45625Q99.83125 26.784374 101.2375 26.784374Q103.39375 26.784374 104.72188 28.284374Q106.06563 29.76875 106.06563 32.253124L106.06563 32.378124Q106.06563 33.925 105.47188 35.159374Q104.87813 36.378124 103.76875 37.065624Q102.675 37.753124 101.25313 37.753124Q99.1125 37.753124 97.76875 36.253124Q96.44063 34.753124 96.44063 32.3L96.44063 32.175ZM98.25313 32.378124Q98.25313 34.14375 99.06563 35.20625Q99.89375 36.26875 101.25313 36.26875Q102.62813 36.26875 103.44063 35.190624Q104.25313 34.1125 104.25313 32.175Q104.25313 30.425 103.425 29.346874Q102.59688 28.26875 101.2375 28.26875Q99.89375 28.26875 99.06563 29.33125Q98.25313 30.39375 98.25313 32.378124ZM109.6125 26.9875L109.65938 28.159374Q110.83125 26.784374 112.8 26.784374Q115.01875 26.784374 115.81563 28.4875Q116.34688 27.721874 117.19063 27.253124Q118.03438 26.784374 119.19063 26.784374Q122.65938 26.784374 122.72188 30.471874L122.72188 37.55L120.90938 37.55L120.90938 30.58125Q120.90938 29.440624 120.39375 28.878124Q119.87813 28.315624 118.65938 28.315624Q117.65938 28.315624 116.9875 28.925Q116.33125 29.51875 116.22188 30.534374L116.22188 37.55L114.40938 37.55L114.40938 30.628124Q114.40938 28.315624 112.14375 28.315624Q110.3625 28.315624 109.72188 29.83125L109.72188 37.55L107.90938 37.55L107.90938 26.9875L109.6125 26.9875ZM130.3 37.753124Q128.15938 37.753124 126.8 36.346874Q125.45625 34.925 125.45625 32.565624L125.45625 32.221874Q125.45625 30.659374 126.05 29.425Q126.65938 28.190624 127.7375 27.4875Q128.81563 26.784374 130.08125 26.784374Q132.14375 26.784374 133.28438 28.14375Q134.425 29.503124 134.425 32.034374L134.425 32.784374L127.26875 32.784374Q127.3 34.346874 128.175 35.315624Q129.05 36.26875 130.39375 36.26875Q131.3625 36.26875 132.01875 35.878124Q132.69063 35.4875 133.19063 34.846874L134.28438 35.70625Q132.95625 37.753124 130.3 37.753124ZM130.08125 28.26875Q128.9875 28.26875 128.2375 29.065624Q127.50313 29.8625 127.33125 31.3L132.6125 31.3L132.6125 31.159374Q132.53438 29.784374 131.8625 29.034374Q131.20625 28.26875 130.08125 28.26875ZM143.06563 34.753124Q143.06563 34.01875 142.51875 33.6125Q141.97188 33.20625 140.59688 32.909374Q139.22188 32.6125 138.40938 32.20625Q137.6125 31.8 137.22188 31.2375Q136.84688 30.659374 136.84688 29.878124Q136.84688 28.58125 137.94063 27.690624Q139.03438 26.784374 140.75313 26.784374Q142.55 26.784374 143.65938 27.721874Q144.78438 28.64375 144.78438 30.08125L142.95625 30.08125Q142.95625 29.346874 142.33125 28.815624Q141.70625 28.26875 140.75313 28.26875Q139.75313 28.26875 139.19063 28.70625Q138.64375 29.128124 138.64375 29.83125Q138.64375 30.471874 139.15938 30.815624Q139.675 31.14375 141.03438 31.45625Q142.39375 31.753124 143.22188 32.175Q144.06563 32.58125 144.47188 33.175Q144.87813 33.76875 144.87813 34.6125Q144.87813 36.034374 143.7375 36.89375Q142.6125 37.753124 140.8 37.753124Q139.53438 37.753124 138.55 37.3Q137.58125 36.846874 137.01875 36.05Q136.47188 35.2375 136.47188 34.3L138.28438 34.3Q138.33125 35.20625 139.00313 35.7375Q139.69063 36.26875 140.8 36.26875Q141.83125 36.26875 142.44063 35.8625Q143.06563 35.440624 143.06563 34.753124Z" fill-rule="nonzero"/></svg>